<svg xmlns="http://www.w3.org/2000/svg" width="48" height="49" fill="none"><path d="M24 48.664c-13.256 0-24-10.894-24-24.332S10.744 0 24 0s24 10.894 24 24.332-10.744 24.332-24 24.332z" fill="#f70"/><path d="M20.18 17.955v16.627c0 1.67 1.343 3.024 2.999 3.024s2.999-1.354 2.999-3.024V17.955c0-1.67-1.343-3.024-2.999-3.024s-2.999 1.354-2.999 3.024zm-9.817 5.552v11.047c0 1.681 1.343 3.048 2.999 3.048s3-1.365 3-3.048V23.507c0-1.681-1.343-3.048-3-3.048s-2.999 1.365-2.999 3.048h0zm19.631-11.06v22.104c0 1.681 1.343 3.048 3 3.048s2.999-1.365 2.999-3.048V12.449c0-1.681-1.343-3.048-2.999-3.048s-3 1.365-3 3.048v-.002z" fill="#fff"/></svg>
