<svg width="145" height="41" viewBox="0 0 145 41" fill="none" xmlns="http://www.w3.org/2000/svg">
<g clip-path="url(#clip0)">
<path d="M13.4715 3.81179C13.332 3.8669 13.2854 4.04141 13.3785 4.15163L14.0018 4.95073L20.375 13.061L20.4959 13.2172L21.9194 15.0266L25.6409 19.7661L26.0224 20.2161C26.0875 20.2896 26.1898 20.3172 26.2829 20.2804C26.5062 20.1886 26.9062 20.0324 26.9248 20.0233L27.297 19.8671L27.7808 19.665L27.9762 19.5824L29.4276 18.967L29.5578 18.9119L29.6136 18.8935L30.1347 18.6731L31.3814 18.1495L35.4564 16.4227C35.6797 16.3309 35.8565 16.2115 36.0054 16.0645C36.0147 16.0553 36.024 16.037 36.0333 16.0278C36.1542 15.8992 36.2473 15.7522 36.3031 15.5961C36.3589 15.4308 36.3682 15.2654 36.3403 15.1001C36.3403 15.0909 36.3403 15.0909 36.3403 15.0817C36.3403 15.0726 36.331 15.0542 36.331 15.045C36.3124 14.9807 36.2938 14.9256 36.2659 14.8613C36.2566 14.8429 36.2473 14.8154 36.238 14.797C36.2007 14.7235 36.1542 14.65 36.0984 14.5766L31.6233 9.09314C31.5767 9.03803 31.3907 8.80841 31.2697 8.65227C31.2046 8.57879 31.1022 8.55123 31.0092 8.58797L29.7811 9.09314L29.6509 9.14825L26.9434 10.2596C26.8039 10.3147 26.7574 10.4801 26.8504 10.5995C26.9621 10.7464 27.0923 10.921 27.1295 10.9577L27.4459 11.3435L29.5485 13.9704L29.5857 14.0163C29.6229 14.0622 29.6509 14.1173 29.6788 14.1632C29.6974 14.2 29.7067 14.2459 29.716 14.2826C29.7253 14.3194 29.7253 14.3653 29.7253 14.4021C29.7253 14.4572 29.716 14.5031 29.6974 14.5582C29.6974 14.5582 29.6974 14.5582 29.6974 14.5674C29.6974 14.5766 29.6881 14.5858 29.6881 14.5858C29.6881 14.5949 29.6788 14.6041 29.6788 14.6133C29.6602 14.65 29.6416 14.6868 29.6136 14.7235C29.6043 14.7419 29.5857 14.7511 29.5764 14.7695C29.5671 14.7878 29.5578 14.797 29.5392 14.8154C29.5206 14.8337 29.502 14.8429 29.4834 14.8613C29.4648 14.8705 29.4555 14.8889 29.4369 14.898C29.381 14.9348 29.3159 14.9715 29.2508 14.9991C29.1298 15.045 29.0089 15.0817 28.8786 15.0909C28.7484 15.1001 28.6181 15.0909 28.4972 15.0726C28.3762 15.045 28.2553 15.0083 28.1529 14.9532C28.0506 14.898 27.9576 14.8246 27.8924 14.7419L27.4179 14.1449L26.9807 13.5938L24.6826 10.7464L22.2915 7.76132L20.4773 5.49264C20.4494 5.4559 20.4215 5.41916 20.4029 5.38242C20.4029 5.37323 20.3936 5.36405 20.3936 5.35486C20.3749 5.31812 20.3656 5.28138 20.3563 5.23546V5.22627C20.347 5.14361 20.3563 5.05176 20.3843 4.96909C20.4215 4.88643 20.4773 4.80377 20.5517 4.73029C20.6262 4.65681 20.7285 4.59251 20.8401 4.54659C20.9518 4.50066 21.082 4.47311 21.203 4.46392C21.3239 4.45474 21.4542 4.46392 21.5751 4.48229C21.6961 4.50985 21.8077 4.54659 21.9101 4.6017C22.0124 4.65681 22.0962 4.7211 22.1613 4.80377L22.2915 4.96909L24.6919 7.96339L25.1943 8.58797C25.2408 8.64308 25.4176 8.87271 25.5386 9.02885C25.6037 9.11151 25.706 9.13907 25.8084 9.10233L29.8835 7.43067C30.023 7.37556 30.0695 7.20104 29.9765 7.08164L24.7664 0.716456C24.6454 0.560311 24.4779 0.440907 24.2919 0.339872C24.1058 0.238838 23.8918 0.165358 23.6685 0.128618C23.4452 0.0826932 23.2126 0.0735082 22.98 0.0918782C22.7474 0.110248 22.5148 0.165358 22.3008 0.248023L13.4715 3.81179Z" fill="#F52334"/>
<path d="M37.8943 15.7978C37.8943 15.8805 37.8757 15.9632 37.8664 16.0366C37.8664 16.055 37.8571 16.0642 37.8571 16.0826C37.8478 16.1285 37.8385 16.1836 37.8199 16.2295C37.8106 16.2479 37.8106 16.2571 37.8013 16.2754C37.792 16.303 37.7827 16.3306 37.7734 16.3489C37.7548 16.404 37.7269 16.4591 37.699 16.5051C37.6897 16.5326 37.6711 16.551 37.6617 16.5785C37.6245 16.6428 37.5873 16.6979 37.5408 16.7531C37.5315 16.7622 37.5222 16.7806 37.5129 16.7898C37.4664 16.8541 37.4105 16.9184 37.3454 16.9735L37.3361 16.9827C37.2338 17.0837 37.1221 17.1756 36.9919 17.2582C36.964 17.2766 36.9361 17.295 36.8988 17.3133C36.7686 17.396 36.6197 17.4787 36.4616 17.543L36.2755 17.6164L35.9778 17.745L31.3445 19.7106L30.107 20.2342L29.586 20.4546L29.5302 20.473L29.4 20.5281L28.9348 20.721L27.7625 21.217L27.2787 21.419L26.8414 21.6027L25.6784 22.0895C25.5854 22.1263 25.4737 22.0987 25.4086 22.0252L24.5713 20.9506L20.5055 15.7427L20.3846 15.5866L20.3753 15.5774L14.0487 7.47624L13.5649 6.86085L12.1042 5.05141L11.7692 4.61972C11.7041 4.53706 11.6018 4.5095 11.4994 4.54624L2.37237 8.22941C2.27003 8.26615 2.18629 8.32126 2.09325 8.36719C2.06534 8.38556 2.04673 8.39474 2.01882 8.41311C1.9537 8.45904 1.89787 8.49578 1.84205 8.55089C1.83275 8.56007 1.81414 8.56926 1.80483 8.57844C1.79553 8.57844 1.79553 8.58763 1.79553 8.58763C1.7304 8.65192 1.67458 8.71621 1.61876 8.78051C1.60945 8.79888 1.60015 8.80806 1.59085 8.82643C1.55363 8.88154 1.51642 8.93665 1.49781 9.00095C1.48851 9.01013 1.4792 9.01932 1.4792 9.03769C1.4792 9.04687 1.4792 9.05606 1.4699 9.06524C1.44199 9.12954 1.42338 9.20302 1.41407 9.2765C1.41407 9.28568 1.41407 9.28568 1.41407 9.29487C1.40477 9.37753 1.40477 9.4602 1.41407 9.54286C1.43268 9.71738 1.50711 9.88271 1.61876 10.0388L2.52123 11.2421L8.2989 18.9483L8.41055 19.0952L9.2758 20.2525L12.4484 24.4868C12.5787 24.6521 12.7461 24.7991 12.9322 24.9093C13.1276 25.0195 13.3509 25.1022 13.5835 25.1481C13.8161 25.194 14.0673 25.2124 14.3092 25.1849C14.5511 25.1665 14.8023 25.1022 15.0256 25.0103L15.3977 24.8542L16.1327 24.5419L17.2492 24.0735L19.6961 23.0356C19.7891 22.9988 19.9008 23.0264 19.9659 23.1091L20.6172 23.9633C20.7102 24.0827 20.6637 24.248 20.5241 24.3031L17.2678 25.6808L17.0631 25.7635L15.4256 26.4616L15.2302 26.5442C14.8581 26.7004 14.4673 26.7922 14.0673 26.829C13.6672 26.8657 13.2671 26.8382 12.895 26.7647C12.5135 26.6912 12.16 26.5534 11.8437 26.3789C11.5273 26.1952 11.2575 25.9656 11.0528 25.69L8.51289 22.2732L8.40124 22.1263L7.53599 20.969L2.67009 14.4293L1.57224 12.9597L0.362743 11.2604C0.316224 11.1962 0.269705 11.1227 0.23249 11.0492C0.223186 11.0216 0.213882 11.0033 0.195274 10.9757C0.167363 10.9298 0.148755 10.8839 0.130148 10.8288C0.120844 10.8012 0.11154 10.7736 0.102236 10.7461C0.0836285 10.7002 0.0743246 10.6542 0.0650208 10.6175C0.055717 10.5899 0.0464132 10.5532 0.0464132 10.5257C0.0371094 10.4889 0.0371094 10.4522 0.0371094 10.4522L0.0836285 23.3754C0.0836285 23.4489 0.102236 23.5316 0.11154 23.605C0.130148 23.6785 0.148755 23.752 0.176667 23.8347C0.204578 23.9081 0.23249 23.9816 0.279009 24.0551C0.316224 24.1286 0.362743 24.2021 0.418566 24.2755L11.4808 39.5593C11.6762 39.8349 11.9367 40.0553 12.2437 40.239C12.5414 40.4135 12.8857 40.5513 13.2578 40.6248C13.6207 40.6983 14.0021 40.7258 14.3929 40.6891C14.7744 40.6523 15.1558 40.5605 15.5094 40.4043L36.5267 31.2286C36.7407 31.1367 36.9361 31.0173 37.1035 30.8887C37.271 30.7601 37.4198 30.6224 37.5315 30.4662C37.6524 30.3101 37.7362 30.1447 37.8106 29.9794C37.913 29.7406 37.9223 29.4559 37.9223 29.4559L37.8943 15.7978ZM17.184 19.7382C17.184 19.7474 17.184 19.7565 17.1747 19.7657V19.7749C17.1561 19.83 17.1282 19.8759 17.091 19.9311C17.0817 19.9402 17.0724 19.9586 17.0538 19.9678C17.0352 19.9862 17.0166 20.0137 16.998 20.0321C16.9794 20.0505 16.9608 20.0596 16.9421 20.078C16.9235 20.0872 16.9142 20.1056 16.8956 20.1148C16.8398 20.1607 16.7747 20.1974 16.7002 20.225C16.5793 20.2801 16.449 20.3076 16.3188 20.3168C16.1885 20.326 16.0583 20.3168 15.9373 20.2985C15.8164 20.2709 15.6954 20.2342 15.5931 20.1699C15.4908 20.1148 15.3977 20.0413 15.3326 19.9494L14.0673 18.2961L13.7788 17.9104L12.3647 16.0642L11.1273 14.4476L8.11282 10.4981C8.08491 10.4614 8.057 10.4154 8.0477 10.3787C8.0477 10.3695 8.03839 10.3695 8.03839 10.3603C8.01978 10.3236 8.01048 10.2777 8.00118 10.2409V10.2317V10.2225C7.99187 10.1399 8.00118 10.048 8.03839 9.96537C8.07561 9.87352 8.13143 9.79086 8.21517 9.71738C8.2989 9.6439 8.39194 9.5796 8.51289 9.53368C8.63384 9.48775 8.75479 9.4602 8.88504 9.44183C9.01529 9.43264 9.13624 9.44183 9.25719 9.4602C9.37814 9.48775 9.48979 9.52449 9.59213 9.5796C9.69447 9.63471 9.77821 9.70819 9.84333 9.79086L11.0435 11.3523L12.2902 12.9689L13.7137 14.8242L14.1882 15.4396L15.7978 17.5338L17.0817 19.2054C17.1468 19.2973 17.1933 19.3891 17.2027 19.481C17.212 19.5177 17.2027 19.5453 17.2027 19.582C17.2027 19.6371 17.1933 19.6831 17.184 19.7382Z" fill="#F52334"/>
<path d="M54.8279 25.0655C53.6184 25.3135 52.5671 25.4329 51.6553 25.4329H51.004C50.1574 25.4329 49.4782 25.1849 48.9758 24.6797C48.4641 24.1745 48.2129 23.504 48.2129 22.6774V18.4431C48.2129 17.5246 48.4734 16.799 49.0037 16.2846C49.534 15.7611 50.2597 15.5039 51.1901 15.5039H58.0842V28.3812H54.8186V25.0655H54.8279ZM52.595 22.9529C53.3765 22.9529 54.1208 22.8886 54.8279 22.7692V17.9839H52.2228C51.7297 17.9839 51.4785 18.2318 51.4785 18.7186V22.31C51.4785 22.4937 51.5437 22.6498 51.6646 22.7692C51.7856 22.8886 51.9437 22.9529 52.1298 22.9529H52.595Z" fill="#323E48"/>
<path d="M64.5222 22.7692C65.1828 22.7692 65.9271 22.6498 66.7551 22.4018V15.5039H70.0208V25.2584H67.1366L66.9505 24.3399C66.3644 24.7164 65.7689 25.0012 65.1549 25.1757C64.5408 25.3502 64.0198 25.4421 63.6011 25.4421H62.7638C61.9172 25.4421 61.238 25.1941 60.7356 24.6889C60.2239 24.1837 59.9727 23.5132 59.9727 22.6866V15.5131H63.2383V22.1355C63.2383 22.3192 63.3034 22.4753 63.4244 22.5947C63.5453 22.7141 63.7035 22.7784 63.8896 22.7784H64.5222V22.7692Z" fill="#323E48"/>
<path d="M72.3469 15.6877C74.617 15.4397 76.6731 15.3203 78.4966 15.3203C79.3433 15.3203 80.0225 15.5683 80.5249 16.0735C81.0366 16.5787 81.2878 17.2492 81.2878 18.0758V25.2493H78.4036L78.2175 24.3308C77.6314 24.7074 77.036 24.9921 76.4219 25.1666C75.8079 25.3411 75.2868 25.433 74.8682 25.433H74.2169C73.3703 25.433 72.6911 25.185 72.1887 24.6798C71.677 24.1746 71.4258 23.5041 71.4258 22.6775V21.8508C71.4258 21.015 71.677 20.3445 72.1887 19.8485C72.7004 19.3433 73.3796 19.0953 74.2169 19.0953H78.0408V18.3605C78.0408 18.1768 77.9756 18.0207 77.8547 17.9013C77.7337 17.7819 77.5756 17.7176 77.3895 17.7176C76.5801 17.7176 75.6869 17.7543 74.7193 17.8278C73.7424 17.9013 72.9609 17.9564 72.3655 17.9931V15.6877H72.3469ZM75.7986 22.8612C76.4591 22.8612 77.2034 22.7418 78.0315 22.4938V21.3916H75.3334C75.1473 21.3916 74.9891 21.4559 74.8682 21.5753C74.7472 21.6947 74.6821 21.8508 74.6821 22.0345V22.2182C74.6821 22.4019 74.7472 22.5581 74.8682 22.6775C74.9891 22.7969 75.1473 22.8612 75.3334 22.8612H75.7986Z" fill="#323E48"/>
<path d="M89.9589 25.2494L89.7728 24.3309C89.1867 24.7075 88.5912 24.9922 87.9772 25.1667C87.3631 25.3413 86.8421 25.4331 86.4234 25.4331H85.5861C84.7394 25.4331 84.0602 25.1851 83.5578 24.6799C83.0461 24.1748 82.7949 23.5043 82.7949 22.6776V18.4433C82.7949 17.5248 83.0554 16.7992 83.5858 16.2849C84.1161 15.7613 84.8418 15.5041 85.7722 15.5041H89.5961V12.3721H92.8524V25.2494H89.9589ZM87.3538 22.7695C88.0144 22.7695 88.7587 22.6501 89.5868 22.4021V17.9841H86.7863C86.2932 17.9841 86.042 18.2321 86.042 18.7189V22.1265C86.042 22.3102 86.1071 22.4664 86.228 22.5858C86.349 22.7052 86.5072 22.7695 86.6932 22.7695H87.3538Z" fill="#323E48"/>
<path d="M103.468 25.0655C101.142 25.3135 99.0955 25.4329 97.3185 25.4329C96.4718 25.4329 95.7927 25.1849 95.2903 24.6797C94.7785 24.1745 94.5273 23.504 94.5273 22.6774V18.4431C94.5273 17.5246 94.7879 16.799 95.3182 16.2846C95.8485 15.7611 96.5742 15.5039 97.5046 15.5039H103.468V17.9839H98.528C98.0349 17.9839 97.7837 18.2318 97.7837 18.7186V22.31C97.7837 22.4937 97.8488 22.6498 97.9698 22.7692C98.0907 22.8886 98.2489 22.9529 98.4349 22.9529C99.5514 22.9529 101.235 22.8611 103.468 22.6774V25.0655Z" fill="#323E48"/>
<path d="M115.025 22.4938C115.025 23.4123 114.764 24.1379 114.234 24.6522C113.704 25.1758 112.978 25.433 112.048 25.433H107.758C106.828 25.433 106.093 25.1758 105.572 24.6522C105.042 24.1287 104.781 23.4123 104.781 22.4938V18.2595C104.781 17.341 105.042 16.6154 105.572 16.101C106.102 15.5867 106.828 15.3203 107.758 15.3203H112.048C112.978 15.3203 113.713 15.5775 114.234 16.101C114.764 16.6246 115.025 17.341 115.025 18.2595V22.4938ZM111.768 18.5351C111.768 18.0483 111.517 17.8003 111.024 17.8003H108.791C108.298 17.8003 108.047 18.0483 108.047 18.5351V22.2182C108.047 22.705 108.298 22.953 108.791 22.953H111.024C111.517 22.953 111.768 22.705 111.768 22.2182V18.5351Z" fill="#323E48"/>
<path d="M123.695 25.2494L123.509 24.3309C122.923 24.7075 122.328 24.9922 121.713 25.1667C121.099 25.3413 120.578 25.4331 120.16 25.4331H119.322C118.476 25.4331 117.797 25.1851 117.294 24.6799C116.782 24.1748 116.531 23.5043 116.531 22.6776V18.4433C116.531 17.5248 116.792 16.7992 117.322 16.2849C117.852 15.7613 118.578 15.5041 119.508 15.5041H123.332V12.3721H126.598V25.2494H123.695ZM121.081 22.7695C121.741 22.7695 122.486 22.6501 123.314 22.4021V17.9841H120.513C120.02 17.9841 119.769 18.2321 119.769 18.7189V22.1265C119.769 22.3102 119.834 22.4664 119.955 22.5858C120.076 22.7052 120.234 22.7695 120.42 22.7695H121.081Z" fill="#323E48"/>
<path d="M137.575 25.0656C135.174 25.3136 133.007 25.433 131.053 25.433C130.206 25.433 129.527 25.185 129.025 24.6798C128.513 24.1746 128.262 23.5041 128.262 22.6775V18.2595C128.262 17.341 128.522 16.6154 129.053 16.101C129.583 15.5775 130.309 15.3203 131.239 15.3203H134.97C135.9 15.3203 136.635 15.5775 137.156 16.101C137.686 16.6246 137.947 17.341 137.947 18.2595V21.6671H131.518V22.4019C131.518 22.5856 131.583 22.7418 131.704 22.8612C131.825 22.9806 131.983 23.0449 132.169 23.0449C133.397 23.0449 135.202 22.953 137.575 22.7693V25.0656ZM132.262 17.6166C131.769 17.6166 131.518 17.8646 131.518 18.3514V19.3617H134.691V18.3514C134.691 17.8646 134.439 17.6166 133.946 17.6166H132.262Z" fill="#323E48"/>
<path d="M139.018 11.0956C139.018 9.46989 140.348 8.1748 141.976 8.1748C143.623 8.1748 144.935 9.46989 144.935 11.0956C144.935 12.7122 143.623 14.0164 141.976 14.0164C140.339 14.0164 139.018 12.703 139.018 11.0956ZM139.473 11.0956C139.473 12.4458 140.59 13.5664 141.976 13.5664C143.362 13.5664 144.46 12.4458 144.46 11.0956C144.46 9.71788 143.353 8.64324 141.976 8.64324C140.59 8.63405 139.473 9.70869 139.473 11.0956ZM141.892 11.4538H141.334V12.7765H140.832V9.42396H142.218C142.851 9.42396 143.353 9.8281 143.353 10.4435C143.353 11.1875 142.683 11.4355 142.488 11.4355L143.4 12.7765H142.786L141.892 11.4538ZM141.334 9.83728V11.0221H142.218C142.572 11.0221 142.832 10.7833 142.832 10.4435C142.832 10.0669 142.562 9.83728 142.218 9.83728H141.334Z" fill="#323E48"/>
</g>
<defs>
<clipPath id="clip0">
<rect width="145" height="40.7812" fill="white"/>
</clipPath>
</defs>
</svg>
