<svg width="145" height="41" viewBox="0 0 145 41" fill="none" xmlns="http://www.w3.org/2000/svg">
<g clip-path="url(#clip0)">
<path d="M13.4715 3.81179C13.332 3.8669 13.2854 4.04141 13.3785 4.15163L14.0018 4.95073L20.375 13.061L20.4959 13.2172L21.9194 15.0266L25.6409 19.7661L26.0224 20.2161C26.0875 20.2896 26.1898 20.3172 26.2829 20.2804C26.5062 20.1886 26.9062 20.0324 26.9248 20.0233L27.297 19.8671L27.7808 19.665L27.9762 19.5824L29.4276 18.967L29.5578 18.9119L29.6136 18.8935L30.1347 18.6731L31.3814 18.1495L35.4564 16.4227C35.6797 16.3309 35.8565 16.2115 36.0054 16.0645C36.0147 16.0553 36.024 16.037 36.0333 16.0278C36.1542 15.8992 36.2473 15.7522 36.3031 15.5961C36.3589 15.4308 36.3682 15.2654 36.3403 15.1001C36.3403 15.0909 36.3403 15.0909 36.3403 15.0817C36.3403 15.0726 36.331 15.0542 36.331 15.045C36.3124 14.9807 36.2938 14.9256 36.2659 14.8613C36.2566 14.8429 36.2473 14.8154 36.238 14.797C36.2007 14.7235 36.1542 14.65 36.0984 14.5766L31.6233 9.09314C31.5767 9.03803 31.3907 8.80841 31.2697 8.65227C31.2046 8.57879 31.1022 8.55123 31.0092 8.58797L29.7811 9.09314L29.6509 9.14825L26.9434 10.2596C26.8039 10.3147 26.7574 10.4801 26.8504 10.5995C26.9621 10.7464 27.0923 10.921 27.1295 10.9577L27.4459 11.3435L29.5485 13.9704L29.5857 14.0163C29.6229 14.0622 29.6509 14.1173 29.6788 14.1632C29.6974 14.2 29.7067 14.2459 29.716 14.2826C29.7253 14.3194 29.7253 14.3653 29.7253 14.4021C29.7253 14.4572 29.716 14.5031 29.6974 14.5582C29.6974 14.5582 29.6974 14.5582 29.6974 14.5674C29.6974 14.5766 29.6881 14.5858 29.6881 14.5858C29.6881 14.5949 29.6788 14.6041 29.6788 14.6133C29.6602 14.65 29.6416 14.6868 29.6136 14.7235C29.6043 14.7419 29.5857 14.7511 29.5764 14.7695C29.5671 14.7878 29.5578 14.797 29.5392 14.8154C29.5206 14.8337 29.502 14.8429 29.4834 14.8613C29.4648 14.8705 29.4555 14.8889 29.4369 14.898C29.381 14.9348 29.3159 14.9715 29.2508 14.9991C29.1298 15.045 29.0089 15.0817 28.8786 15.0909C28.7484 15.1001 28.6181 15.0909 28.4972 15.0726C28.3762 15.045 28.2553 15.0083 28.1529 14.9532C28.0506 14.898 27.9576 14.8246 27.8924 14.7419L27.4179 14.1449L26.9807 13.5938L24.6826 10.7464L22.2915 7.76132L20.4773 5.49264C20.4494 5.4559 20.4215 5.41916 20.4029 5.38242C20.4029 5.37323 20.3936 5.36405 20.3936 5.35486C20.3749 5.31812 20.3656 5.28138 20.3563 5.23546V5.22627C20.347 5.14361 20.3563 5.05176 20.3843 4.96909C20.4215 4.88643 20.4773 4.80377 20.5517 4.73029C20.6262 4.65681 20.7285 4.59251 20.8401 4.54659C20.9518 4.50066 21.082 4.47311 21.203 4.46392C21.3239 4.45474 21.4542 4.46392 21.5751 4.48229C21.6961 4.50985 21.8077 4.54659 21.9101 4.6017C22.0124 4.65681 22.0962 4.7211 22.1613 4.80377L22.2915 4.96909L24.6919 7.96339L25.1943 8.58797C25.2408 8.64308 25.4176 8.87271 25.5386 9.02885C25.6037 9.11151 25.706 9.13907 25.8084 9.10233L29.8835 7.43067C30.023 7.37556 30.0695 7.20104 29.9765 7.08164L24.7664 0.716456C24.6454 0.560311 24.4779 0.440907 24.2919 0.339872C24.1058 0.238838 23.8918 0.165358 23.6685 0.128618C23.4452 0.0826932 23.2126 0.0735082 22.98 0.0918782C22.7474 0.110248 22.5148 0.165358 22.3008 0.248023L13.4715 3.81179Z" fill="#F52334"/>
<path d="M37.8943 15.7983C37.8943 15.881 37.8757 15.9636 37.8664 16.0371C37.8664 16.0555 37.8571 16.0647 37.8571 16.083C37.8478 16.129 37.8385 16.1841 37.8199 16.23C37.8106 16.2484 37.8106 16.2576 37.8013 16.2759C37.792 16.3035 37.7827 16.331 37.7734 16.3494C37.7548 16.4045 37.7269 16.4596 37.699 16.5056C37.6897 16.5331 37.6711 16.5515 37.6617 16.579C37.6245 16.6433 37.5873 16.6984 37.5408 16.7535C37.5315 16.7627 37.5222 16.7811 37.5129 16.7903C37.4664 16.8546 37.4105 16.9189 37.3454 16.974L37.3361 16.9832C37.2338 17.0842 37.1221 17.1761 36.9919 17.2587C36.964 17.2771 36.9361 17.2955 36.8988 17.3138C36.7686 17.3965 36.6197 17.4792 36.4616 17.5435L36.2755 17.6169L35.9778 17.7455L31.3445 19.7111L30.107 20.2346L29.586 20.4551L29.5302 20.4735L29.4 20.5286L28.9348 20.7215L27.7625 21.2174L27.2787 21.4195L26.8414 21.6032L25.6784 22.09C25.5854 22.1268 25.4737 22.0992 25.4086 22.0257L24.5713 20.9511L20.5055 15.7432L20.3846 15.5871L20.3753 15.5779L14.0487 7.47673L13.5649 6.86134L12.1042 5.0519L11.7692 4.62021C11.7041 4.53754 11.6018 4.50999 11.4994 4.54673L2.37237 8.2299C2.27003 8.26664 2.18629 8.32175 2.09325 8.36767C2.06534 8.38604 2.04673 8.39523 2.01882 8.4136C1.9537 8.45952 1.89787 8.49626 1.84205 8.55137C1.83275 8.56056 1.81414 8.56974 1.80483 8.57893C1.79553 8.57893 1.79553 8.58811 1.79553 8.58811C1.7304 8.65241 1.67458 8.7167 1.61876 8.781C1.60945 8.79937 1.60015 8.80855 1.59085 8.82692C1.55363 8.88203 1.51642 8.93714 1.49781 9.00144C1.48851 9.01062 1.4792 9.01981 1.4792 9.03818C1.4792 9.04736 1.4792 9.05655 1.4699 9.06573C1.44199 9.13003 1.42338 9.20351 1.41407 9.27699C1.41407 9.28617 1.41407 9.28617 1.41407 9.29536C1.40477 9.37802 1.40477 9.46069 1.41407 9.54335C1.43268 9.71786 1.50711 9.88319 1.61876 10.0393L2.52123 11.2426L8.2989 18.9488L8.41055 19.0957L9.2758 20.253L12.4484 24.4873C12.5787 24.6526 12.7461 24.7996 12.9322 24.9098C13.1276 25.02 13.3509 25.1027 13.5835 25.1486C13.8161 25.1945 14.0673 25.2129 14.3092 25.1853C14.5511 25.167 14.8023 25.1027 15.0256 25.0108L15.3977 24.8547L16.1327 24.5424L17.2492 24.074L19.6961 23.0361C19.7891 22.9993 19.9008 23.0269 19.9659 23.1095L20.6172 23.9637C20.7102 24.0831 20.6637 24.2485 20.5241 24.3036L17.2678 25.6813L17.0631 25.764L15.4256 26.4621L15.2302 26.5447C14.8581 26.7009 14.4673 26.7927 14.0673 26.8295C13.6672 26.8662 13.2671 26.8386 12.895 26.7652C12.5135 26.6917 12.16 26.5539 11.8437 26.3794C11.5273 26.1957 11.2575 25.9661 11.0528 25.6905L8.51289 22.2737L8.40124 22.1268L7.53599 20.9694L2.67009 14.4298L1.57224 12.9602L0.362743 11.2609C0.316224 11.1966 0.269705 11.1232 0.23249 11.0497C0.223186 11.0221 0.213882 11.0038 0.195274 10.9762C0.167363 10.9303 0.148755 10.8844 0.130148 10.8292C0.120844 10.8017 0.11154 10.7741 0.102236 10.7466C0.0836285 10.7007 0.0743246 10.6547 0.0650208 10.618C0.055717 10.5904 0.0464132 10.5537 0.0464132 10.5261C0.0371094 10.4894 0.0371094 10.4527 0.0371094 10.4527L0.0836285 23.3759C0.0836285 23.4494 0.102236 23.5321 0.11154 23.6055C0.130148 23.679 0.148755 23.7525 0.176667 23.8352C0.204578 23.9086 0.23249 23.9821 0.279009 24.0556C0.316224 24.1291 0.362743 24.2026 0.418566 24.276L11.4808 39.5598C11.6762 39.8354 11.9367 40.0558 12.2437 40.2395C12.5414 40.414 12.8857 40.5518 13.2578 40.6253C13.6207 40.6987 14.0021 40.7263 14.3929 40.6896C14.7744 40.6528 15.1558 40.561 15.5094 40.4048L36.5267 31.2291C36.7407 31.1372 36.9361 31.0178 37.1035 30.8892C37.271 30.7606 37.4198 30.6228 37.5315 30.4667C37.6524 30.3106 37.7362 30.1452 37.8106 29.9799C37.913 29.7411 37.9223 29.4564 37.9223 29.4564L37.8943 15.7983ZM17.184 19.7387C17.184 19.7478 17.184 19.757 17.1747 19.7662V19.7754C17.1561 19.8305 17.1282 19.8764 17.091 19.9315C17.0817 19.9407 17.0724 19.9591 17.0538 19.9683C17.0352 19.9867 17.0166 20.0142 16.998 20.0326C16.9794 20.051 16.9608 20.0601 16.9421 20.0785C16.9235 20.0877 16.9142 20.1061 16.8956 20.1152C16.8398 20.1612 16.7747 20.1979 16.7002 20.2255C16.5793 20.2806 16.449 20.3081 16.3188 20.3173C16.1885 20.3265 16.0583 20.3173 15.9373 20.2989C15.8164 20.2714 15.6954 20.2346 15.5931 20.1704C15.4908 20.1152 15.3977 20.0418 15.3326 19.9499L14.0673 18.2966L13.7788 17.9109L12.3647 16.0647L11.1273 14.4481L8.11282 10.4986C8.08491 10.4618 8.057 10.4159 8.0477 10.3792C8.0477 10.37 8.03839 10.37 8.03839 10.3608C8.01978 10.3241 8.01048 10.2781 8.00118 10.2414V10.2322V10.223C7.99187 10.1404 8.00118 10.0485 8.03839 9.96586C8.07561 9.87401 8.13143 9.79134 8.21517 9.71786C8.2989 9.64438 8.39194 9.58009 8.51289 9.53416C8.63384 9.48824 8.75479 9.46069 8.88504 9.44232C9.01529 9.43313 9.13624 9.44232 9.25719 9.46068C9.37814 9.48824 9.48979 9.52498 9.59213 9.58009C9.69447 9.6352 9.77821 9.70868 9.84333 9.79134L11.0435 11.3528L12.2902 12.9693L13.7137 14.8247L14.1882 15.4401L15.7978 17.5343L17.0817 19.2059C17.1468 19.2978 17.1933 19.3896 17.2027 19.4815C17.212 19.5182 17.2027 19.5458 17.2027 19.5825C17.2027 19.6376 17.1933 19.6835 17.184 19.7387Z" fill="#F52334"/>
<path d="M54.8279 25.0664C53.6184 25.3144 52.5671 25.4338 51.6553 25.4338H51.004C50.1574 25.4338 49.4782 25.1859 48.9758 24.6807C48.4641 24.1755 48.2129 23.505 48.2129 22.6783V18.4441C48.2129 17.5256 48.4734 16.8 49.0037 16.2856C49.534 15.7621 50.2597 15.5049 51.1901 15.5049H58.0842V28.3822H54.8186V25.0664H54.8279ZM52.595 22.9539C53.3765 22.9539 54.1208 22.8896 54.8279 22.7702V17.9848H52.2228C51.7297 17.9848 51.4785 18.2328 51.4785 18.7196V22.311C51.4785 22.4946 51.5437 22.6508 51.6646 22.7702C51.7856 22.8896 51.9437 22.9539 52.1298 22.9539H52.595Z" fill="#323E48"/>
<path d="M64.5222 22.7702C65.1828 22.7702 65.9271 22.6508 66.7551 22.4028V15.5049H70.0208V25.2593H67.1366L66.9505 24.3408C66.3644 24.7174 65.7689 25.0022 65.1549 25.1767C64.5408 25.3512 64.0198 25.443 63.6011 25.443H62.7638C61.9172 25.443 61.238 25.195 60.7356 24.6899C60.2239 24.1847 59.9727 23.5142 59.9727 22.6875V15.5141H63.2383V22.1364C63.2383 22.3201 63.3034 22.4763 63.4244 22.5957C63.5453 22.7151 63.7035 22.7794 63.8896 22.7794H64.5222V22.7702Z" fill="#323E48"/>
<path d="M72.3469 15.6882C74.617 15.4402 76.6731 15.3208 78.4966 15.3208C79.3433 15.3208 80.0225 15.5688 80.5249 16.074C81.0366 16.5791 81.2878 17.2496 81.2878 18.0763V25.2498H78.4036L78.2175 24.3313C77.6314 24.7078 77.036 24.9926 76.4219 25.1671C75.8079 25.3416 75.2868 25.4335 74.8682 25.4335H74.2169C73.3703 25.4335 72.6911 25.1855 72.1887 24.6803C71.677 24.1751 71.4258 23.5046 71.4258 22.678V21.8513C71.4258 21.0155 71.677 20.345 72.1887 19.849C72.7004 19.3438 73.3796 19.0958 74.2169 19.0958H78.0408V18.361C78.0408 18.1773 77.9756 18.0212 77.8547 17.9018C77.7337 17.7824 77.5756 17.7181 77.3895 17.7181C76.5801 17.7181 75.6869 17.7548 74.7193 17.8283C73.7424 17.9018 72.9609 17.9569 72.3655 17.9936V15.6882H72.3469ZM75.7986 22.8617C76.4591 22.8617 77.2034 22.7423 78.0315 22.4943V21.3921H75.3334C75.1473 21.3921 74.9891 21.4564 74.8682 21.5758C74.7472 21.6952 74.6821 21.8513 74.6821 22.035V22.2187C74.6821 22.4024 74.7472 22.5586 74.8682 22.678C74.9891 22.7974 75.1473 22.8617 75.3334 22.8617H75.7986Z" fill="#323E48"/>
<path d="M89.9589 25.2499L89.7728 24.3314C89.1867 24.708 88.5912 24.9927 87.9772 25.1672C87.3631 25.3417 86.8421 25.4336 86.4234 25.4336H85.5861C84.7394 25.4336 84.0602 25.1856 83.5578 24.6804C83.0461 24.1753 82.7949 23.5047 82.7949 22.6781V18.4438C82.7949 17.5253 83.0554 16.7997 83.5858 16.2854C84.1161 15.7618 84.8418 15.5046 85.7722 15.5046H89.5961V12.3726H92.8524V25.2499H89.9589ZM87.3538 22.7699C88.0144 22.7699 88.7587 22.6505 89.5868 22.4026V17.9846H86.7863C86.2932 17.9846 86.042 18.2326 86.042 18.7194V22.127C86.042 22.3107 86.1071 22.4668 86.228 22.5863C86.349 22.7057 86.5072 22.7699 86.6932 22.7699H87.3538Z" fill="#323E48"/>
<path d="M103.468 25.0664C101.142 25.3144 99.0955 25.4338 97.3185 25.4338C96.4718 25.4338 95.7927 25.1859 95.2903 24.6807C94.7785 24.1755 94.5273 23.505 94.5273 22.6784V18.4441C94.5273 17.5256 94.7879 16.8 95.3182 16.2856C95.8485 15.7621 96.5742 15.5049 97.5046 15.5049H103.468V17.9848H98.528C98.0349 17.9848 97.7837 18.2328 97.7837 18.7196V22.311C97.7837 22.4947 97.8488 22.6508 97.9698 22.7702C98.0907 22.8896 98.2489 22.9539 98.4349 22.9539C99.5514 22.9539 101.235 22.8621 103.468 22.6784V25.0664Z" fill="#323E48"/>
<path d="M115.025 22.4943C115.025 23.4128 114.764 24.1384 114.234 24.6527C113.704 25.1763 112.978 25.4335 112.048 25.4335H107.758C106.828 25.4335 106.093 25.1763 105.572 24.6527C105.042 24.1292 104.781 23.4128 104.781 22.4943V18.26C104.781 17.3415 105.042 16.6159 105.572 16.1015C106.102 15.5872 106.828 15.3208 107.758 15.3208H112.048C112.978 15.3208 113.713 15.578 114.234 16.1015C114.764 16.6251 115.025 17.3415 115.025 18.26V22.4943ZM111.768 18.5355C111.768 18.0487 111.517 17.8007 111.024 17.8007H108.791C108.298 17.8007 108.047 18.0487 108.047 18.5355V22.2187C108.047 22.7055 108.298 22.9535 108.791 22.9535H111.024C111.517 22.9535 111.768 22.7055 111.768 22.2187V18.5355Z" fill="#323E48"/>
<path d="M123.695 25.2499L123.509 24.3314C122.923 24.708 122.328 24.9927 121.713 25.1672C121.099 25.3417 120.578 25.4336 120.16 25.4336H119.322C118.476 25.4336 117.797 25.1856 117.294 24.6804C116.782 24.1753 116.531 23.5047 116.531 22.6781V18.4438C116.531 17.5253 116.792 16.7997 117.322 16.2854C117.852 15.7618 118.578 15.5046 119.508 15.5046H123.332V12.3726H126.598V25.2499H123.695ZM121.081 22.7699C121.741 22.7699 122.486 22.6505 123.314 22.4026V17.9846H120.513C120.02 17.9846 119.769 18.2326 119.769 18.7194V22.127C119.769 22.3107 119.834 22.4668 119.955 22.5863C120.076 22.7057 120.234 22.7699 120.42 22.7699H121.081Z" fill="#323E48"/>
<path d="M137.575 25.0661C135.174 25.3141 133.007 25.4335 131.053 25.4335C130.206 25.4335 129.527 25.1855 129.025 24.6803C128.513 24.1751 128.262 23.5046 128.262 22.678V18.26C128.262 17.3415 128.522 16.6159 129.053 16.1015C129.583 15.578 130.309 15.3208 131.239 15.3208H134.97C135.9 15.3208 136.635 15.578 137.156 16.1015C137.686 16.6251 137.947 17.3415 137.947 18.26V21.6676H131.518V22.4024C131.518 22.5861 131.583 22.7423 131.704 22.8617C131.825 22.9811 131.983 23.0454 132.169 23.0454C133.397 23.0454 135.202 22.9535 137.575 22.7698V25.0661ZM132.262 17.617C131.769 17.617 131.518 17.865 131.518 18.3518V19.3622H134.691V18.3518C134.691 17.865 134.439 17.617 133.946 17.617H132.262Z" fill="#323E48"/>
<path d="M139.018 11.0956C139.018 9.46989 140.348 8.1748 141.976 8.1748C143.623 8.1748 144.935 9.46989 144.935 11.0956C144.935 12.7122 143.623 14.0164 141.976 14.0164C140.339 14.0164 139.018 12.703 139.018 11.0956ZM139.473 11.0956C139.473 12.4458 140.59 13.5664 141.976 13.5664C143.362 13.5664 144.46 12.4458 144.46 11.0956C144.46 9.71788 143.353 8.64324 141.976 8.64324C140.59 8.63405 139.473 9.70869 139.473 11.0956ZM141.892 11.4538H141.334V12.7765H140.832V9.42396H142.218C142.851 9.42396 143.353 9.8281 143.353 10.4435C143.353 11.1875 142.683 11.4355 142.488 11.4355L143.4 12.7765H142.786L141.892 11.4538ZM141.334 9.83728V11.0221H142.218C142.572 11.0221 142.832 10.7833 142.832 10.4435C142.832 10.0669 142.562 9.83728 142.218 9.83728H141.334Z" fill="#323E48"/>
</g>
<defs>
<clipPath id="clip0">
<rect width="145" height="40.7812" fill="white"/>
</clipPath>
</defs>
</svg>
