<svg xmlns="http://www.w3.org/2000/svg" width="50" height="50" fill="none"  stroke="#e62334" stroke-width="1.5" stroke-miterlimit="10" stroke-linecap="round" stroke-linejoin="round"><path d="M16.7 27.399l-.05-2.25c0-12.95 3.75-23.5 8.35-23.5s8.35 10.5 8.35 23.5-3.75 23.5-8.35 23.5c-2.85 0-5.4-4.05-6.9-10.2"/><path d="M38.7 18.349c5.85 1.5 9.7 4 9.7 6.75 0 4.6-10.5 8.35-23.5 8.35s-23.5-3.75-23.5-8.35 10.5-8.35 23.5-8.35c.7 0 1.4 0 2.05.05M42.4 16.3l-4.65 1.6L40.7 22M21.95 40.35l-3.9-3-1.8 4.7"/></svg>
