<svg xmlns="http://www.w3.org/2000/svg" width="51" height="51" fill="none" ><g clip-path="url(#A)" stroke="#e62334" stroke-width="1.5" stroke-miterlimit="10" stroke-linejoin="round"><path d="M21.65 36.951c8.726 0 15.8-7.074 15.8-15.8s-7.074-15.8-15.8-15.8-15.8 7.074-15.8 15.8 7.074 15.8 15.8 15.8z"/><path d="M21.65 40.9c10.908 0 19.75-8.842 19.75-19.75S32.558 1.4 21.65 1.4 1.9 10.243 1.9 21.15 10.743 40.9 21.65 40.9z"/><g stroke-linecap="round"><path d="M48.6 43.25a3.429 3.429 0 1 1-4.85 4.85m4.851-4.85l-10.8-10.8M43.75 48.1L33 37.3"/></g><path d="M12.551 21.25a2.5 2.5 0 1 0 0-5 2.5 2.5 0 1 0 0 5zm18.299-1.449a2.5 2.5 0 1 0 0-5 2.5 2.5 0 0 0 0 5zM42.5 8.15a2.5 2.5 0 1 0 0-5 2.5 2.5 0 1 0 0 5zM20.85 29.551a2.5 2.5 0 1 0 0-5 2.5 2.5 0 1 0 0 5z"/><g stroke-linecap="round"><path d="M6 18.75h4.05m4.35 1.65l4.8 4.8m18.9-14.949l2.8-2.65m-8.299 7.95l2.6-2.5M22.551 25.2l6.45-6.2M45 5.65h4.7"/></g></g><defs><clipPath id="A"><path fill="#fff" transform="translate(.85 .4)" d="M0 0h50v50H0z"/></clipPath></defs></svg>
