<svg width="50" height="50" viewBox="0 0 50 50" fill="none" xmlns="http://www.w3.org/2000/svg">
<path d="M20.8 36.55C29.5261 36.55 36.6 29.4761 36.6 20.75C36.6 12.0239 29.5261 4.95 20.8 4.95C12.0739 4.95 5 12.0239 5 20.75C5 29.4761 12.0739 36.55 20.8 36.55Z" stroke="#E62334" stroke-width="1.5" stroke-miterlimit="10" stroke-linecap="round" stroke-linejoin="round"/>
<path d="M20.8008 40.5C31.7084 40.5 40.5508 31.6576 40.5508 20.75C40.5508 9.84237 31.7084 1 20.8008 1C9.89316 1 1.05078 9.84237 1.05078 20.75C1.05078 31.6576 9.89316 40.5 20.8008 40.5Z" stroke="#E62334" stroke-width="1.5" stroke-miterlimit="10" stroke-linecap="round" stroke-linejoin="round"/>
<path d="M47.7504 42.85C49.1004 44.2 49.1004 46.35 47.7504 47.7C46.4004 49.05 44.2504 49.05 42.9004 47.7" stroke="#E62334" stroke-width="1.5" stroke-miterlimit="10" stroke-linecap="round" stroke-linejoin="round"/>
<path d="M47.7512 42.85L36.9512 32.05" stroke="#E62334" stroke-width="1.5" stroke-miterlimit="10" stroke-linecap="round" stroke-linejoin="round"/>
<path d="M42.9004 47.7L32.1504 36.9" stroke="#E62334" stroke-width="1.5" stroke-miterlimit="10" stroke-linecap="round" stroke-linejoin="round"/>
<path d="M11.7012 20.85C13.0819 20.85 14.2012 19.7307 14.2012 18.35C14.2012 16.9693 13.0819 15.85 11.7012 15.85C10.3205 15.85 9.20117 16.9693 9.20117 18.35C9.20117 19.7307 10.3205 20.85 11.7012 20.85Z" stroke="#E62334" stroke-width="1.5" stroke-miterlimit="10" stroke-linecap="round" stroke-linejoin="round"/>
<path d="M30 19.4C31.3807 19.4 32.5 18.2807 32.5 16.9C32.5 15.5193 31.3807 14.4 30 14.4C28.6193 14.4 27.5 15.5193 27.5 16.9C27.5 18.2807 28.6193 19.4 30 19.4Z" stroke="#E62334" stroke-width="1.5" stroke-miterlimit="10" stroke-linecap="round" stroke-linejoin="round"/>
<path d="M41.6504 7.75C43.0311 7.75 44.1504 6.63071 44.1504 5.25C44.1504 3.86929 43.0311 2.75 41.6504 2.75C40.2697 2.75 39.1504 3.86929 39.1504 5.25C39.1504 6.63071 40.2697 7.75 41.6504 7.75Z" stroke="#E62334" stroke-width="1.5" stroke-miterlimit="10" stroke-linecap="round" stroke-linejoin="round"/>
<path d="M20 29.15C21.3807 29.15 22.5 28.0307 22.5 26.65C22.5 25.2693 21.3807 24.15 20 24.15C18.6193 24.15 17.5 25.2693 17.5 26.65C17.5 28.0307 18.6193 29.15 20 29.15Z" stroke="#E62334" stroke-width="1.5" stroke-miterlimit="10" stroke-linecap="round" stroke-linejoin="round"/>
<path d="M5.15039 18.35H9.20039" stroke="#E62334" stroke-width="1.5" stroke-miterlimit="10" stroke-linecap="round" stroke-linejoin="round"/>
<path d="M13.5508 20L18.3508 24.8" stroke="#E62334" stroke-width="1.5" stroke-miterlimit="10" stroke-linecap="round" stroke-linejoin="round"/>
<path d="M37.25 9.85L40.05 7.2" stroke="#E62334" stroke-width="1.5" stroke-miterlimit="10" stroke-linecap="round" stroke-linejoin="round"/>
<path d="M31.751 15.15L34.351 12.65" stroke="#E62334" stroke-width="1.5" stroke-miterlimit="10" stroke-linecap="round" stroke-linejoin="round"/>
<path d="M21.7012 24.8L28.1512 18.6" stroke="#E62334" stroke-width="1.5" stroke-miterlimit="10" stroke-linecap="round" stroke-linejoin="round"/>
<path d="M44.1504 5.25H48.8504" stroke="#E62334" stroke-width="1.5" stroke-miterlimit="10" stroke-linecap="round" stroke-linejoin="round"/>
</svg>
