<svg width="50" height="50" fill="none" ><style><![CDATA[.B{stroke-linejoin:round}.C{stroke-linecap:round}]]></style><g stroke="#e62334" stroke-width="1.5" stroke-miterlimit="10" class="B"><path d="M36.7 41.201v4.4c0 1.55-1.25 2.8-2.8 2.8H4.65c-1.55 0-2.8-1.25-2.8-2.8v-34.5M11.5 1.4h22.4c1.55 0 2.8 1.25 2.8 2.8v18.05" class="C"/><path d="M29.05 38.4a9.7 9.7 0 1 0 0-19.4 9.7 9.7 0 1 0 0 19.4z"/><g class="C"><path d="M47.798 42.801a3.288 3.288 0 1 1-4.65 4.65m4.651-4.65l-10-9.95"/><path d="M43.149 47.451l-9.95-10"/></g><path d="M11.5 11.1H1.85l9.65-9.7v9.7z"/><path d="M17.9 7.15h12.65m-12.65 5.8h12.65M19.5 26.7H7.55v-7.75h21.5M7.55 32.551H20.1M7.55 38.4h11.7" class="C"/></g></svg>
