<svg xmlns="http://www.w3.org/2000/svg" width="35" height="35" fill="none" ><style><![CDATA[.B{stroke-linejoin:round}.C{stroke-linecap:round}]]></style><g stroke="#e62334" stroke-width="1.5" stroke-miterlimit="10" class="B"><path d="M25.69 28.84v3.08c0 1.085-.875 1.96-1.96 1.96H3.255c-1.085 0-1.96-.875-1.96-1.96V7.77M8.05.979h15.68c1.085 0 1.96.875 1.96 1.96v12.635" class="C"/><path d="M20.335 26.88a6.79 6.79 0 1 0 0-13.58 6.79 6.79 0 1 0 0 13.58z"/><path d="M33.46 29.959a2.302 2.302 0 1 1-3.255 3.255m3.255-3.255l-7-6.965m3.745 10.22l-6.965-7" class="C"/><path d="M8.05 7.769H1.295L8.05.979v6.79z"/><path d="M12.53 5.005h8.855M12.53 9.064h8.855M13.65 18.69H5.285v-5.425h15.05m-15.05 9.519h8.785M5.285 26.88h8.19" class="C"/></g></svg>
