<svg xmlns="http://www.w3.org/2000/svg" width="51" height="51" fill="none"  stroke="#e62334" stroke-width="1.5" stroke-miterlimit="10" stroke-linecap="round" stroke-linejoin="round"><path d="M25.85 2.351v5.3M11.6 4.2c-2.65 2.5-6.8 8.6-7.1 17.05M40.15 4.2c2.65 2.5 6.8 8.6 7.1 17.05M25.851 7.65c7.05 0 12.8 5.7 12.8 12.8 0 8.2.85 13.55 5.2 16.95.85.65 1.7 1.4 1.7 2.55 0 1.55-1.25 2.8-2.8 2.8h-16.9m-.001-35.1c-7.05 0-12.8 5.7-12.8 12.8 0 8.2-.85 13.55-5.2 16.95-.85.65-1.7 1.4-1.7 2.55 0 1.55 1.25 2.8 2.8 2.8h16.9"/><path d="M31.55 42.75c0 3.1-2.55 5.65-5.7 5.65a5.7 5.7 0 0 1-5.7-5.7"/></svg>
