<svg width="50" height="50" viewBox="0 0 50 50" fill="none">
<path d="M46 48H8.35C7.35 48 6.5 47.2 6.5 46.15V3.80001C6.5 2.80001 7.3 1.95001 8.35 1.95001H46C47 1.95001 47.85 2.75001 47.85 3.80001V46.2C47.85 47.2 47.05 48 46 48Z" stroke="#E62334" stroke-width="1.5" stroke-miterlimit="10" stroke-linecap="round" stroke-linejoin="round"/>
<path d="M9.8498 10.1C9.8498 11.6 8.5998 12.85 7.0998 12.85H4.5498C3.0498 12.85 1.7998 11.6 1.7998 10.1C1.7998 8.60001 3.0498 7.35001 4.5498 7.35001H6.4998" stroke="#E62334" stroke-width="1.5" stroke-miterlimit="10" stroke-linecap="round" stroke-linejoin="round"/>
<path d="M9.8498 20.05C9.8498 21.55 8.5998 22.8 7.0998 22.8H4.5498C3.0498 22.8 1.7998 21.55 1.7998 20.05C1.7998 18.55 3.0498 17.3 4.5498 17.3H6.4998" stroke="#E62334" stroke-width="1.5" stroke-miterlimit="10" stroke-linecap="round" stroke-linejoin="round"/>
<path d="M9.8498 39.95C9.8498 41.45 8.5998 42.7 7.0998 42.7H4.5498C3.0498 42.7 1.7998 41.45 1.7998 39.95C1.7998 38.45 3.0498 37.2 4.5498 37.2H6.4998" stroke="#E62334" stroke-width="1.5" stroke-miterlimit="10" stroke-linecap="round" stroke-linejoin="round"/>
<path d="M9.8498 30C9.8498 31.5 8.5998 32.75 7.0998 32.75H4.5498C3.0498 32.75 1.7998 31.5 1.7998 30C1.7998 28.5 3.0498 27.25 4.5498 27.25H6.4998" stroke="#E62334" stroke-width="1.5" stroke-miterlimit="10" stroke-linecap="round" stroke-linejoin="round"/>
<path d="M33.5002 19.3C33.5002 16.15 30.9502 13.55 27.7502 13.55C24.5502 13.55 22.0002 16.1 22.0002 19.3C22.0002 26.1 33.4502 23.95 33.4502 30.75C33.4502 33.9 30.9002 36.5 27.7002 36.5C24.5002 36.5 21.9502 33.95 21.9502 30.75" stroke="#E62334" stroke-width="1.5" stroke-miterlimit="10" stroke-linecap="round" stroke-linejoin="round"/>
<path d="M27.75 13.55V9.80002" stroke="#E62334" stroke-width="1.5" stroke-miterlimit="10" stroke-linecap="round" stroke-linejoin="round"/>
<path d="M27.75 36.45V40.1" stroke="#E62334" stroke-width="1.5" stroke-miterlimit="10" stroke-linecap="round" stroke-linejoin="round"/>
</svg>
