<svg xmlns="http://www.w3.org/2000/svg" xmlns:xlink="http://www.w3.org/1999/xlink" width="51" height="51" fill="none"><g stroke="#e62334" stroke-width="1.5" stroke-miterlimit="10" stroke-linejoin="round"><path d="M46.85 48.401H9.2c-1 0-1.85-.8-1.85-1.85V4.201c0-1 .8-1.85 1.85-1.85h37.65c1 0 1.85.8 1.85 1.85v42.4c0 1-.8 1.8-1.85 1.8z"/><g stroke-linecap="round"><use xlink:href="#B"/><use xlink:href="#B" y="9.949"/><use xlink:href="#B" y="29.85"/><use xlink:href="#B" y="19.899"/><path d="M34.35 19.7c0-3.15-2.55-5.75-5.75-5.75a5.72 5.72 0 0 0-5.75 5.75c0 6.8 11.45 4.65 11.45 11.45 0 3.15-2.55 5.75-5.75 5.75a5.72 5.72 0 0 1-5.75-5.75m5.8-17.2V10.2"/><path d="M28.6 36.851v3.65"/></g></g><defs ><path id="B" d="M10.699 10.501c0 1.5-1.25 2.75-2.75 2.75h-2.55c-1.5 0-2.75-1.25-2.75-2.75s1.25-2.75 2.75-2.75h1.95"/></defs></svg>
