<svg xmlns="http://www.w3.org/2000/svg" width="50" height="50" fill="none"  stroke="#e62334" stroke-width="1.5" stroke-miterlimit="10" stroke-linejoin="round"><path d="M15.001 31.899c-2.2-1.85-3.65-4.6-3.65-7.7v-4.35c0-5.5 4.45-9.95 9.95-9.95h7.25c5.5 0 9.95 4.45 9.95 9.95v4.35c0 3.1-1.4 5.85-3.6 7.7" stroke-linecap="round"/><path d="M30.5 25.649a3.1 3.1 0 0 0 0-6.2 3.1 3.1 0 0 0 0 6.2zm-11.049 0a3.1 3.1 0 1 0 0-6.2 3.1 3.1 0 0 0 0 6.2z"/><g stroke-linecap="round"><path d="M42.7 6.699c.15 0 .3-.05.45-.05 1.8 0 3.25 1.45 3.25 3.25s-1.45 3.25-3.25 3.25c-.85 0-1.6-.3-2.2-.85m-3.3 3.301l3.3-3.3m-6.849-.751l3.1-3.1m-.001.001c-.6-.6-1-1.4-1-2.35 0-1.8 1.45-3.25 3.25-3.25S42.7 4.3 42.7 6.1c0 .2 0 .35-.05.55M7.1 6.8c-.15 0-.3-.05-.45-.05C4.85 6.75 3.4 8.2 3.4 10s1.45 3.25 3.25 3.25c.85 0 1.6-.3 2.2-.85"/><path d="M12.251 15.8l-3.4-3.35m6.85-.75l-3.1-3.1m0 0c.6-.6 1-1.4 1-2.35 0-1.8-1.45-3.25-3.25-3.25s-3.25 1.45-3.25 3.25a2.05 2.05 0 0 0 .05.55M42.7 42.5c.15 0 .3.05.45.05 1.8 0 3.25-1.45 3.25-3.25s-1.45-3.25-3.25-3.25c-.85 0-1.6.3-2.2.85"/><path d="M35.5 31.45l5.45 5.45m-6.25 1.3l2.5 2.55m0 0c-.6.6-1 1.4-1 2.35 0 1.8 1.45 3.25 3.25 3.25s3.25-1.45 3.25-3.25c0-.2 0-.35-.05-.55M7.1 42.4c-.15 0-.3.05-.45.05-1.8 0-3.25-1.45-3.25-3.25s1.45-3.25 3.25-3.25c.85 0 1.6.3 2.2.85"/><path d="M14.351 31.3l-5.5 5.5m6.35 1.2l-2.6 2.65m0-.001c.6.6 1 1.4 1 2.35 0 1.8-1.45 3.25-3.25 3.25s-3.25-1.45-3.25-3.25c0-.2 0-.35.05-.55m27.799-10.55v5.15c0 1.35-1.1 2.45-2.45 2.45H17.45c-1.35 0-2.45-1.1-2.45-2.45v-5.15m8.2-1.5l1.75-1m1.8 1l-1.75-1m0 6.3v3.8m-4.85-3.8v3.8"/><path d="M29.7 35.699v3.8"/></g></svg>
