<svg width="50" height="50" fill="none"  stroke="#e62334" stroke-width="1.5" stroke-miterlimit="10" stroke-linejoin="round"><path d="M25 13.35a6 6 0 0 0 0-12 6 6 0 0 0 0 12z"/><g stroke-linecap="round"><path d="M42.1 3.899c0-1.25-1-2.2-2.2-2.2-1.25 0-2.2 1-2.2 2.2v1.35m4.4-1.35v12.75c0 2.4-1.95 4.35-4.35 4.35h-5.6v25.75a1.45 1.45 0 0 1-1.45 1.45H25"/><path d="M40 25.399l3.9 9.25c.35.9 1.1 1.6 2.15 1.6 1.25 0 2.6-1.15 2.05-2.75l-3.5-9.8c-.55-1.6-1.65-2.95-3.15-3.8l-.55-.35"/><path d="M37.05 28.799l1.35 3.2c.7 1.7 2.35 2.85 4.2 3l1.5.1M32.15 29.35l.8 1.5c.85 1.65 2.6 2.65 4.45 2.6l1.9-.05M7.899 3.899c0-1.25 1-2.2 2.2-2.2a2.22 2.22 0 0 1 2.2 2.2v1.35m-4.4-1.35v12.75c0 2.4 1.95 4.35 4.35 4.35h5.6v25.75a1.45 1.45 0 0 0 1.45 1.45h5.7v-13.75"/><path d="M11.05 7.099s.2-1.85 1.9-2.2c.5-.1 1 .3 1 .8v1.1c0 .5-.15 1-.5 1.4l-.55.7c-.2.3-.35.65-.35 1v5.3c0 1.05.95 1.65 2.05 1.65h20.75c1.05 0 2.05-.55 2.05-1.65v-5.25c0-.35-.1-.75-.35-1l-.55-.75c-.3-.4-.5-.9-.5-1.4v-1.1c0-.5.5-.9 1-.8 1.7.35 1.9 2.2 1.9 2.2M10 25.399l-3.9 9.25c-.35.9-1.1 1.6-2.15 1.6-1.25 0-2.6-1.15-2.05-2.75l3.5-9.8c.55-1.6 1.65-2.95 3.15-3.8l.55-.35"/><path d="M12.949 28.799l-1.35 3.2c-.7 1.7-2.35 2.85-4.2 3l-1.5.1M17.85 29.35l-.8 1.5c-.85 1.65-2.6 2.65-4.45 2.6l-1.9-.05m26.699-22.501h4.7m-29.5 0h-4.7"/></g></svg>
