<svg xmlns="http://www.w3.org/2000/svg" width="35" height="35" fill="none"  stroke="#e62334" stroke-width="1.5" stroke-miterlimit="10" stroke-linejoin="round"><path d="M33.95 19.53H1.015v5.565H33.95V19.53zM17.5 8.89a3.99 3.99 0 1 0 0-7.98 3.99 3.99 0 1 0 0 7.98z"/><path d="M22.855 19.531v-5.32c0-2.94-2.38-5.355-5.355-5.355a5.33 5.33 0 0 0-5.355 5.355v5.32M5.39 25.095v8.785m24.219-8.785v8.925" stroke-linecap="round"/><path d="M6.579 12.111c1.256 0 2.275-1.018 2.275-2.275S7.835 7.561 6.579 7.561 4.304 8.579 4.304 9.836s1.019 2.275 2.275 2.275z"/><path d="M5.389 11.796l-2.135 3.605v4.13" stroke-linecap="round"/><path d="M28.455 12.111c1.256 0 2.275-1.018 2.275-2.275s-1.019-2.275-2.275-2.275-2.275 1.019-2.275 2.275 1.018 2.275 2.275 2.275z"/><path d="M29.68 11.83l2.065 3.57v4.13" stroke-linecap="round"/></svg>
