<svg xmlns="http://www.w3.org/2000/svg" width="35" height="35" fill="none" ><style><![CDATA[.B{stroke-linejoin:round}.C{stroke-linecap:round}]]></style><g clip-path="url(#A)" stroke="#e62334" stroke-width="1.5" stroke-miterlimit="10" class="B"><g class="C"><path d="M31.465 5.215h1.295c.84 0 1.54.7 1.54 1.54V30.17c0 .84-.7 1.54-1.54 1.54H2.38c-.84 0-1.54-.7-1.54-1.54V6.755c0-.84.7-1.54 1.54-1.54h1.295m3.011-2.1V13.93l2.45-3.01"/><path d="M11.585 3.115V13.93l-2.45-3.01m-5.46 15.33V4.865a1.73 1.73 0 0 1 1.75-1.75H15.82a1.73 1.73 0 0 1 1.75 1.75V28.56"/></g><path d="M17.57 28.805v-.245a2.31 2.31 0 0 0-2.31-2.31H3.675v2.555H17.57z"/><path d="M31.465 26.25V4.865a1.73 1.73 0 0 0-1.75-1.75H19.32a1.73 1.73 0 0 0-1.75 1.75" class="C"/><path d="M17.57 28.805v-.245a2.31 2.31 0 0 1 2.31-2.31h11.585v2.555H17.57z"/></g><defs><clipPath id="A"><path fill="#fff" d="M0 0h35v35H0z"/></clipPath></defs></svg>
