<svg xmlns="http://www.w3.org/2000/svg" width="50" height="50" fill="none"  stroke="#e62334" stroke-width="1.5" stroke-miterlimit="10" stroke-linejoin="round"><path d="M46.7 36.6H3.2c-.95 0-1.7-.75-1.7-1.7V6.45c0-.95.75-1.7 1.7-1.7h43.5c.95 0 1.7.75 1.7 1.7v28.4c.05.95-.7 1.75-1.7 1.75z"/><path d="M13.45 28.1a7.4 7.4 0 0 0 0-14.8 7.4 7.4 0 0 0 0 14.8z"/><path d="M17 14.2l-3.55 6.5-6.15 4.15m6.15-4.15l6.8 2.9" stroke-linecap="round"/><path d="M43.85 11H25.4v3.75h18.45V11zm-6.55 7.85H25.4v3.75h11.9v-3.75zm-4.6 7.8h-7.3v3.75h7.3v-3.75z"/><path d="M19.2 36.6V42L15 44.9c-.5.35-.25 1.15.35 1.15H34.5c.6 0 .85-.8.35-1.15l-4.1-2.9v-5.4" stroke-linecap="round"/></svg>
