<svg width="35" height="35" fill="none" ><g clip-path="url(#A)" stroke="#e62334" stroke-width="1.5" stroke-miterlimit="10" stroke-linejoin="round"><path d="M27.825 34.019H7.175a2.07 2.07 0 0 1-2.065-2.065V7.174a2.07 2.07 0 0 1 2.065-2.065h20.65a2.07 2.07 0 0 1 2.065 2.065v24.78c0 1.155-.91 2.065-2.065 2.065z"/><path d="M7.175 5.11l15.4-4.305a2.32 2.32 0 0 1 2.94 2.24V5.11" stroke-linecap="round"/><path d="M17.501 23.17c1.991 0 3.605-1.614 3.605-3.605s-1.614-3.605-3.605-3.605-3.605 1.614-3.605 3.605 1.614 3.605 3.605 3.605z"/><g stroke-linecap="round"><path d="M21.596 26.145c-1.19.735-2.59 1.155-4.095 1.155a7.74 7.74 0 0 1-7.735-7.735 7.74 7.74 0 0 1 7.735-7.735 7.74 7.74 0 0 1 7.735 7.735m-4.095-3.5v5.215a2.07 2.07 0 0 0 2.065 2.065 2.07 2.07 0 0 0 2.065-2.065v-1.75"/></g></g><defs><clipPath id="A"><path fill="#fff" d="M0 0h35v35H0z"/></clipPath></defs></svg>
