<svg xmlns="http://www.w3.org/2000/svg" width="35" height="35" fill="none" ><style><![CDATA[.B{stroke-miterlimit:10}.C{stroke-linejoin:round}.D{stroke-linecap:round}]]></style><g stroke="#e62334" class="B C"><g stroke-width="1.5"><path d="M22.611 33.844H7.07a1.72 1.72 0 0 1-1.715-1.715V7.699A1.72 1.72 0 0 1 7.07 5.984h15.575a1.72 1.72 0 0 1 1.715 1.715v24.43c-.035.98-.805 1.715-1.75 1.715z"/><path d="M10.92 5.985l1.26-3.955c.28-.91 1.26-1.4 2.17-1.12l14.805 4.76c.91.28 1.4 1.26 1.12 2.17l-5.95 18.48" class="D"/></g><path d="M14.595 20.685c3.073 0 5.565-2.491 5.565-5.565s-2.492-5.565-5.565-5.565S9.03 12.046 9.03 15.12s2.492 5.565 5.565 5.565z"/><g class="D"><path d="M14.596 9.555v11.13m0-11.13s3.15 1.435 3.15 5.565"/><path d="M14.596 20.615s3.15-1.435 3.15-5.565m-3.151-5.495s-3.15 1.435-3.15 5.565"/><path d="M14.595 20.615s-3.15-1.435-3.15-5.565m-2.099-1.68h10.535"/><path d="M19.916 16.8H9.346"/><path d="M9.065 24.71h11.34m-11.34 3.114h11.34" stroke-width="1.5"/></g></g></svg>
