<svg width="35" height="35" fill="none"  stroke="#e62334" stroke-width="1.5" stroke-miterlimit="10" stroke-linejoin="round"><path d="M26.879 10.955c2.146 0 3.885-1.739 3.885-3.885s-1.739-3.885-3.885-3.885-3.885 1.739-3.885 3.885 1.739 3.885 3.885 3.885z"/><path d="M21.489 17.499v-1.085c0-3.01 2.415-5.425 5.425-5.425s5.425 2.415 5.425 5.425v1.085" stroke-linecap="round"/><path d="M7.91 26.215a4.9 4.9 0 1 0 0-9.8 4.9 4.9 0 1 0 0 9.8z"/><path d="M14.805 33.005c0-3.745-3.045-6.825-6.825-6.825s-6.79 3.045-6.79 6.825v.875h13.615v-.875z"/><g stroke-linecap="round"><path d="M10.989 17.5h22.96v12.04h-20.09m-.104-16.975h-9.87c-1.505 0-2.695-1.225-2.695-2.695V3.71c0-1.505 1.225-2.695 2.695-2.695h9.835c1.505 0 2.695 1.225 2.695 2.695V9.1m.034-.036l2.17 3.5h-4.865m-8.329-7.7h6.44"/><path d="M5.425 8.715h3.22"/></g></svg>
