<svg width="51" height="51" fill="none"  stroke="#e62334" stroke-width="1.5" stroke-miterlimit="10" stroke-linecap="round" stroke-linejoin="round"><path d="M27.5 12.251s2.35-4.9 7-3.25 6.4 10.25-7 18.85m-.1-15.6s-2.35-4.9-7-3.25-6.4 10.25 7 18.85"/><path d="M33.75 22.801h11.1s.3 9.8-7 14.65v11.4h-18.4v-6.35m1.7-19.7H10.1l-3.7 6.55a1.84 1.84 0 0 0 1.6 2.75h3.55l.8 8.35c.15 1.65 1.7 2.85 3.35 2.55l6.3-1.1c1.9-.35 3.55-1.5 4.55-3.15l2.4-4.05M27.5 4.551v-2.45M15.15 7.65L13.4 5.9m26.55 1.75L41.7 5.9m1.95 11.101h2.45m-37.55 0H11"/></svg>
