<svg xmlns="http://www.w3.org/2000/svg" width="50" height="50" fill="none"  stroke="#e62334" stroke-width="1.5" stroke-miterlimit="10" stroke-linecap="round" stroke-linejoin="round"><path d="M26.65 11.85s2.35-4.9 7-3.25 6.4 10.25-7 18.85m-.099-15.6s-2.35-4.9-7-3.25-6.4 10.25 7 18.85"/><path d="M32.901 22.4h11.1s.3 9.8-7 14.65v11.4h-18.4V42.1M20.3 22.4H9.25l-3.7 6.55a1.84 1.84 0 0 0 1.6 2.75h3.55l.8 8.35c.15 1.65 1.7 2.85 3.35 2.55l6.3-1.1c1.9-.35 3.55-1.5 4.55-3.15l2.4-4.05M26.65 4.15V1.7M14.301 7.25l-1.75-1.75m26.55 1.75l1.75-1.75m1.95 11.101h2.45m-37.551 0h2.45"/></svg>
