<svg xmlns="http://www.w3.org/2000/svg" width="50" height="50" fill="none"  stroke="#e62334" stroke-width="1.5" stroke-miterlimit="10" stroke-linejoin="round"><path d="M23.15 47.85c-1.35.95-3.2.6-4.1-.75L11.8 36.75l4.85-3.4 7.2 10.35c.95 1.35.6 3.2-.7 4.15z"/><path d="M5.45 28.5l5.25-3.65 5.95 8.55-5.25 3.65c-2.35 1.65-5.6 1.05-7.25-1.3s-1.05-5.6 1.3-7.25zm27.682 3.663c2.652-1.846 1.323-8.339-2.968-14.504S20.245 7.994 17.593 9.84s-1.322 8.339 2.969 14.504 9.919 9.665 12.571 7.819z"/><path d="M10.699 24.85l5.95-13.8m0 22.3l15-.75m-9.45-13.901c1.6-.6 3.5-.05 4.55 1.45 1.05 1.55.9 3.6-.35 4.9M36.35 13.35l6.6-4.6m-10.65.5l1.4-7.9m5.1 17.2L46.7 20" stroke-linecap="round"/></svg>
