<svg width="35" height="35" fill="none"  stroke="#e62334" stroke-width="1.5" stroke-miterlimit="10"><path d="M26.425 25.55l2.765-2.835-.035-5.67c0-2.87 2.205-5.075 4.305-5.075v13.055l-6.3 6.265v2.17h-7.525v-5.67c0-1.015.385-1.96 1.085-2.695l3.78-3.92a2.22 2.22 0 0 1 3.15-.035c.84.84.875 2.24.035 3.08l-2.8 2.87m-16.31-1.54L5.81 22.715l.035-5.67c0-2.87-2.17-5.075-4.305-5.075v13.055l6.3 6.265v2.17h7.49v-5.67c0-1.015-.385-1.96-1.085-2.695l-3.745-3.92a2.22 2.22 0 0 0-3.15-.035c-.84.84-.875 2.24-.035 3.08l2.8 2.87m7.385-9.905h-5.18a2.3 2.3 0 0 1-2.205-2.975l.665-2.275c.595-2.065 2.52-3.5 4.69-3.5h2.03m0 8.75h5.18a2.3 2.3 0 0 0 2.205-2.975l-.665-2.275c-.595-2.065-2.52-3.5-4.69-3.5H17.5" stroke-linecap="round" stroke-linejoin="round"/><path d="M17.5 8.47a3.57 3.57 0 1 0 0-7.14 3.57 3.57 0 1 0 0 7.14z" stroke-linejoin="round"/></svg>
