<svg width="35" height="35" fill="none"  stroke="#e62334" stroke-width="1.5" stroke-miterlimit="10"><g stroke-linecap="round"><path d="M15.469 25.376l-2.275-2.275M18.06 12.95l8.645 8.68c.7.7.7 1.82 0 2.485-.7.7-1.82.7-2.485 0l-6.02-6.02"/><path d="M15.47 25.376c.665.665.665 1.715.07 2.38-.63.7-1.68.805-2.38.245l-8.575-6.615m11.095-.77l5.11 5.145c.7.7 1.82.7 2.52 0s.7-1.82 0-2.52l-5.11-5.145"/><path d="M13.194 23.1l3.745 3.78c.665.7 1.785.7 2.485 0 .665-.665.665-1.785 0-2.485l-3.745-3.78"/></g><g stroke-linejoin="round"><path d="M2.1 21.385h2.485l1.4-11.375L2.1 8.995v12.39zm30.8 0h-2.485l-1.4-11.375L32.9 8.995v12.39z"/><g stroke-linecap="round"><path d="M30.414 21.386l-3.22 1.085m1.821-12.461s-2.135-.35-4.41-1.225c-2.1-.805-4.235-2.135-6.79-2.135-4.06 0-6.72 4.2-6.72 5.46 0 2.275 3.22 4.305 6.965.84.7-.665 1.435-1.925 1.435-1.925"/><path d="M5.985 10.011s4.515-3.15 7.945-1.96"/></g></g></svg>
