<svg width="50" height="50" fill="none"  stroke="#e62334" stroke-width="1.5" stroke-miterlimit="10" stroke-linecap="round" stroke-linejoin="round"><path d="M28.656 27.8v-6.409S36.94 16.434 37 8.997c0-4.474-1.451-6.469-2.358-7.195-.363-.302-.967-.605-1.27-.242C29.926 6.155 22.55 8.937 22.55 15.648c0 5.563 6.107 5.744 6.107 5.744M1.25 44.25h7.4a2.69 2.69 0 0 0 2.7 2.7H25.5c2.05 0 4.1-.5 5.95-1.45l15.05-7.8c1.2-.65 1.7-2.15 1.05-3.35-.55-1.05-1.85-1.55-3-1.15L29.8 37.5M1.25 31.95h25.9a3.37 3.37 0 0 1 3.4 3.4 3.37 3.37 0 0 1-3.4 3.4H18.9l-1.3 1.35"/></svg>
