<svg width="50" height="50" viewBox="0 0 50 50" fill="none">
<path d="M47.5496 2.14941C47.5496 2.14941 50.2996 18.3494 40.0496 28.5994C29.6996 38.9494 19.9496 39.9494 19.9496 39.9494L14.8496 34.8494" stroke="#E62334" stroke-width="1.5" stroke-miterlimit="10" stroke-linecap="round" stroke-linejoin="round"/>
<path d="M35.0992 32.9492L34.6992 40.3492C34.6492 41.4492 34.0992 42.4492 33.1992 43.0492L26.0992 47.9992C25.2492 48.5992 24.0992 48.0492 23.9992 47.0492L23.1992 39.2492" stroke="#E62334" stroke-width="1.5" stroke-miterlimit="10" stroke-linecap="round" stroke-linejoin="round"/>
<path d="M47.55 2.1498C47.55 2.1498 31.35 -0.600198 21.1 9.6498C10.75 19.9998 9.75 29.7498 9.75 29.7498L14.85 34.8498" stroke="#E62334" stroke-width="1.5" stroke-miterlimit="10" stroke-linecap="round" stroke-linejoin="round"/>
<path d="M16.75 14.5996L9.39996 14.9996C8.29996 15.0496 7.29996 15.5996 6.69996 16.4996L1.74996 23.5996C1.14996 24.4496 1.69996 25.5996 2.69996 25.6996L10.5 26.4996" stroke="#E62334" stroke-width="1.5" stroke-miterlimit="10" stroke-linecap="round" stroke-linejoin="round"/>
<path d="M33.9996 21.55C37.2581 21.55 39.8996 18.9085 39.8996 15.65C39.8996 12.3915 37.2581 9.75 33.9996 9.75C30.7411 9.75 28.0996 12.3915 28.0996 15.65C28.0996 18.9085 30.7411 21.55 33.9996 21.55Z" stroke="#E62334" stroke-width="1.5" stroke-miterlimit="10" stroke-linecap="round" stroke-linejoin="round"/>
<path d="M12.0996 22.2501C12.0996 22.2001 27.4496 37.6001 27.4496 37.6001" stroke="#E62334" stroke-width="1.5" stroke-miterlimit="10" stroke-linecap="round" stroke-linejoin="round"/>
<path d="M10.8996 38.7998L2.09961 47.5498" stroke="#E62334" stroke-width="1.5" stroke-miterlimit="10" stroke-linecap="round" stroke-linejoin="round"/>
<path d="M15.25 43.0996L10.5 47.8496" stroke="#E62334" stroke-width="1.5" stroke-miterlimit="10" stroke-linecap="round" stroke-linejoin="round"/>
<path d="M6.59961 34.4502L1.84961 39.1502" stroke="#E62334" stroke-width="1.5" stroke-miterlimit="10" stroke-linecap="round" stroke-linejoin="round"/>
</svg>
