<svg xmlns="http://www.w3.org/2000/svg" width="50" height="50" fill="none"  stroke="#e62334" stroke-width="1.5" stroke-miterlimit="10" stroke-linejoin="round"><path d="M24.75 34.95c9.057 0 16.4-7.343 16.4-16.4s-7.343-16.4-16.4-16.4-16.4 7.343-16.4 16.4 7.342 16.4 16.4 16.4z"/><path d="M25 10.25l2.35 5.3 5.8.6-4.35 3.9 1.25 5.7-5.05-2.9-5.05 2.9 1.25-5.7-4.35-3.9 5.8-.6 2.35-5.3z"/><path d="M35.75 30.7l6.5 11.55-7.55-1.35-2.75 7.15L25 35.8m-10.9-4.75l-6.35 11.2 7.55-1.35 2.75 7.15L25 35.8" stroke-linecap="round"/></svg>
