<svg width="50" height="50" fill="none"  stroke="#e62334" stroke-width="1.5" stroke-miterlimit="10"><g stroke-linecap="round" stroke-linejoin="round"><path d="M15.35 39.201c-4.8-2.7-8.05-7.8-8.05-13.7 0-8.65 7-15.65 15.65-15.65s15.65 7 15.65 15.65c0 .8-.05 1.6-.2 2.4M31.75 25.7c0 4.85-3.95 8.8-8.75 8.8a8.85 8.85 0 0 1-8.8-8.8c0-4.85 3.95-8.75 8.8-8.75a8.84 8.84 0 0 1 2.6.4"/><path d="M31.75 25.7V1.8"/></g><path d="M23 28.75a3.05 3.05 0 0 0 0-6.1 3.05 3.05 0 0 0 0 6.1z" stroke-linejoin="round"/><path d="M28.55 4.65l3.2-3.2m3.15 3.2l-3.15-3.2m-19.601 35.4V48.6h14.35v-3.7h7.65c1.1 0 2-.9 2-2v-6.7h5.85a.63.63 0 0 0 .55-.9l-3.85-7.15" stroke-linejoin="round" stroke-linecap="round"/></svg>
