<svg xmlns="http://www.w3.org/2000/svg" width="35" height="35" fill="none"  stroke="#e62334" stroke-width="1.5" stroke-miterlimit="10"><path d="M6.685 33.775c-1.645 0-2.835-1.505-2.485-3.115 1.4-6.055 6.825-10.535 13.3-10.535A13.67 13.67 0 0 1 30.8 30.66c.385 1.575-.84 3.115-2.485 3.115H6.685z" stroke-linejoin="round"/><g stroke-linecap="round"><path d="M22.05 8.785c1.26 1.19 2.03 2.87 2.03 4.76 0 3.64-2.94 6.58-6.58 6.58s-6.58-2.975-6.58-6.615a6.61 6.61 0 0 1 2.03-4.76m9.099.034c-1.19-1.12-7.91-1.12-9.1 0"/><path d="M12.845 8.89L5.18 6.055l12.32-4.62m4.655 7.455l7.665-2.835-12.32-4.62m12.319 4.62v8.855M12.67 21l4.865 12.775M22.4 21.034l-4.865 12.74" stroke-linejoin="round"/></g></svg>
