<svg width="50" height="50" fill="none"  stroke="#e62334" stroke-width="1.5" stroke-miterlimit="10"><path d="M38.099 36.801l4.05-4.2-.05-8.3c0-4.2 3.2-7.45 6.3-7.45v19.15l-9.25 9.25v3.2h-11v-8.35c0-1.5.55-2.9 1.6-3.95l5.5-5.75c1.25-1.3 3.35-1.3 4.6-.05s1.25 3.25.05 4.55l-4.1 4.25M11.9 36.801l-4.05-4.2.05-8.3c0-4.2-3.2-7.45-6.3-7.45v19.15l9.25 9.2v3.2h11v-8.3c0-1.5-.55-2.9-1.6-3.95l-5.5-5.75c-1.25-1.3-3.35-1.3-4.6-.05s-1.25 3.25-.05 4.55l4.1 4.25" stroke-linecap="round" stroke-linejoin="round"/><path d="M24.999 7.551l3 6.75 7.35.8-5.5 4.9 1.55 7.25-6.4-3.7-6.4 3.7 1.55-7.25-5.5-4.9 7.35-.8 3-6.75z" stroke-linejoin="round"/><path d="M39.6 13.9l2.45-.7m-31.901.7l-2.45-.7M25 3.2V.9m9.5 4.5l1.55-2.2M15.499 5.4l-1.55-2.2" stroke-linejoin="round" stroke-linecap="round"/></svg>
