<svg xmlns="http://www.w3.org/2000/svg" width="50" height="50" fill="none"  stroke="#e62334" stroke-width="1.5" stroke-miterlimit="10" stroke-linejoin="round"><path d="M44.15 20.45v27.9h-9.4v-29.7H33.1c-4.45 0-8.1-3.65-8.1-8.1V3.2c0-1.2.95-2.15 2.15-2.15S29.3 2 29.3 3.2v7.5c0 1.6 1.3 2.95 2.95 2.95H45.5a2.56 2.56 0 0 1 2.55 2.55v11.5c0 2.2-1.8 4-4 4" stroke-linecap="round"/><path d="M35.25 9.25c0 2.4 1.95 4.35 4.35 4.35s4.35-1.95 4.35-4.35V7.8c0-2.4-1.95-4.35-4.35-4.35S35.25 5.4 35.25 7.8v1.45z"/><path d="M34.75 28.35h9.4m-4.7 5.15v14.85m-33.6-27.9v27.9h9.4v-29.7h1.65c4.45 0 8.1-3.65 8.1-8.1V3.2c0-1.2-.95-2.15-2.15-2.15S20.7 2 20.7 3.2v7.5c0 1.6-1.3 2.95-2.95 2.95H4.5a2.56 2.56 0 0 0-2.55 2.55v11.5c0 2.2 1.8 4 4 4" stroke-linecap="round"/><path d="M14.75 9.25c0 2.4-1.95 4.35-4.35 4.35s-4.35-1.95-4.35-4.35V7.8c0-2.4 1.95-4.35 4.35-4.35s4.35 1.95 4.35 4.35v1.45z"/><path d="M15.251 28.35h-9.4m4.699 5.15v14.85" stroke-linecap="round"/></svg>
