<svg width="35" height="35" fill="none"  stroke="#e62334" stroke-width="1.5" stroke-miterlimit="10" stroke-linecap="round" stroke-linejoin="round"><path d="M8.47 21.735c-1.085-1.855-1.715-3.99-1.715-6.3 0-6.895 5.6-12.495 12.495-12.495 4.655 0 8.68 2.52 10.85 6.3M8.47 21.735L30.1 9.24m-10.709 6.196l8.225 14.455M6.93 13.266c-3.22-.175-5.775-2.87-5.775-6.125A6.17 6.17 0 0 1 7.315.98c2.52 0 4.69 1.505 5.635 3.675"/><path d="M13.405 4.411c3.675-2.17 9.31 4.69 11.34 7.945M12.88 4.69c-3.745 2.1-.735 10.5 1.085 13.86m-6.37 15.33c3.955-4.095 10.535-8.225 20.37-8.225h6.195v8.225H1.155v-8.225c3.955 0 7.805.945 11.445 4.165"/></svg>
