<svg xmlns="http://www.w3.org/2000/svg" width="35" height="35" fill="none"  stroke="#e62334" stroke-width="1.5" stroke-miterlimit="10" xmlns:v="https://vecta.io/nano"><path d="M31.92 30.625H3.01c-1.155 0-2.1-.945-2.1-2.1V6.37c0-1.155.945-2.1 2.1-2.1h28.91c1.155 0 2.1.945 2.1 2.1v22.155c0 1.155-.945 2.1-2.1 2.1z"/><path d="M.91 24.01h33.11"/><path d="M16.275 27.335H30.38m-25.585 0h7.98" stroke-linecap="round"/><path d="M14.525 28.735a1.4 1.4 0 1 0 0-2.8 1.4 1.4 0 1 0 0 2.8z"/><path d="M6.965 18.2l3.01-7.315m3.01 7.385l-3.01-7.35m2.205 5.39H7.735" stroke-linecap="round"/><g stroke-linejoin="round"><path d="M15.82 18.27v-7.35h2.205c1.925 0 2.765 1.96 2.765 3.675S19.74 18.2 18.305 18.2l-2.485.07z"/><path d="M27.685 11.48c-1.295-1.05-3.605-1.12-4.13.63-.77 2.59 5.845 1.715 4.2 5.11-.875 1.82-3.85.875-4.725-.21" stroke-linecap="round"/></g></svg>