<svg xmlns="http://www.w3.org/2000/svg" xmlns:xlink="http://www.w3.org/1999/xlink" width="35" height="35" fill="none"><path d="M17.5 35C27.165 35 35 27.165 35 17.5S27.165 0 17.5 0 0 7.835 0 17.5 7.835 35 17.5 35z" fill="#fcfcfc"/><g fill="#a2001d"><use xlink:href="#B"/><use xlink:href="#B" x="-3.803"/><use xlink:href="#B" y="9.382"/><use xlink:href="#B" x="-3.803" y="9.382"/><path d="M9.131 3.398l-.539-.962a17.55 17.55 0 0 0-2.707 1.976l1.343 2.436L9.13 3.397zM7.228 28.154l-1.357 2.424a17.55 17.55 0 0 0 2.705 1.979l.555-1.006-1.902-3.397z"/></g><path d="M10.652 22.065v11.543C12.756 34.504 15.07 35 17.5 35c7.524 0 13.939-4.749 16.412-11.413l-23.259-1.522z" fill="#6da544"/><path d="M33.912 23.587A17.46 17.46 0 0 0 35 17.5C35 7.835 27.165 0 17.5 0c-2.43 0-4.744.496-6.848 1.391v22.196h23.259z" fill="#a2001d"/><defs ><path id="B" d="M7.227 16.234l-1.902-3.451 1.902-3.397 1.902 3.397-1.902 3.451z"/></defs></svg>
