<svg xmlns="http://www.w3.org/2000/svg" width="35" height="35" fill="none"><path d="M17.5 35C27.165 35 35 27.165 35 17.5S27.165 0 17.5 0 0 7.835 0 17.5 7.835 35 17.5 35z" fill="#6da544"/><path d="M17.5 6.848L31.957 17.5 17.5 28.152 3.044 17.5 17.5 6.848z" fill="#ffda44"/><path d="M17.5 23.587a6.09 6.09 0 0 0 6.087-6.087 6.09 6.09 0 0 0-6.087-6.087 6.09 6.09 0 0 0-6.087 6.087 6.09 6.09 0 0 0 6.087 6.087z" fill="#f0f0f0"/><path d="M14.457 17.119a10.23 10.23 0 0 0-3.042.46 6.09 6.09 0 0 0 6.085 6.008 6.08 6.08 0 0 0 4.985-2.596c-1.884-2.358-4.782-3.872-8.028-3.872zm9.017 1.547a6.14 6.14 0 0 0 .113-1.166 6.09 6.09 0 0 0-11.681-2.402 12.54 12.54 0 0 1 2.55-.261c3.535 0 6.734 1.47 9.018 3.829z" fill="#0052b4"/></svg>
