<svg xmlns="http://www.w3.org/2000/svg" width="35" height="35" fill="none"  stroke="#e62334" stroke-width="1.5" stroke-miterlimit="10" xmlns:v="https://vecta.io/nano"><path d="M24.92 33.11h-.385c-2.24-.14-4.27-1.015-5.81-1.715-4.13-1.995-7.735-4.83-10.71-8.4-2.485-2.975-4.13-5.74-5.25-8.715-.7-1.855-.945-3.325-.84-4.76.07-1.015.49-1.82 1.19-2.555L5.53 4.55c.49-.455 1.05-.7 1.575-.7.56 0 1.085.245 1.54.7A22.56 22.56 0 0 1 9.94 5.845c.105.105.56.56.665.7L12.53 8.47c.525.525.77 1.05.77 1.61s-.245 1.085-.77 1.61l-.175.21-.42.42c-.525.56-1.155 1.155-1.785 1.75v-.035c-.315.315-.315.56-.21.91v.035c.455 1.12 1.12 2.205 2.17 3.535l.035.035c1.925 2.345 3.92 4.2 6.125 5.6.245.175.525.315.805.455s.525.245.735.385c.035 0 .035.035.07.035.14.07.245.105.385.105.315 0 .49-.21.595-.28l2.415-2.415c.49-.49 1.015-.735 1.575-.735.735 0 1.295.455 1.54.735l3.92 3.92c.98.98 1.015 2.17 0 3.22-.245.245-.455.49-.735.735l-.14.14a16.39 16.39 0 0 0-1.33 1.365c-.875.84-1.925 1.295-3.185 1.295z"/><path d="M18.865 7.77s6.615.385 8.505 8.365m-8.155-14.49c5.46.77 12.565 4.97 14.28 14.245" stroke-linecap="round"/></svg>