<svg xmlns="http://www.w3.org/2000/svg" width="35" height="35" fill="none"  stroke="#e62334" stroke-width="1.5" stroke-miterlimit="10" xmlns:v="https://vecta.io/nano"><path d="M17.5 33.355c8.756 0 15.855-7.098 15.855-15.855S26.257 1.645 17.5 1.645 1.645 8.744 1.645 17.5 8.744 33.355 17.5 33.355z"/><g stroke-linecap="round"><path d="M17.5 1.645v31.71"/><path d="M33.355 17.5H1.645M5.74 6.825s3.325 2.8 11.76 2.8 11.76-2.8 11.76-2.8M5.74 27.685s3.325-2.8 11.76-2.8 11.76 2.8 11.76 2.8"/><path d="M17.5 1.645S9.24 2.17 9.24 17.5s8.26 15.855 8.26 15.855m0-31.71s8.26.525 8.26 15.855-8.26 15.855-8.26 15.855"/></g></svg>