<svg xmlns="http://www.w3.org/2000/svg" width="35" height="35" fill="none"  stroke="#e62334" stroke-width="1.5" stroke-miterlimit="10"><path d="M31.925 22.42c-1.96 6.58-7.91 11.375-14.91 11.375C9.875 33.795 3.82 28.79 2 22m27.33 1.415l2.975-1.68 1.295 3.36M2.835 12.74C4.795 6.16 10.71 1.365 17.71 1.365c7.14 0 13.195 5.005 15.015 11.795M5.67 11.62L2.695 13.3 1.4 9.94" stroke-linecap="round" stroke-linejoin="round"/><path d="M16.801 14.666c1.604 0 2.905-1.301 2.905-2.905s-1.301-2.905-2.905-2.905-2.905 1.301-2.905 2.905 1.301 2.905 2.905 2.905z"/><g stroke-linejoin="round"><path d="M20.825 22.821H12.67v-4.095a4.1 4.1 0 0 1 4.095-4.095 4.1 4.1 0 0 1 4.095 4.095v4.095h-.035z"/><path d="M10.36 12.181c-1.085 0-1.96.875-1.96 1.96s.875 1.96 1.96 1.96m0 .035h-.805c-1.365 0-2.485 1.12-2.485 2.485v2.975c0 .7.56 1.26 1.26 1.26h1.365M23.24 12.181c1.085 0 1.96.875 1.96 1.96s-.875 1.96-1.96 1.96m0 .035h.805c1.365 0 2.485 1.12 2.485 2.485v2.975c0 .7-.56 1.26-1.26 1.26h-1.365" stroke-linecap="round"/></g></svg>
