<svg xmlns="http://www.w3.org/2000/svg" width="35" height="35" fill="none"><style><![CDATA[.B{stroke-linejoin:round}.C{stroke-linecap:round}]]></style><g stroke="#e62334" stroke-width="1.5" stroke-miterlimit="10" class="B"><g class="C"><path d="M33.005 14.945a15.41 15.41 0 0 1 .21 2.555c0 8.68-7.035 15.715-15.715 15.715S1.785 26.18 1.785 17.5 8.82 1.785 17.5 1.785"/><path d="M26.775 1.785H32.2V7.21m-6.615 1.225l6.37-6.37"/></g><path d="M16.66 16.03a3.5 3.5 0 1 0 0-7 3.5 3.5 0 1 0 0 7z"/><g class="C"><path d="M16.66 16.065c-5.285 0-6.72 3.78-7.14 5.845-.14.665.385 1.295 1.085 1.295h6.02"/><path d="M16.59 16.065c5.285 0 6.72 3.78 7.14 5.845.14.665-.385 1.295-1.085 1.295H16.59"/></g></g></svg>
