<svg xmlns="http://www.w3.org/2000/svg" width="35" height="35" fill="none"  stroke="#e62334" stroke-width="1.5" stroke-miterlimit="10" stroke-linejoin="round" xmlns:v="https://vecta.io/nano"><path d="M2.555 22.575h11.55c6.265 0 10.955-5.565 10.745-11.27C24.675 5.6 18.935 2.03 13.72 2.03S2.275 5.67 2.275 12.285c0 5.215 3.115 7.42 3.115 7.42l-2.835 2.87z"/><path d="M24.85 12.145c4.025 1.295 7.595 4.62 7.595 9.625 0 5.215-3.115 7.42-3.115 7.42l2.835 2.835h-11.55c-5.635 0-9.975-4.445-10.675-9.485M8.47 8.436h10.15M8.47 15.68h10.15M8.47 12.041h10.15" stroke-linecap="round"/></svg>