<svg xmlns="http://www.w3.org/2000/svg" width="35" height="35" fill="none"><path d="M17.5 35C27.165 35 35 27.165 35 17.5S27.165 0 17.5 0 0 7.835 0 17.5 7.835 35 17.5 35z" fill="#fcfcfc"/><path d="M27.391 15.217h-2.283a7.61 7.61 0 0 1-7.609 7.609 7.61 7.61 0 0 1-7.609-7.609H7.608c0 4.526 3.04 8.343 7.19 9.518a2.53 2.53 0 0 0 .264 2.764l2.487-1.993 2.487 1.993c.656-.819.721-1.921.251-2.79 4.105-1.204 7.102-4.998 7.102-9.492z" fill="#6da544"/><path d="M11.413 14.457s0 3.804 3.804 3.804l.761.761H17.5s.761-2.283 2.283-2.283c0 0 0-1.522 1.522-1.522h2.283s-.761-3.043 3.044-5.326l-1.522-.761s-5.326 3.804-9.13 3.044v1.522h-1.522l-.761-.761-2.283 1.522z" fill="#ffda44"/></svg>
