<svg xmlns="http://www.w3.org/2000/svg" width="35" height="35" fill="none"  stroke="#e62334" stroke-width="1.5" stroke-miterlimit="10" stroke-linejoin="round" xmlns:v="https://vecta.io/nano"><path d="M26.04 15.82h5.67v17.115a1.03 1.03 0 0 1-1.05 1.05H4.375a1.03 1.03 0 0 1-1.05-1.05V15.82H8.96"/><path d="M31.745 15.82l-9.73 9.45h-9.03l-9.66-9.45"/><path d="M11.9 24.185l-8.575 8.75m20.02-8.505l8.575 8.75M8.96 21.315v-18.2c0-1.155.945-2.1 2.1-2.1h12.915c1.155 0 2.1.945 2.1 2.1V21.35M22.61 4.9H12.32v4.585h10.29V4.9z"/><path d="M12.32 12.845h10.29" stroke-linecap="round"/></svg>