<svg xmlns="http://www.w3.org/2000/svg" width="35" height="35" fill="none"><path d="M17.5 35C27.165 35 35 27.165 35 17.5S27.165 0 17.5 0 0 7.835 0 17.5 7.835 35 17.5 35z" fill="#338af3"/><path d="M27.391 17.69H7.608c0 1.366 1.19 2.473 2.555 2.473h-.082c0 1.366 1.107 2.473 2.473 2.473 0 1.366 1.107 2.473 2.473 2.473h4.946c1.366 0 2.473-1.107 2.473-2.473 1.366 0 2.473-1.107 2.473-2.473h-.082c1.366 0 2.555-1.107 2.555-2.473z" fill="#ffda44"/><path d="M24.348 14.456a6.85 6.85 0 0 1-6.848 6.848 6.85 6.85 0 0 1-6.848-6.848" fill="#338af3"/><path d="M22.731 14.456l-2.137 1.005 1.138 2.07-2.321-.444-.294 2.345-1.616-1.724-1.617 1.724-.294-2.344-2.321.444 1.138-2.07-2.137-1.005 2.137-1.005-1.138-2.07 2.321.444.294-2.344 1.617 1.724 1.617-1.724.294 2.344 2.321-.444-1.138 2.07 2.137 1.005z" fill="#ffda44"/></svg>
