<svg xmlns="http://www.w3.org/2000/svg" width="50" height="50" fill="none"  stroke="#e62334" stroke-width="2" stroke-miterlimit="10" stroke-linejoin="round"><path d="M24.75 34.5a9 9 0 1 0 0-18 9 9 0 1 0 0 18z"/><g stroke-linecap="round"><path d="M34.5 9.5l6.25-6.25 1.95 4.2m-2.1 8.25l4.55-4.55m-9.8 3.7l5.25.85m-5.25-.85L34.5 9.5m-9.75 16l10.6-10.65"/><path d="M42.85 13.45A21.55 21.55 0 0 1 46.5 25.5c0 12-9.75 21.75-21.75 21.75S3 37.5 3 25.5 12.75 3.75 24.75 3.75A21.79 21.79 0 0 1 36.7 7.3m6 .15l4.2 1.95-4.05 4.05"/></g></svg>
