<svg xmlns="http://www.w3.org/2000/svg" width="35" height="35" fill="none"><path d="M17.5 35C27.165 35 35 27.165 35 17.5S27.165 0 17.5 0 0 7.835 0 17.5 7.835 35 17.5 35z" fill="#f0f0f0"/><path d="M35 17.5c0-6.938-4.038-12.933-9.891-15.764v31.527C30.962 30.433 35 24.438 35 17.5z" fill="#d80027"/><path d="M0 17.5c0 6.938 4.038 12.933 9.891 15.763V1.736C4.038 4.567 0 10.562 0 17.5zm12.935-.001c0 2.521 2.044 4.565 4.565 4.565s4.565-2.044 4.565-4.565v-1.522h-9.131v1.522z" fill="#6da544"/><path d="M23.587 14.456h-4.565a1.52 1.52 0 0 0-3.043 0h-4.565c0 .84.732 1.522 1.572 1.522h-.051a1.52 1.52 0 0 0 1.522 1.522 1.52 1.52 0 0 0 1.522 1.522h3.043a1.52 1.52 0 0 0 1.522-1.522 1.52 1.52 0 0 0 1.522-1.522h-.051c.84 0 1.572-.681 1.572-1.522z" fill="#ff9811"/></svg>
