<svg xmlns="http://www.w3.org/2000/svg" width="35" height="35" fill="none"><g clip-path="url(#A)"><g fill="#f0f0f0"><path d="M17.5 35C27.165 35 35 27.165 35 17.5S27.165 0 17.5 0 0 7.835 0 17.5 7.835 35 17.5 35z"/><path d="M0 17.5c0 6.633 3.691 12.404 9.13 15.372V2.128C3.691 5.096 0 10.867 0 17.5z"/></g><path d="M17.5 0a17.42 17.42 0 0 0-8.37 2.128v30.744A17.42 17.42 0 0 0 17.5 35C27.165 35 35 27.165 35 17.5S27.165 0 17.5 0z" fill="#496e2d"/><g fill="#f0f0f0"><path d="M24.982 20.393c-2.214 1.6-5.305 1.102-6.905-1.112s-1.102-5.306 1.112-6.905c.69-.499 1.466-.794 2.255-.896-1.518-.227-3.123.115-4.465 1.085a6.09 6.09 0 0 0-1.369 8.499 6.09 6.09 0 0 0 8.499 1.369c1.343-.97 2.171-2.386 2.432-3.899a4.91 4.91 0 0 1-1.559 1.859zm-.095-8.98l1.247 1.344 1.664-.771-.893 1.601 1.247 1.344-1.799-.354-.893 1.601-.219-1.82-1.799-.354 1.664-.771-.219-1.82z"/></g></g><defs><clipPath id="A"><path fill="#fff" d="M0 0h35v35H0z"/></clipPath></defs></svg>
