<svg xmlns="http://www.w3.org/2000/svg" width="35" height="35" fill="none"><path d="M0 17.499c0 7.524 4.749 13.939 11.413 16.411l1.522-16.411-1.522-16.411C4.749 3.561 0 9.975 0 17.499z" fill="#6da544"/><path d="M35 17.5C35 7.835 27.165 0 17.5 0c-2.141 0-4.191.385-6.087 1.088v32.823A17.46 17.46 0 0 0 17.5 35C27.165 35 35 27.165 35 17.5z" fill="#d80027"/><path d="M11.413 23.587A6.09 6.09 0 0 0 17.5 17.5a6.09 6.09 0 0 0-6.087-6.087A6.09 6.09 0 0 0 5.326 17.5a6.09 6.09 0 0 0 6.087 6.087z" fill="#ffda44"/><path d="M7.989 14.456v3.804c0 1.891 1.533 3.424 3.424 3.424s3.424-1.533 3.424-3.424v-3.804H7.989z" fill="#d80027"/><path d="M11.413 19.403c-.629 0-1.141-.512-1.141-1.141V16.74h2.283v1.522c0 .629-.512 1.141-1.141 1.141z" fill="#f0f0f0"/></svg>
