<svg xmlns="http://www.w3.org/2000/svg" width="35" height="35" fill="none"><g clip-path="url(#A)"><path d="M17.5 35C27.165 35 35 27.165 35 17.5S27.165 0 17.5 0 0 7.835 0 17.5 7.835 35 17.5 35z" fill="#f0f0f0"/><path d="M33.912 23.587A17.46 17.46 0 0 0 35 17.5a17.46 17.46 0 0 0-1.089-6.087H1.088A17.46 17.46 0 0 0 0 17.5a17.46 17.46 0 0 0 1.088 6.087L17.5 25.109l16.411-1.522z" fill="#0052b4"/><path d="M17.5 35c7.524 0 13.939-4.749 16.412-11.413H1.089C3.561 30.251 9.976 35 17.5 35z" fill="#d80027"/></g><defs><clipPath id="A"><path fill="#fff" d="M0 0h35v35H0z"/></clipPath></defs></svg>
