<svg xmlns="http://www.w3.org/2000/svg" width="35" height="35" fill="none" ><g clip-path="url(#A)"><g stroke="#e62334" stroke-width="1.5" stroke-miterlimit="10"><path d="M17.31 34.62c9.008 0 16.31-7.302 16.31-16.31S26.318 2 17.31 2 1 9.302 1 18.31s7.302 16.31 16.31 16.31z"/><path d="M9.12 32.24V14.145a3.84 3.84 0 0 1 3.85-3.85h18.55m-22.4 6.86h24.5M17.03 27.48c1.914 0 3.465-1.551 3.465-3.465s-1.551-3.465-3.465-3.465-3.465 1.551-3.465 3.465 1.551 3.465 3.465 3.465z"/><path d="M19.48 26.465l3.885 3.885" stroke-linecap="round"/></g><g fill="#e62334"><path d="M12.76 12.85a1.18 1.18 0 0 0-1.19 1.19 1.18 1.18 0 0 0 1.19 1.19 1.18 1.18 0 0 0 1.19-1.19c0-.665-.56-1.19-1.19-1.19zm4.55 0a1.18 1.18 0 0 0-1.19 1.19 1.18 1.18 0 0 0 1.19 1.19 1.18 1.18 0 0 0 1.19-1.19 1.18 1.18 0 0 0-1.19-1.19zm4.55 0a1.18 1.18 0 0 0-1.19 1.19 1.19 1.19 0 1 0 2.38 0 1.18 1.18 0 0 0-1.19-1.19z"/></g></g><defs><clipPath id="A"><path fill="#fff" d="M0 0h35v35H0z"/></clipPath></defs></svg>
