<svg xmlns="http://www.w3.org/2000/svg" width="35" height="35" fill="none"  stroke="#e62334" stroke-width="1.5" stroke-miterlimit="10" stroke-linejoin="round"><path d="M17.5 33.075A15.58 15.58 0 0 0 33.075 17.5 15.58 15.58 0 0 0 17.5 1.925 15.58 15.58 0 0 0 1.925 17.5 15.58 15.58 0 0 0 17.5 33.075z"/><path d="M22.785 22.4c-1.33 1.925-3.5 3.08-5.495 3.08s-4.2-1.155-5.53-3.08m3.08-7.105c-.84-1.19-2.17-1.925-3.43-1.925s-2.59.735-3.43 1.925m19.04 0c-.84-1.19-2.17-1.925-3.43-1.925s-2.59.735-3.43 1.925" stroke-linecap="round"/></svg>
