<svg xmlns="http://www.w3.org/2000/svg" width="35" height="35" fill="none"><g clip-path="url(#A)"><path d="M17.5 35C27.165 35 35 27.165 35 17.5S27.165 0 17.5 0 0 7.835 0 17.5 7.835 35 17.5 35z" fill="#f0f0f0"/><path d="M5.126 29.874c-6.834-6.834-6.834-17.915 0-24.749 0 .001 10.092 12.374 10.092 12.374L5.126 29.874z" fill="#000"/><path d="M15.217 17.499L2.321 8.784c-.4.695-.752 1.42-1.055 2.171l6.529 6.544-6.529 6.544a17.42 17.42 0 0 0 1.055 2.17l12.897-8.714z" fill="#ffda44"/><path d="M34.852 15.218H15.217L5.125 5.126a17.57 17.57 0 0 0-2.804 3.659l8.698 8.715-8.699 8.714c.772 1.342 1.717 2.573 2.805 3.66l10.091-10.091h19.635c.097-.747.148-1.509.148-2.283s-.051-1.535-.148-2.283z" fill="#6da544"/><path d="M6.845 31.382A17.42 17.42 0 0 0 17.499 35c8.085 0 14.889-5.484 16.897-12.935H16.162l-9.317 9.317z" fill="#0052b4"/><path d="M34.397 12.935C32.388 5.484 25.585 0 17.499 0A17.42 17.42 0 0 0 6.845 3.618l9.317 9.317h18.235z" fill="#d80027"/></g><defs><clipPath id="A"><path fill="#fff" d="M0 0h35v35H0z"/></clipPath></defs></svg>
