<svg xmlns="http://www.w3.org/2000/svg" width="35" height="35" fill="none"  stroke="#e62334" stroke-width="1.5" stroke-miterlimit="10" stroke-linejoin="round" xmlns:v="https://vecta.io/nano"><path d="M17.5 33.565A16.07 16.07 0 0 0 33.565 17.5 16.07 16.07 0 0 0 17.5 1.435 16.07 16.07 0 0 0 1.435 17.5 16.07 16.07 0 0 0 17.5 33.565z"/><path d="M17.5 20.195c1.488 0 2.695-1.207 2.695-2.695s-1.207-2.695-2.695-2.695-2.695 1.207-2.695 2.695 1.207 2.695 2.695 2.695z"/><path d="M27.37 13.65c.455 1.19.735 2.485.735 3.85m-21.21.001c0-5.845 4.76-10.605 10.605-10.605a10.89 10.89 0 0 1 3.71.665m-1.855 8.084L26.25 8.75" stroke-linecap="round"/></svg>