<svg xmlns="http://www.w3.org/2000/svg" width="35" height="35" fill="none"><path d="M17.5 35C27.165 35 35 27.165 35 17.5S27.165 0 17.5 0 0 7.835 0 17.5 7.835 35 17.5 35z" fill="#f0f0f0"/><path d="M33.912 11.413H1.088A17.46 17.46 0 0 0 0 17.5a17.46 17.46 0 0 0 1.088 6.087h32.823C34.615 21.691 35 19.641 35 17.5a17.46 17.46 0 0 0-1.089-6.087z" fill="#0052b4"/><path d="M17.5 0A17.46 17.46 0 0 0 4.234 6.087h26.532C27.557 2.36 22.804 0 17.5 0zm13.266 28.913H4.234A17.46 17.46 0 0 0 17.5 35a17.46 17.46 0 0 0 13.266-6.087z" fill="#d80027"/></svg>
