<svg xmlns="http://www.w3.org/2000/svg" width="35" height="35" fill="none"><path d="M17.5 35C27.165 35 35 27.165 35 17.5S27.165 0 17.5 0 0 7.835 0 17.5 7.835 35 17.5 35z" fill="#d80027"/><path d="M16.784 14.301l1.436 1.979 2.325-.754-1.438 1.977 1.436 1.979-2.325-.757-1.438 1.977.002-2.445-2.325-.757 2.325-.754.002-2.445zm-3.919 8.146c-2.731 0-4.946-2.214-4.946-4.946s2.214-4.946 4.946-4.946a4.92 4.92 0 0 1 2.352.594c-1.097-1.073-2.598-1.736-4.255-1.736A6.09 6.09 0 0 0 4.875 17.5a6.09 6.09 0 0 0 6.087 6.087 6.07 6.07 0 0 0 4.255-1.736 4.92 4.92 0 0 1-2.352.595z" fill="#f0f0f0"/></svg>
