<svg width="50" height="50" fill="none"  stroke="#e62334" stroke-width="1.5" stroke-miterlimit="10" stroke-linejoin="round"><path d="M23.299 12l1.7-3.8 1.7 3.8 4.1.45-3.1 2.75.9 4.05-3.6-2.05-3.6 2.05.9-4.05-3.1-2.75 4.1-.45zM24.9 1.55h13.15V12.3c0 9.9-5.9 17.8-13.15 17.8"/><path d="M38.05 4.85h4.45c1.8 0 3.15 1.7 2.7 3.45-.9 3.4-3.05 8.55-8.3 11.4M25 36.9h7.75c-5.2-.65-5.2-7.1-5.2-7.1"/><path d="M32.75 36.9v6.75H25"/><path d="M32.75 43.65h2.2a3.12 3.12 0 0 1 3.1 3.1v1.65H24.9m.199-46.85h-13.15V12.3c0 9.9 5.9 17.8 13.15 17.8"/><path d="M11.95 4.85H7.5c-1.8 0-3.15 1.7-2.7 3.45.9 3.4 3.05 8.55 8.3 11.4M25 36.9h-7.75c5.2-.65 5.2-7.1 5.2-7.1m-5.2 7.1v6.75H25m-7.751 0h-2.2a3.12 3.12 0 0 0-3.1 3.1v1.65h13.15"/></svg>
