<svg xmlns="http://www.w3.org/2000/svg" width="35" height="35" fill="none"  stroke="#e62334" stroke-width="1.5" stroke-miterlimit="10" stroke-linejoin="round"><path d="M23.484 11.235V2.1c0-.595.49-1.05 1.05-1.05h3.64c.595 0 1.05.49 1.05 1.05v30.135c0 .77-.63 1.435-1.435 1.435H6.929c-.77 0-1.435-.63-1.435-1.435V2.1c0-.595.49-1.05 1.05-1.05h3.64c.595 0 1.05.49 1.05 1.05v9.135c0 .77.63 1.435 1.435 1.435h9.38a1.42 1.42 0 0 0 1.435-1.435z"/><path d="M5.529 29.015h14.385m4.865 0h4.48" stroke-linecap="round"/></svg>
