<svg width="35" height="35" fill="none"  stroke="#e62334" stroke-width="1.5" stroke-miterlimit="10" stroke-linecap="round" stroke-linejoin="round"><path d="M17.955.84h1.365a1.03 1.03 0 0 1 1.015 1.26l-.455 2.345m-1.925 0h8.015"/><path d="M24.99 4.445l1.225 2.45c.315.63.49 1.365.49 2.065v20.615c0 .805-.21 1.61-.56 2.345l-1.12 2.205m-7.07.035h7.035"/><path d="M26.39 30.835h-8.435m3.185-22.96h-3.185m0 6.44c2.765 0 5.04 2.24 5.04 5.04a5.02 5.02 0 0 1-5.04 5.04M17.99.84h-1.365A1.03 1.03 0 0 0 15.61 2.1l.455 2.345m1.925 0H9.975m.98 0L9.73 6.895c-.315.63-.49 1.365-.49 2.065v20.615c0 .805.21 1.61.56 2.345l1.12 2.205"/><path d="M17.99 34.16h-7.035M9.59 30.835h8.4M9.416 7.875h8.575m0 6.44c-2.765 0-5.04 2.24-5.04 5.04a5.02 5.02 0 0 0 5.04 5.04"/></svg>
