<svg xmlns="http://www.w3.org/2000/svg" width="35" height="35" fill="none"  stroke="#e62334" stroke-width="1.5" stroke-miterlimit="10" stroke-linecap="round" stroke-linejoin="round"><path d="M23.273 5.985c.735-.63 4.725-2.975 8.61 3.115 4.13 6.51.91 8.575-2.905 9.03m-8.189-5.95v2.345m-9.065-8.54c-.77-.63-4.76-2.975-8.645 3.115-4.13 6.475-.91 8.54 2.94 9.03m8.225-5.95v2.345"/><path d="M17.5 31.22C3.325 31.22 4.48 21.77 7.21 14 8.855 9.275 10.92 3.99 17.5 3.99"/><path d="M17.499 23.765c-1.4 0-3.185-1.715-2.765-3.71.245-1.26 2.03-1.365 2.765-1.365s2.485.105 2.765 1.365c.455 1.96-1.365 3.71-2.765 3.71zm0 0v7.455c14.175 0 13.02-9.45 10.29-17.22-1.645-4.725-3.71-10.01-10.29-10.01"/></svg>
