<svg xmlns="http://www.w3.org/2000/svg" xmlns:xlink="http://www.w3.org/1999/xlink" width="35" height="35" fill="none"><g stroke="#e62334" stroke-width="1.5" stroke-miterlimit="10" stroke-linejoin="round"><use xlink:href="#B"/><use xlink:href="#B" x="8.855"/><path d="M12.076 28H8.051m4.69-17.675h4.095c1.295 0 2.345 1.05 2.345 2.345s-1.05 2.345-2.345 2.345H3.325C2.03 15.015.98 13.965.98 12.67s1.05-2.345 2.345-2.345H7.42" stroke-linecap="round"/><path d="M6.16 7.455c0 2.17 1.75 3.92 3.92 3.92S14 9.625 14 7.455V4.97c0-2.17-1.75-3.92-3.92-3.92S6.16 2.8 6.16 4.97v2.485z"/><path d="M10.185 15.015c-1.295 0-2.345-1.05-2.345-2.345 0-.63.245-1.19.665-1.61m7.665 3.92v4.48M3.955 14.98v4.48" stroke-linecap="round"/><path d="M27.861 29.085c3.402 0 6.16-.909 6.16-2.03s-2.758-2.03-6.16-2.03-6.16.909-6.16 2.03 2.758 2.03 6.16 2.03z"/><path d="M34.021 27.055v.35c0 3.57-2.765 6.475-6.16 6.475s-6.16-2.905-6.16-6.475v-.35" stroke-linecap="round"/></g><defs ><path id="B" d="M5.636 33.95a2.42 2.42 0 0 1-2.415-2.415V21.21a2.42 2.42 0 0 1 2.415-2.415 2.42 2.42 0 0 1 2.415 2.415v10.325a2.42 2.42 0 0 1-2.415 2.415z"/></defs></svg>
