<svg xmlns="http://www.w3.org/2000/svg" width="35" height="35" fill="none"  stroke="#e62334" stroke-width="1.5" stroke-miterlimit="10" stroke-linejoin="round"><path d="M24.15 26.705H3.045c-1.155 0-2.1-.945-2.1-2.1v-15.4c0-1.155.945-2.1 2.1-2.1H24.15c1.155 0 2.1.945 2.1 2.1V24.64c0 1.12-.91 2.065-2.1 2.065z"/><path d="M1.156 11.865h25.095" stroke-linecap="round"/><path d="M13.544 23.345a4.06 4.06 0 1 0 0-8.12 4.06 4.06 0 1 0 0 8.12zM33.426 12.74h-3.745a.7.7 0 0 0-.7.7v7a.7.7 0 0 0 .7.7h3.71a.7.7 0 0 0 .7-.7v-7c.035-.385-.28-.7-.665-.7z"/><path d="M33.111 12.74V8.505h-3.115v4.235m1.574 8.4v5.81a4.54 4.54 0 0 1-4.55 4.55H7.56a4.54 4.54 0 0 1-4.55-4.55v-.245m28.56-20.93v-2.31" stroke-linecap="round"/></svg>
