<svg width="35" height="35" fill="none"  stroke="#e62334" stroke-width="1.5" stroke-miterlimit="10" stroke-linejoin="round"><path d="M9.206 33.705H2.801v-18.06h6.405a1.83 1.83 0 0 1 1.82 1.82v14.42c0 1.015-.805 1.82-1.82 1.82z"/><g stroke-linecap="round"><path d="M18.83 17.43h9.975c1.155 0 2.1.945 2.1 2.1s-.945 2.1-2.1 2.1H26.88m-.034.035h1.925c1.155 0 2.1.945 2.1 2.1s-.945 2.1-2.1 2.1h-1.925m0 .035h1.925c1.155 0 2.1.945 2.1 2.1s-.945 2.1-2.1 2.1h-1.925M11.025 17.465c4.165 0 6.685-4.725 7.665-8.435.595-2.205 3.255-2.8 4.305.49.63 1.995-.21 5.355-.98 7.91"/><path d="M26.845 30.1H28c.63 0 1.12.49 1.12 1.12a2.46 2.46 0 0 1-2.45 2.45h-7.245c-1.155 0-2.275-.14-3.395-.455l-5.005-1.365M21 3.36V1.295m4.971 4.34l1.54-1.54M16.1 5.635l-1.575-1.54"/></g></svg>
