<svg width="162" height="32" viewBox="0 0 162 32" fill="none" xmlns="http://www.w3.org/2000/svg">
<g clip-path="url(#clip0)">
<path d="M64.7273 0.479408C64.9701 0.479408 65.213 0.599258 65.213 0.958809V11.985C65.213 12.1049 65.213 12.2247 65.0916 12.3446C64.9701 12.4644 64.8487 12.4644 64.7273 12.4644H62.4199C62.177 12.4644 61.9342 12.2247 61.9342 11.985V3.59551C61.9342 3.35581 61.6913 3.11611 61.4484 3.11611H56.8337C57.3195 3.11611 57.8052 3.47566 57.8052 4.07491V11.985C57.8052 12.1049 57.8052 12.2247 57.6838 12.3446C57.5623 12.4644 57.5623 12.4644 57.3195 12.4644H55.0121C54.7692 12.4644 54.5264 12.3446 54.5264 11.985V1.91761C54.5264 1.55806 54.6478 1.07866 55.0121 0.838959C55.1336 0.719109 55.255 0.599258 55.4979 0.479408C55.7408 0.359558 55.8622 0.359558 56.1051 0.359558H64.7273V0.479408Z" fill="black"/>
<path d="M67.1562 7.91012C67.1562 7.55057 67.1562 7.07117 67.1562 6.47192C67.1562 5.75282 67.1562 5.27342 67.1562 5.03372C67.2777 1.91761 69.4636 0.359558 72.4996 0.359558C75.5356 0.359558 77.7215 1.91761 77.8429 5.03372C77.8429 5.75282 77.8429 6.23222 77.8429 6.47192C77.8429 8.26967 77.8429 10.0674 76.2642 11.3858C75.2927 12.2247 74.0783 12.5843 72.3781 12.5843C69.4636 12.5843 67.2777 11.1461 67.1562 7.91012ZM74.564 7.79027C74.564 7.07117 74.564 6.71162 74.564 6.35207C74.564 6.11237 74.564 5.63297 74.564 4.91387C74.564 3.59551 73.9569 2.75656 72.4996 2.75656C71.0423 2.75656 70.5566 3.59551 70.4351 4.91387C70.4351 5.27342 70.4351 5.75282 70.4351 6.35207C70.4351 6.95132 70.4351 7.43072 70.4351 7.79027C70.4351 9.10862 71.0423 9.94757 72.4996 9.94757C73.9569 10.0674 74.564 9.10862 74.564 7.79027Z" fill="black"/>
<path d="M86.2221 6.83143L86.4649 7.07113L90.1081 11.7453C90.1081 11.7453 90.2296 11.8651 90.2296 11.985C90.2296 12.1048 90.2296 12.1048 90.1081 12.2247C89.9867 12.3445 89.9867 12.3445 89.8652 12.3445H87.1936C86.9507 12.3445 86.7078 12.2247 86.4649 11.985C85.9792 11.2659 85.372 10.6666 85.0077 10.0674C84.7648 9.70783 84.5219 9.46813 84.4005 9.22843C84.279 8.98873 84.0362 8.86888 83.9147 8.62918C83.7933 8.50933 83.6718 8.26963 83.5504 8.14978C83.429 8.02993 83.429 7.91008 83.3075 7.91008H83.1861C83.0646 7.91008 83.0646 7.91008 83.0646 8.02993V11.985C83.0646 12.1048 83.0646 12.2247 82.9432 12.2247C82.8218 12.3445 82.7003 12.3445 82.5789 12.3445H80.2715C80.1501 12.3445 80.0287 12.3445 80.0287 12.2247C79.9072 12.1048 79.9072 12.1048 79.9072 11.985V1.91757C79.9072 1.07862 80.5144 0.47937 81.3645 0.47937H82.5789C82.8218 0.47937 83.0646 0.59922 83.0646 0.958771V4.43443C83.0646 4.43443 83.0646 4.55428 83.1861 4.55428L86.1006 0.958771C86.2221 0.71907 86.4649 0.59922 86.8293 0.59922H89.5009C89.6224 0.59922 89.6224 0.59922 89.7438 0.71907C89.8652 0.838921 89.8652 0.838921 89.8652 0.958771C89.8652 1.07862 89.8652 1.19847 89.7438 1.19847C89.1366 1.91757 88.6509 2.63667 88.1651 3.23592C87.8008 3.71532 87.4365 4.19473 87.0721 4.67413C86.9507 4.91383 86.8293 5.03368 86.7078 5.15353C86.5864 5.27338 86.5864 5.39323 86.5864 5.39323C86.5864 5.39323 86.4649 5.51308 86.4649 5.63293C86.2221 5.99248 85.4934 6.35203 84.8862 6.35203C85.2506 6.11233 85.8577 6.47188 86.2221 6.83143Z" fill="black"/>
<path d="M91.0791 7.91012C91.0791 7.55057 91.0791 7.07117 91.0791 6.47192C91.0791 5.75282 91.0791 5.27342 91.0791 5.03372C91.2005 1.91761 93.3865 0.359558 96.4224 0.359558C99.4584 0.359558 101.644 1.91761 101.766 5.03372C101.766 5.75282 101.766 6.23222 101.766 6.47192C101.766 8.26967 101.766 10.0674 100.187 11.3858C99.2155 12.2247 98.0012 12.5843 96.301 12.5843C93.3865 12.5843 91.2005 11.1461 91.0791 7.91012ZM98.4869 7.79027C98.4869 7.07117 98.4869 6.71162 98.4869 6.35207C98.4869 6.11237 98.4869 5.63297 98.4869 4.91387C98.4869 3.59551 97.8797 2.75656 96.4224 2.75656C94.9652 2.75656 94.4794 3.59551 94.358 4.91387C94.358 5.27342 94.358 5.75282 94.358 6.35207C94.358 6.95132 94.358 7.43072 94.358 7.79027C94.358 9.10862 94.9652 9.94757 96.4224 9.94757C97.8797 10.0674 98.3655 9.10862 98.4869 7.79027Z" fill="black"/>
<path d="M114.031 11.985C114.031 12.1049 114.031 12.2247 113.91 12.3446C113.788 12.4644 113.667 12.4644 113.545 12.4644H111.238C110.995 12.4644 110.752 12.2247 110.752 11.985V2.99626H109.052C107.595 2.99626 106.866 3.71536 106.866 5.15357C106.866 5.27342 106.866 5.51312 106.866 5.75282V11.985C106.866 12.1049 106.866 12.2247 106.745 12.3446C106.623 12.4644 106.502 12.4644 106.38 12.4644H103.952C103.709 12.4644 103.466 12.2247 103.466 11.985V5.63297C103.466 5.39327 103.466 5.27342 103.466 5.03372C103.587 1.79776 105.895 0.359558 108.931 0.359558H112.452C113.302 0.359558 113.91 1.07866 113.91 1.79776V11.985H114.031Z" fill="black"/>
<path d="M116.461 1.91757C116.461 1.07862 117.068 0.47937 117.918 0.47937H124.962C125.205 0.47937 125.447 0.59922 125.447 0.958771V2.63667C125.447 2.75652 125.447 2.87637 125.326 2.87637C125.205 2.99622 125.083 2.99622 124.962 2.99622H118.647C119.133 2.99622 119.618 3.35577 119.618 3.95503V4.67413C119.618 4.91383 119.861 5.15353 120.104 5.15353H123.869C124.112 5.15353 124.354 5.27338 124.354 5.63293V7.19098C124.354 7.43068 124.112 7.67038 123.869 7.67038H118.647C119.133 7.67038 119.618 8.02993 119.618 8.50933V9.34828C119.618 9.58798 119.861 9.82768 120.104 9.82768H125.205C125.447 9.82768 125.69 9.94754 125.69 10.3071V11.985C125.69 12.1048 125.69 12.2247 125.569 12.3445C125.447 12.4644 125.326 12.4644 125.205 12.4644H116.947C116.704 12.4644 116.461 12.2247 116.461 11.985V1.91757Z" fill="black"/>
<path d="M127.512 2.03745C127.512 1.19849 128.24 0.599243 128.969 0.599243H130.305C130.548 0.599243 130.791 0.719093 130.791 1.07864V5.0337C130.791 5.2734 130.912 5.39325 131.033 5.39325C131.155 5.5131 131.276 5.5131 131.398 5.5131C132.612 5.5131 133.462 5.39325 134.555 4.91385C134.798 4.794 134.92 4.67415 134.92 4.43445V2.03745C134.92 1.19849 135.648 0.599243 136.377 0.599243H137.713C137.955 0.599243 138.198 0.719093 138.198 1.07864V11.985C138.198 12.1049 138.198 12.2247 138.077 12.3446C137.955 12.4644 137.834 12.4644 137.713 12.4644H135.405C135.162 12.4644 134.92 12.2247 134.92 11.985V7.9101C134.92 7.79025 134.92 7.6704 134.798 7.55055C134.677 7.4307 134.555 7.4307 134.434 7.4307H134.312C133.219 7.6704 132.248 7.79025 131.155 7.79025C130.912 7.79025 130.669 7.79025 130.548 7.79025H129.941C130.183 7.79025 130.426 7.9101 130.548 8.02995C130.669 8.1498 130.791 8.3895 130.791 8.6292V11.985C130.791 12.1049 130.791 12.2247 130.669 12.3446C130.548 12.4644 130.426 12.4644 130.305 12.4644H127.997C127.755 12.4644 127.512 12.3446 127.512 11.985V2.03745Z" fill="black"/>
<path d="M150.463 0.958771V11.985C150.463 12.1048 150.463 12.2247 150.342 12.3445C150.22 12.4644 150.099 12.4644 149.978 12.4644H147.792C147.549 12.4644 147.306 12.2247 147.306 11.985V5.99248C147.184 5.99248 147.063 6.11233 146.942 6.35203C146.82 6.59173 146.699 6.71158 146.456 7.07113C146.334 7.31083 146.091 7.55053 145.849 7.91008C145.606 8.26963 145.363 8.62918 145.12 9.10858C144.634 9.94753 144.027 10.9063 143.298 11.985C143.055 12.3445 142.813 12.4644 142.327 12.4644H140.87C140.627 12.4644 140.384 12.2247 140.384 11.985V1.91757C140.384 1.07862 141.112 0.47937 141.841 0.47937H143.055H143.177C143.42 0.47937 143.541 0.71907 143.541 0.838921V6.47188C143.541 6.47188 143.541 6.59173 143.663 6.59173L143.906 6.23218L144.877 4.79398C145.12 4.43443 145.363 4.07488 145.727 3.59547C146.213 2.87637 146.699 2.15727 147.306 1.31832L147.427 1.07862C147.67 0.71907 147.913 0.59922 148.399 0.59922H150.099C150.22 0.59922 150.342 0.59922 150.463 0.719071C150.463 0.719071 150.463 0.838921 150.463 0.958771Z" fill="black"/>
<path d="M152.893 1.91757C152.893 1.07862 153.5 0.47937 154.35 0.47937H161.393C161.636 0.47937 161.879 0.59922 161.879 0.958771V2.63667C161.879 2.75652 161.879 2.87637 161.758 2.87637C161.636 2.99622 161.515 2.99622 161.393 2.99622H155.078C155.564 2.99622 156.05 3.35577 156.05 3.95503V4.67413C156.05 4.91383 156.293 5.15353 156.536 5.15353H160.3C160.543 5.15353 160.786 5.27338 160.786 5.63293V7.19098C160.786 7.43068 160.543 7.67038 160.3 7.67038H155.078C155.564 7.67038 156.05 8.02993 156.05 8.50933V9.34828C156.05 9.58798 156.293 9.82768 156.536 9.82768H161.636C161.879 9.82768 162.122 9.94754 162.122 10.3071V11.985C162.122 12.1048 162.122 12.2247 162.001 12.3445C161.879 12.4644 161.758 12.4644 161.636 12.4644H153.378C153.135 12.4644 152.893 12.2247 152.893 11.985V1.91757Z" fill="black"/>
<path d="M59.9908 27.5656H58.5335C58.2906 27.5656 58.0478 27.8053 58.0478 28.045V31.1611C58.0478 31.4008 57.8049 31.6405 57.562 31.6405H55.1332C54.8903 31.6405 54.6475 31.4008 54.6475 31.1611V21.2135C54.6475 20.4944 55.0118 20.015 55.619 19.7753C55.7404 19.7753 55.9833 19.6555 56.1047 19.6555H59.8694C62.541 19.6555 64.6055 20.7341 64.6055 23.6105C64.8484 26.6068 62.541 27.5656 59.9908 27.5656ZM59.9908 22.1723H57.0762C57.1977 22.1723 57.3191 22.1723 57.4406 22.1723C57.562 22.1723 57.6834 22.2922 57.8049 22.412C58.0478 22.6517 58.1692 22.7716 58.1692 23.1311V24.5693C58.1692 24.6892 58.1692 24.809 58.2906 24.9289C58.4121 25.0487 58.5335 25.0487 58.655 25.0487H60.1122C61.0837 25.0487 61.5695 24.5693 61.5695 23.6105C61.4481 22.6517 60.9623 22.1723 59.9908 22.1723Z" fill="black"/>
<path d="M69.4635 28.1648C69.4635 27.8053 69.3421 27.4457 69.2207 27.0862L65.4561 20.2547C65.4561 20.2547 65.4561 20.1349 65.4561 20.015C65.4561 19.7753 65.5775 19.6555 65.8204 19.6555H68.1277C68.2492 19.6555 68.3706 19.6555 68.492 19.7753C68.6135 19.8952 68.7349 19.8952 68.7349 20.015C69.0992 20.7341 69.585 21.4532 69.8279 22.0525C70.0707 22.412 70.1922 22.6517 70.3136 22.8914C70.4351 23.1311 70.5565 23.251 70.6779 23.4907C70.7994 23.7304 70.7994 23.8502 70.9208 23.9701C71.0423 24.0899 71.0423 24.2098 71.0423 24.2098C71.1637 24.2098 71.2851 24.0899 71.2851 23.9701C71.4066 23.8502 71.4066 23.7304 71.528 23.4907C71.6495 23.251 71.7709 23.1311 71.8923 22.7716L72.2567 22.0525C72.621 21.4532 72.9853 20.7341 73.3496 20.015C73.471 19.7753 73.7139 19.6555 73.9568 19.6555H76.2641C76.3856 19.6555 76.3856 19.6555 76.507 19.7753C76.6285 19.8952 76.6285 19.8952 76.6285 20.015C76.6285 20.1349 76.6285 20.1349 76.6285 20.2547C75.8998 21.4532 75.2926 22.5319 74.8069 23.6105C74.3211 24.4495 73.9568 25.1686 73.471 26.0075C73.3496 26.3671 73.2282 26.6068 73.1067 26.7266C72.9853 26.9663 72.8638 27.0862 72.8638 27.0862C72.7424 27.206 72.7424 27.4457 72.7424 27.5656C72.7424 27.8053 72.621 27.9251 72.621 28.045V31.1611C72.621 31.2809 72.621 31.4008 72.4995 31.5206C72.3781 31.6405 72.2567 31.6405 72.1352 31.6405H69.8279C69.585 31.6405 69.3421 31.5206 69.3421 31.1611V28.1648H69.4635Z" fill="black"/>
<path d="M87.1934 19.7753C87.4363 19.7753 87.6791 19.8951 87.6791 20.2547V22.1723C87.6791 22.2921 87.6791 22.412 87.5577 22.5318C87.4363 22.6517 87.3148 22.6517 87.1934 22.6517H83.1859C83.6716 22.6517 84.1574 23.0112 84.1574 23.4906V31.161C84.1574 31.2809 84.1574 31.4007 84.036 31.5206C83.9145 31.6404 83.7931 31.6404 83.6716 31.6404H81.2429C81 31.6404 80.7571 31.4007 80.7571 31.161V23.0112C80.7571 22.8914 80.7571 22.7715 80.6357 22.6517C80.5142 22.5318 80.3928 22.5318 80.2713 22.5318H77.7211C77.5997 22.5318 77.4782 22.5318 77.3568 22.412C77.2354 22.2921 77.2354 22.2921 77.2354 22.0524V21.2135C77.2354 20.3745 77.8426 19.7753 78.6926 19.7753H87.1934Z" fill="black"/>
<path d="M89.1367 21.2135C89.1367 20.3745 89.8653 19.7753 90.594 19.7753H91.9298C92.1727 19.7753 92.4156 19.8951 92.4156 20.2547V24.2097C92.4156 24.4494 92.537 24.5693 92.6585 24.5693C92.7799 24.6891 92.9013 24.6891 93.0228 24.6891C94.2372 24.6891 95.0872 24.5693 96.1802 24.0899C96.4231 23.97 96.5445 23.8502 96.5445 23.6105V21.3333C96.5445 20.9738 96.6659 20.4944 97.0303 20.2547C97.2731 20.015 97.6375 19.8951 98.0018 19.8951H99.3376C99.5805 19.8951 99.8234 20.015 99.8234 20.3745V31.4007C99.8234 31.5206 99.8234 31.6404 99.7019 31.7603C99.5805 31.8801 99.459 31.8801 99.3376 31.8801H97.0303C96.7874 31.8801 96.5445 31.6404 96.5445 31.4007V27.3258C96.5445 27.206 96.5445 27.0861 96.4231 26.9663C96.3016 26.8464 96.1802 26.8464 96.0587 26.8464C95.9373 26.8464 95.9373 26.8464 95.9373 26.8464C94.8444 27.0861 93.7514 27.206 92.7799 27.206C92.537 27.206 92.2941 27.206 92.1727 27.206C92.0513 27.206 91.9298 27.206 91.8084 27.206C92.2941 27.3258 92.537 27.6854 92.537 28.0449V31.2809C92.537 31.4007 92.537 31.5206 92.4156 31.6404C92.2941 31.7603 92.1727 31.7603 92.0513 31.7603H89.7439C89.501 31.7603 89.2582 31.6404 89.2582 31.2809V21.2135H89.1367Z" fill="black"/>
<path d="M101.767 27.206C101.767 26.8465 101.767 26.3671 101.767 25.7678C101.767 25.0487 101.767 24.5693 101.767 24.3296C101.888 21.2135 104.074 19.6555 107.11 19.6555C110.146 19.6555 112.332 21.2135 112.453 24.3296C112.453 25.0487 112.453 25.5281 112.453 25.7678C112.453 27.5656 112.453 29.3633 110.875 30.6817C109.903 31.5206 108.689 31.8802 106.988 31.8802C103.953 31.8802 101.767 30.442 101.767 27.206ZM109.053 27.0862C109.053 26.3671 109.053 26.0075 109.053 25.648C109.053 25.2884 109.053 24.9289 109.053 24.2098C109.053 22.8914 108.446 22.0525 106.988 22.0525C105.531 22.0525 105.045 22.8914 104.924 24.2098C104.924 24.5693 104.924 25.0487 104.924 25.648C104.924 26.2472 104.924 26.7266 104.924 27.0862C104.924 28.4045 105.531 29.2435 106.988 29.2435C108.446 29.2435 109.053 28.4045 109.053 27.0862Z" fill="black"/>
<path d="M114.517 21.2135C114.517 20.3745 115.246 19.7753 115.974 19.7753H116.581C117.067 19.7753 117.31 19.8951 117.553 20.2547C118.282 21.3333 118.889 22.2921 119.375 23.1311C119.739 23.6105 119.982 24.0899 120.225 24.3296C120.589 24.809 120.832 25.2884 121.196 25.8876C121.318 26.1273 121.439 26.1273 121.439 26.2472H121.56C121.682 26.2472 121.682 26.2472 121.682 26.2472V21.3333C121.682 20.7341 122.046 20.2547 122.653 19.8951C122.896 19.7753 123.018 19.7753 123.261 19.7753H124.354C124.475 19.7753 124.596 19.7753 124.596 19.8951C124.718 20.015 124.718 20.1348 124.718 20.2547V31.161C124.718 31.2809 124.718 31.4007 124.596 31.5206C124.475 31.6404 124.475 31.6404 124.354 31.6404H122.411C122.168 31.6404 121.925 31.5206 121.803 31.2809C121.075 30.2022 120.467 29.2434 119.982 28.5243C119.496 27.8052 119.01 27.206 118.646 26.4869C118.524 26.2472 118.282 26.0075 118.16 25.8876C118.039 25.7678 117.917 25.6479 117.917 25.5281H117.796L117.553 31.161C117.553 31.2809 117.553 31.4007 117.431 31.5206C117.31 31.6404 117.189 31.6404 117.067 31.6404H114.881C114.638 31.6404 114.396 31.4007 114.396 31.161V21.2135H114.517Z" fill="black"/>
<path d="M29.388 3.95505C28.6594 2.51685 27.3235 1.55804 25.6234 1.55804C25.1376 1.55804 24.6519 1.67789 24.1661 1.79774C23.9232 1.9176 23.6804 2.03745 23.6804 2.03745C21.0087 3.8352 18.9442 6.9513 17.6084 10.1873V20.9738V21.573V24.809C17.6084 26.367 18.4585 26.9663 19.3085 26.4869C19.5514 26.367 19.9157 25.8876 20.1586 25.4082C20.2801 25.0487 20.5229 24.2097 20.6444 23.3708C20.6444 23.3708 23.9232 9.94756 29.6309 6.11235L29.7523 5.9925V5.87265V5.39325C29.7523 4.67415 29.5094 4.0749 29.388 3.95505Z" fill="#F6A011"/>
<path d="M43.839 26.367C41.7745 26.367 39.953 25.0486 39.3458 23.2509C39.3458 23.2509 39.3458 23.131 39.2243 23.131C39.1029 22.6516 38.9814 22.1722 38.9814 21.6928L39.1029 9.34828C39.1029 4.19472 34.9739 0.119812 29.7521 0.119812C29.7521 0.119812 27.9305 0.119812 26.2303 0.599213C24.773 1.07861 23.5587 2.03741 23.1943 2.39697C23.923 1.91756 24.773 1.55801 25.6231 1.55801C27.3233 1.55801 28.6591 2.51682 29.3877 3.95502C29.5092 4.07487 29.7521 4.67412 29.7521 5.39322L29.6306 22.7715C29.6306 26.9663 32.3023 30.4419 36.1883 31.6404C36.917 31.8801 37.6456 32 38.4957 32C38.6171 32 38.86 32 38.9814 32C40.9245 32 42.7461 31.4007 44.0819 30.3221C44.6891 29.9625 45.1749 29.4831 45.5392 29.0037C46.6321 27.8052 47.3608 26.367 47.6036 24.6891C46.7536 25.7678 45.4177 26.4869 43.839 26.367Z" fill="#315FAB"/>
<path d="M20.1589 25.0487C19.916 25.5281 19.6732 26.0075 19.4303 26.1273C18.5802 26.4869 17.7301 26.0075 17.7301 24.4494V21.6929V20.6142V19.8951L17.8516 8.02996C17.8516 4.19476 15.1799 0.958802 11.5367 0.2397C11.051 0.11985 10.4438 0 9.95802 0C9.5937 0 9.22939 0 8.86507 0C8.74363 0 8.25787 0 8.13643 0C3.64318 0.2397 0 3.83521 0 8.38951C0 10.6667 1.82159 12.5843 4.25038 12.5843C6.55772 12.5843 8.50075 10.6667 8.50075 8.38951V8.62921C8.50075 8.62921 8.50075 8.50936 8.50075 8.38951C8.50075 8.26966 8.50075 8.26966 8.50075 8.14981V7.67041C8.62219 8.26966 8.74363 8.86891 8.74363 9.58801C8.74363 9.70786 8.50075 16.6592 8.37931 17.8577V25.7678V25.8876V26.0075C8.37931 27.5655 8.98651 29.0037 9.95802 29.9625L10.0795 30.0824C11.1724 31.161 12.6297 31.7603 14.2084 31.7603C15.3014 31.7603 16.3943 31.5206 17.2444 30.9213C17.2444 30.9213 17.3658 30.9213 17.3658 30.8015C18.9445 29.8427 20.0375 28.1648 20.1589 26.2472C20.1589 26.1273 20.5232 23.3708 20.5232 23.3708C20.5232 23.3708 20.5232 24.2097 20.1589 25.0487Z" fill="#315FAB"/>
<path d="M6.07147 8.02998C6.67509 8.02998 7.16442 7.54705 7.16442 6.95133C7.16442 6.35561 6.67509 5.87268 6.07147 5.87268C5.46785 5.87268 4.97852 6.35561 4.97852 6.95133C4.97852 7.54705 5.46785 8.02998 6.07147 8.02998Z" fill="#F6A011"/>
<path d="M2.79315 8.02998C3.39677 8.02998 3.8861 7.54705 3.8861 6.95133C3.8861 6.35561 3.39677 5.87268 2.79315 5.87268C2.18953 5.87268 1.7002 6.35561 1.7002 6.95133C1.7002 7.54705 2.18953 8.02998 2.79315 8.02998Z" fill="#F6A011"/>
</g>
<defs>
<clipPath id="clip0">
<rect width="162" height="32" fill="white"/>
</clipPath>
</defs>
</svg>
