<svg xmlns="http://www.w3.org/2000/svg" width="162" height="32" fill="none" ><g clip-path="url(#A)"><g fill="#000"><path d="M64.727.479c.243 0 .486.12.486.479v11.026c0 .12 0 .24-.121.36s-.243.12-.364.12H62.42a.52.52 0 0 1-.486-.479v-8.39a.52.52 0 0 0-.486-.479h-4.615c.486 0 .971.36.971.959v7.91c0 .12 0 .24-.121.36s-.121.12-.364.12h-2.307c-.243 0-.486-.12-.486-.479V1.918c0-.36.121-.839.486-1.079.122-.12.243-.24.486-.36s.364-.12.607-.12h8.622v.12zm2.429 7.431V5.034C67.278 1.918 69.464.359 72.5.359s5.222 1.558 5.343 4.674v1.438c0 1.798 0 3.596-1.579 4.914-.972.839-2.186 1.198-3.886 1.198-2.915 0-5.1-1.438-5.222-4.674zm7.408-.12V4.914c0-1.318-.607-2.157-2.064-2.157s-1.943.839-2.064 2.157V7.79c0 1.318.607 2.157 2.064 2.157 1.457.12 2.064-.839 2.064-2.157zm11.658-.959l.243.24 3.643 4.674s.122.12.122.24 0 .12-.122.24-.121.12-.243.12h-2.672c-.243 0-.486-.12-.729-.36-.486-.719-1.093-1.318-1.457-1.918-.243-.36-.486-.599-.607-.839s-.364-.36-.486-.599c-.121-.12-.243-.36-.364-.479s-.121-.24-.243-.24h-.121c-.121 0-.121 0-.121.12v3.955c0 .12 0 .24-.121.24-.121.12-.243.12-.364.12h-2.307c-.121 0-.243 0-.243-.12-.121-.12-.121-.12-.121-.24V1.918A1.39 1.39 0 0 1 81.365.479h1.214c.243 0 .486.12.486.479v3.476s0 .12.121.12L86.101.959c.121-.24.364-.36.729-.36h2.672c.121 0 .121 0 .243.12s.121.12.121.24 0 .24-.121.24l-1.579 2.037-1.093 1.438c-.121.24-.243.36-.364.479s-.121.24-.121.24-.121.12-.121.24c-.243.36-.972.719-1.579.719.364-.24.971.12 1.336.479zm4.857 1.079V5.034C91.2 1.918 93.386.36 96.422.36s5.222 1.558 5.344 4.674v1.438c0 1.798 0 3.596-1.579 4.914-.971.839-2.186 1.198-3.886 1.198-2.915 0-5.1-1.438-5.222-4.674zm7.408-.12V4.914c0-1.318-.607-2.157-2.065-2.157s-1.943.839-2.064 2.157V7.79c0 1.318.607 2.157 2.064 2.157 1.457.12 1.943-.839 2.065-2.157zm15.544 4.195c0 .12 0 .24-.121.36s-.243.12-.365.12h-2.307a.52.52 0 0 1-.486-.479v-8.99h-1.7c-1.457 0-2.186.719-2.186 2.157v6.831c0 .12 0 .24-.121.36s-.243.12-.365.12h-2.428a.52.52 0 0 1-.486-.479V5.034c.121-3.236 2.429-4.674 5.465-4.674h3.521a1.47 1.47 0 0 1 1.458 1.438v10.187h.121zm2.43-10.067A1.39 1.39 0 0 1 117.918.48h7.044c.243 0 .485.12.485.479v1.678c0 .12 0 .24-.121.24-.121.12-.243.12-.364.12h-6.315c.486 0 .971.36.971.959v.719a.52.52 0 0 0 .486.479h3.765c.243 0 .485.12.485.479v1.558a.52.52 0 0 1-.485.479h-5.222c.486 0 .971.36.971.839v.839a.52.52 0 0 0 .486.479h5.101c.242 0 .485.12.485.479v1.678c0 .12 0 .24-.121.36s-.243.12-.364.12h-8.258a.52.52 0 0 1-.486-.479V1.918zm11.051.119c0-.839.728-1.438 1.457-1.438h1.336c.243 0 .486.12.486.479v3.955c0 .24.121.36.242.36.122.12.243.12.365.12 1.214 0 2.064-.12 3.157-.599.243-.12.365-.24.365-.479V2.037c0-.839.728-1.438 1.457-1.438h1.336c.242 0 .485.12.485.479v10.906c0 .12 0 .24-.121.36s-.243.12-.364.12h-2.308a.52.52 0 0 1-.485-.479V7.91c0-.12 0-.24-.122-.36s-.243-.12-.364-.12h-.122c-1.093.24-2.064.36-3.157.36h-1.214c.242 0 .485.12.607.24a.91.91 0 0 1 .243.599v3.356c0 .12 0 .24-.122.36s-.243.12-.364.12h-2.308c-.242 0-.485-.12-.485-.479V2.037zM150.463.959v11.026c0 .12 0 .24-.121.36s-.243.12-.364.12h-2.186a.52.52 0 0 1-.486-.479V5.992c-.122 0-.243.12-.364.36s-.243.36-.486.719c-.122.24-.365.479-.607.839l-.729 1.199-1.822 2.876c-.243.36-.485.479-.971.479h-1.457a.52.52 0 0 1-.486-.479V1.918c0-.839.728-1.438 1.457-1.438h1.336c.243 0 .364.24.364.36v5.633s0 .12.122.12l1.214-1.798.85-1.199 1.579-2.277.121-.24c.243-.36.486-.479.972-.479h1.7c.121 0 .243 0 .364.12v.24zm2.43.959A1.39 1.39 0 0 1 154.35.479h7.043c.243 0 .486.12.486.479v1.678c0 .12 0 .24-.121.24-.122.12-.243.12-.365.12h-6.315c.486 0 .972.36.972.959v.719a.52.52 0 0 0 .486.479h3.764c.243 0 .486.12.486.479V7.19a.52.52 0 0 1-.486.479h-5.222c.486 0 .972.36.972.839v.839a.52.52 0 0 0 .486.479h5.1c.243 0 .486.12.486.479v1.678c0 .12 0 .24-.121.36s-.243.12-.365.12h-8.258a.52.52 0 0 1-.485-.479V1.918zM59.991 27.566h-1.457a.52.52 0 0 0-.486.479v3.116a.52.52 0 0 1-.486.479h-2.429a.52.52 0 0 1-.486-.479v-9.948c0-.719.364-1.198.971-1.438.121 0 .364-.12.486-.12h3.765c2.672 0 4.736 1.079 4.736 3.955.243 2.996-2.065 3.955-4.615 3.955zm0-5.393h-2.55c.121 0 .243.12.364.24.243.24.364.36.364.719v1.438c0 .12 0 .24.121.36s.243.12.364.12h1.457c.971 0 1.457-.479 1.457-1.438-.121-.959-.607-1.438-1.579-1.438zm9.473 5.992c0-.36-.121-.719-.243-1.079l-3.765-6.831v-.24c0-.24.121-.36.364-.36h2.307c.121 0 .243 0 .364.12s.243.12.243.24l1.093 2.037a6.86 6.86 0 0 1 .486.839c.122.24.243.36.364.599s.122.36.243.479.121.24.121.24a.26.26 0 0 0 .243-.24c.121-.12.121-.24.243-.479s.243-.36.364-.719l.364-.719c.364-.599.729-1.318 1.093-2.037.121-.24.364-.36.607-.36h2.307c.121 0 .121 0 .243.12s.121.12.121.24v.24l-1.822 3.356-1.336 2.397c-.121.36-.243.599-.364.719-.121.24-.243.359-.243.359-.121.12-.121.36-.121.479 0 .24-.121.36-.121.479v3.116c0 .12 0 .24-.121.36s-.243.12-.364.12h-2.307c-.243 0-.486-.12-.486-.479v-2.996h.121zm17.729-8.39c.243 0 .486.12.486.479v1.918c0 .12 0 .24-.121.36s-.243.12-.364.12h-4.007c.486 0 .971.359.971.839v7.67c0 .12 0 .24-.121.36s-.243.12-.364.12h-2.429a.52.52 0 0 1-.486-.479v-8.15c0-.12 0-.24-.121-.359s-.243-.12-.364-.12h-2.55c-.121 0-.243 0-.364-.12s-.121-.12-.121-.36v-.839a1.39 1.39 0 0 1 1.457-1.438h8.501zm1.944 1.439c0-.839.729-1.438 1.457-1.438h1.336c.243 0 .486.12.486.479v3.955c0 .24.121.36.243.36.121.12.243.12.364.12 1.214 0 2.064-.12 3.157-.599.243-.12.364-.24.364-.479v-2.277c0-.36.121-.839.486-1.079.243-.24.607-.36.972-.36h1.336c.243 0 .486.12.486.479v11.026c0 .12 0 .24-.122.36s-.243.12-.364.12H97.03a.52.52 0 0 1-.486-.479v-4.075c0-.12 0-.24-.121-.36s-.243-.12-.364-.12h-.121c-1.093.24-2.186.36-3.157.36h-.971c.486.12.729.479.729.839v3.236c0 .12 0 .24-.121.36s-.243.12-.364.12h-2.307c-.243 0-.486-.12-.486-.479V21.214h-.121zm12.63 5.992V24.33c.121-3.116 2.307-4.674 5.343-4.674s5.222 1.558 5.343 4.674v1.438c0 1.798 0 3.595-1.578 4.914-.972.839-2.186 1.198-3.887 1.198-3.035 0-5.221-1.438-5.221-4.674zm7.286-.12V24.21c0-1.318-.607-2.157-2.065-2.157s-1.943.839-2.064 2.157v2.876c0 1.318.607 2.157 2.064 2.157s2.065-.839 2.065-2.157zm5.464-5.872c0-.839.729-1.438 1.457-1.438h.607c.486 0 .729.12.972.479l1.822 2.876c.364.479.607.959.85 1.198.364.479.607.959.971 1.558.122.24.243.24.243.36h.243v-4.914c0-.599.364-1.079.971-1.438.243-.12.365-.12.608-.12h1.093c.121 0 .242 0 .242.12.122.12.122.24.122.36v10.906c0 .12 0 .24-.122.36s-.121.12-.242.12h-1.943a.67.67 0 0 1-.608-.36l-1.821-2.757c-.486-.719-.972-1.318-1.336-2.037-.122-.24-.364-.479-.486-.599s-.243-.24-.243-.36h-.121l-.243 5.633c0 .12 0 .24-.122.36s-.242.12-.364.12h-2.186a.52.52 0 0 1-.485-.479v-9.948h.121z"/></g><path d="M29.388 3.955c-.729-1.438-2.065-2.397-3.765-2.397-.486 0-.971.12-1.457.24l-.486.24c-2.672 1.798-4.736 4.914-6.072 8.15v14.622c0 1.558.85 2.157 1.7 1.678.243-.12.607-.599.85-1.079a12.81 12.81 0 0 0 .486-2.038s3.279-13.423 8.987-17.258l.121-.12v-.599c0-.719-.243-1.318-.364-1.438z" fill="#f6a011"/><g fill="#315fab"><path d="M43.839 26.367c-2.064 0-3.886-1.318-4.493-3.116 0 0 0-.12-.121-.12-.121-.479-.243-.959-.243-1.438l.121-12.345c0-5.154-4.129-9.228-9.351-9.228 0 0-1.822 0-3.522.479-1.457.479-2.672 1.438-3.036 1.798.729-.479 1.579-.839 2.429-.839 1.7 0 3.036.959 3.765 2.397.122.12.364.719.364 1.438l-.121 17.378c0 4.195 2.672 7.67 6.558 8.869.729.24 1.457.36 2.307.36h.486c1.943 0 3.765-.599 5.1-1.678a5.15 5.15 0 0 0 1.457-1.318c1.093-1.198 1.822-2.637 2.064-4.315-.85 1.079-2.186 1.798-3.765 1.678zm-23.68-1.318c-.243.479-.486.959-.729 1.079-.85.36-1.7-.12-1.7-1.678v-4.554l.122-11.865c0-3.835-2.672-7.071-6.315-7.79C11.051.12 10.444 0 9.958 0H8.136C3.643.24 0 3.835 0 8.39c0 2.277 1.822 4.195 4.25 4.195 2.307 0 4.25-1.918 4.25-4.195v.24-.959c.121.599.243 1.198.243 1.918 0 .12-.243 7.071-.364 8.27v8.15c0 1.558.607 2.996 1.579 3.955l.121.12a5.82 5.82 0 0 0 4.129 1.678c1.093 0 2.186-.24 3.036-.839 0 0 .121 0 .121-.12 1.579-.959 2.672-2.637 2.793-4.554 0-.12.364-2.876.364-2.876s0 .839-.364 1.678z"/></g><g fill="#f6a011"><path d="M6.071 8.03c.604 0 1.093-.483 1.093-1.079s-.489-1.079-1.093-1.079-1.093.483-1.093 1.079.489 1.079 1.093 1.079zm-3.278 0c.604 0 1.093-.483 1.093-1.079s-.489-1.079-1.093-1.079S1.7 6.356 1.7 6.951 2.19 8.03 2.793 8.03z"/></g></g><defs><clipPath id="A"><path fill="#fff" d="M0 0h162v32H0z"/></clipPath></defs></svg>
