<svg xmlns="http://www.w3.org/2000/svg" width="35" height="35" fill="none"  stroke="#e62334" stroke-width="1.5" stroke-miterlimit="10" stroke-linecap="round" stroke-linejoin="round"><path d="M17.5 8.645c5.425 0 7.56 1.085 10.78 1.75.665.14 1.12.7 1.12 1.365v5.495m-11.9 8.68c5.425 0 7.56-1.085 10.78-1.75.665-.14 1.12-.7 1.12-1.365v-5.495"/><path d="M29.365 22.295c2.415.07 4.655-1.855 4.655-4.27V16.45c0-2.415-2.275-4.34-4.655-4.27m-3.675 1.715H17.5m8.19 3.43H17.5m8.19 3.43H17.5m0-12.11c-5.425 0-7.56 1.085-10.78 1.75-.665.14-1.12.7-1.12 1.365v5.495m11.9 8.68c-5.425 0-7.56-1.085-10.78-1.75-.665-.14-1.12-.7-1.12-1.365v-5.495"/><path d="M5.635 22.295c-2.415.07-4.69-1.855-4.69-4.27V16.45c0-2.415 2.275-4.34 4.655-4.27m3.711 1.715h8.19m-8.19 3.43h8.19m-8.19 3.43h8.19"/></svg>
