<svg xmlns:xlink="http://www.w3.org/1999/xlink" width="35" height="35" fill="none"><g stroke="#e62334" stroke-width="1.5" stroke-miterlimit="10" stroke-linecap="round" stroke-linejoin="round"><path d="M17.465.84h3.885a.33.33 0 0 1 .35.35v2.52a.33.33 0 0 1-.35.35h-3.885m2.591.035l3.255 3.535c.595.63.91 1.505.91 2.38v.28c0 .77-.63 1.4-1.4 1.4h-5.145"/><use xlink:href="#B"/><use xlink:href="#B" y="3.325"/><use xlink:href="#B" y="6.65"/><path d="M20.896 21.63h1.96c.77 0 1.4.63 1.4 1.4v9.73c0 .77-.63 1.4-1.4 1.4h-5.18M17.534.84h-3.885a.33.33 0 0 0-.35.35v2.52a.33.33 0 0 0 .35.35h3.885m-2.59.035L11.689 7.63c-.595.63-.91 1.505-.91 2.38v.28c0 .77.63 1.4 1.4 1.4h5.18"/><path d="M17.534 11.69h-5.145c-.91 0-1.645.735-1.645 1.645s.735 1.645 1.645 1.645h5.145m-.07.035h-5.075c-.91 0-1.645.735-1.645 1.645s.735 1.645 1.645 1.645h5.04m.105.035h-5.145c-.91 0-1.645.735-1.645 1.645s.735 1.645 1.645 1.645h5.145"/><path d="M14.104 21.63h-1.96c-.77 0-1.4.63-1.4 1.4v9.73c0 .77.63 1.4 1.4 1.4h5.53"/></g><defs ><path id="B" d="M17.535 11.69h5.04c.91 0 1.645.735 1.645 1.645s-.735 1.645-1.645 1.645h-5.04"/></defs></svg>
