<svg width="50" height="50" fill="none"  stroke="#e62334" stroke-width="2" stroke-miterlimit="10"><path d="M27.951 1.45l20.1 4.85v16.45c0 10.85-5.3 21.05-20.1 25.9m-4.851-1.9c1.45.7 3.05 1.3 4.75 1.85m0-47.15L7.75 6.3v16.45l.1 2.6M19 22.4l6.75 6.55 10.85-11" stroke-linecap="round" stroke-linejoin="round"/><path d="M10.75 45.25a6.25 6.25 0 1 0 0-12.5 6.25 6.25 0 1 0 0 12.5z" stroke-linejoin="round"/><path d="M10.75 28.95v5.4m0 8.85v5.4M1.15 39H6.6m8.3 0h5.45m-2.701-6.85l-2.45 2.45M3.85 32.15l2.5 2.45m11.299 11.3l-2.45-2.45M3.85 45.9l2.5-2.45" stroke-linejoin="round" stroke-linecap="round"/></svg>
