<svg xmlns="http://www.w3.org/2000/svg" width="35" height="35" fill="none" ><style><![CDATA[.B{stroke-linejoin:round}.C{stroke-linecap:round}]]></style><g stroke="#e62334" stroke-width="1.5" stroke-miterlimit="10" class="B"><g class="C"><path d="M17.5 3.01c3.36 0 6.405 2.03 7.7 5.11l3.64 8.785c.175.42.245.84.245 1.295v2.24A11.58 11.58 0 0 1 17.5 32.025"/><path d="M28.699 23.485c.245.035.49.07.77.07a4.29 4.29 0 0 0 4.27-4.27V7.245a4.29 4.29 0 0 0-4.27-4.27c-2.345 0-4.305 1.925-4.305 4.27 0 .595.105 1.155.35 1.645m-8.015-5.88c-3.36 0-6.405 2.03-7.7 5.11l-3.64 8.75c-.175.42-.245.84-.245 1.295v2.24A11.58 11.58 0 0 0 17.499 31.99"/><path d="M6.335 23.485c-.245.035-.49.07-.77.07a4.29 4.29 0 0 1-4.27-4.27V7.245c0-2.345 1.925-4.235 4.27-4.235s4.27 1.89 4.27 4.235c0 .595-.105 1.155-.35 1.645m4.935-.42c1.33-.875 3.605-1.47 6.195-.07m-6.195 4.025c1.33-.875 3.605-1.47 6.195-.07"/></g><path d="M17.501 27.825a6.02 6.02 0 1 0 0-12.04 6.02 6.02 0 1 0 0 12.04z"/><g class="C"><path d="M17.5 19.775V23.8"/><path d="M19.496 21.805h-3.99"/></g></g></svg>
