<svg xmlns="http://www.w3.org/2000/svg" width="35" height="35" fill="none" ><path d="M7.035 10.185l5.355 1.995c.63.245 1.295.315 1.96.245l5.18-.63 9.275-.805c.595-.035 1.12-.315 1.54-.735l2.905-3.01.77 5.18c.07.56-.07 1.155-.42 1.575l-3.36 2.8c-.455.28-.7.805-.7 1.33l.07 1.26c.035.735.595 1.295 1.295 1.4l1.225.14 1.155 3.22-.735 2.275-1.47-1.82c-.35-.42-.875-.63-1.4-.525l-.49.07c-.525.105-.945.455-1.12.91l-.49 1.33-7.175 1.54c-.7.14-1.4-.07-1.89-.56l-2.765-2.8c-.49-.49-1.225-.7-1.89-.49l-2.03.56-1.505-1.89-4.865-.42v1.12l-2.695 2.8-.945-3.71.875-2.31-1.19-.385c-.35-.105-.56-.49-.49-.875L2.8 12.11l3.08-1.82a1.34 1.34 0 0 1 1.155-.105z" stroke="#e62334" stroke-width="1.5" stroke-miterlimit="10" stroke-linejoin="round"/></svg>
