<svg width="35" height="35" fill="none"  stroke="#e62334" stroke-width="1.5" stroke-miterlimit="10" stroke-linejoin="round"><path d="M24.781 4.62c-.21-.595-.98-1.68-2.73-1.68h-11.41V.84h11.41c2.975 0 4.445 1.89 5.075 3.78h-2.345z"/><g stroke-linecap="round"><path d="M17.78 2.94v3.255h1.54a.33.33 0 0 1 .35.35V8.47h1.295a.33.33 0 0 1 .35.35v1.855l1.68 1.68c.735.735 1.12 1.715 1.12 2.73V33.81h-7.49m-1.54-30.87v3.255h-1.54a.33.33 0 0 0-.35.35V8.47H11.9a.33.33 0 0 0-.35.35v1.855l-1.68 1.68c-.735.735-1.12 1.715-1.12 2.73V33.81h7.875"/><path d="M15.086 6.23h2.695m-4.586 2.275h6.475m-4.48 12.46V17.99h2.66v2.975m-2.66 2.66h-2.975v-2.66h2.975m2.66 0h2.975v2.66H17.85m0 0V26.6h-2.66v-2.975"/></g></svg>
