<svg width="50" height="50" fill="none"  stroke="#e62334" stroke-width="1.5" stroke-miterlimit="10"><path d="M13.2 10.35a4.45 4.45 0 0 0 0-8.9 4.45 4.45 0 1 0 0 8.9zm9.001 7.95V4.4a2.85 2.85 0 0 1 2.85-2.85h20.65a2.85 2.85 0 0 1 2.85 2.85v14.7a2.85 2.85 0 0 1-2.85 2.85h-16.9"/><g stroke-linecap="round"><path d="M7.301 19v26.65c0 1.6 1.3 2.95 2.95 2.95 1.6 0 2.95-1.3 2.95-2.95V30.9"/><path d="M19.05 23.25V45.6c0 1.6-1.3 2.95-2.95 2.95-1.6 0-2.95-1.3-2.95-2.95V30.9"/></g><path d="M28.8 21.8a2.91 2.91 0 0 0 1.25-3.95 2.91 2.91 0 0 0-3.95-1.25l-3.7 1.9-3.85-4.1c-.6-.65-1.4-1-2.3-1h-9C4 13.4 1.4 16 1.4 19.25v8.55a2.92 2.92 0 0 0 2.95 2.95A2.92 2.92 0 0 0 7.3 27.8v-4.75m11.751.2l.25.45c.7 1.3 2.3 1.85 3.6 1.15l5.9-3.05"/><path d="M30.15 17.95l9.2-4.6" stroke-linecap="round"/></svg>
