<svg width="35" height="35" fill="none"  stroke="#e62334" stroke-width="1.5" stroke-miterlimit="10"><path d="M9.24 7.245c1.72 0 3.115-1.395 3.115-3.115S10.96 1.015 9.24 1.015 6.125 2.41 6.125 4.13 7.52 7.245 9.24 7.245zm6.301 5.565V3.08c0-1.085.875-1.995 1.995-1.995h14.455c1.085 0 1.995.875 1.995 1.995v10.29c0 1.085-.875 1.995-1.995 1.995h-11.83"/><g stroke-linecap="round"><path d="M5.111 13.3v18.655a2.07 2.07 0 0 0 2.065 2.065 2.07 2.07 0 0 0 2.065-2.065V21.63"/><path d="M13.335 16.275V31.92a2.07 2.07 0 0 1-2.065 2.065 2.07 2.07 0 0 1-2.065-2.065V21.63"/></g><path d="M20.161 15.26c1.015-.525 1.4-1.75.875-2.765s-1.75-1.4-2.765-.875l-2.59 1.33-2.695-2.87c-.42-.455-.98-.7-1.61-.7h-6.3A4.08 4.08 0 0 0 .98 13.475v5.985c0 1.155.91 2.065 2.065 2.065s2.065-.91 2.065-2.065v-3.325m8.226.14l.175.315c.49.91 1.61 1.295 2.52.805l4.13-2.135"/><path d="M21.106 12.565l6.44-3.22" stroke-linecap="round"/></svg>
