<svg xmlns="http://www.w3.org/2000/svg" width="50" height="50" fill="none" ><g stroke="#e62334" stroke-width="2" stroke-miterlimit="10"><path d="M1.551 48.45h47.15" stroke-linecap="round"/><path d="M9.5 48.45V33a1.79 1.79 0 0 1 1.8-1.8h27.65a1.79 1.79 0 0 1 1.8 1.8v15.4M14.352 31.2c0-5.35 4.8-9.7 10.75-9.7s10.75 4.35 10.75 9.7"/><path d="M24.901 21.5c-9.1 0-12.9-19.95 0-19.95s9.05 19.95 0 19.95z"/><path d="M16.551 11.1c2.15 0 6.65-.25 9.7-3.3 0 0 3.8 2.05 6.85 1.65" stroke-linejoin="round"/></g><path d="M25.052 40.55a1.45 1.45 0 1 0 0-2.9 1.45 1.45 0 0 0 0 2.9z" fill="#e62334"/></svg>
