<svg width="35" height="35" fill="none"  stroke="#e62334" stroke-width="1.5" stroke-miterlimit="10" stroke-linecap="round" stroke-linejoin="round"><path d="M15.328 16.87c2.205-.735 4.41-3.29 5.425-4.095 2.205-1.785 6.3-.595 6.755 3.5 0 0 2.275.98 2.695 2.975.35 1.575.105 3.745-1.89 4.76m-2.764-3.535c1.365.7 4.55 3.955 1.54 7.945l1.785 3.745-3.85 1.82-2.59-4.55s-4.55 2.38-7.455-1.26"/><path d="M20.964 25.025c-2.1-.035-4.48 1.89-5.95 3.15-2.625 2.24-9.8-.385-6.86-6.23m10.604-7.315c-.875 1.4.77 3.325.77 3.325m-11.969 7.63c-4.095-.84-4.725-6.93-.35-8.33 0 0-.21-2.135 2.17-3.535 2.52-1.505 4.445-.385 4.445-.385 2.31-2.975 5.18-2.065 6.93-.56m-4.724 8.4c-.98.175-1.89 1.085-2.065 2.24M18.48.91c1.89 2.415-1.505 2.275.28 4.935m-6.721-3.15c2.59 1.645-.665 2.66 1.925 4.55m11.164-4.48c.63 3.01-2.38 1.365-1.925 4.55"/></svg>
