<svg xmlns="http://www.w3.org/2000/svg" width="35" height="35" fill="none"  stroke="#e62334" stroke-width="1.5" stroke-miterlimit="10" stroke-linecap="round" stroke-linejoin="round"><path d="M27.756 17.045v-2.38a1.48 1.48 0 0 1 1.47-1.47 1.48 1.48 0 0 1 1.47 1.47v5.53c0 1.645-.455 4.62-2.905 7.175v4.62m-2.975-14.945v-6.23a1.48 1.48 0 0 1 1.47-1.47 1.48 1.48 0 0 1 1.47 1.47v3.745"/><path d="M21.91 17.045V9.24a1.48 1.48 0 0 1 1.47-1.47 1.48 1.48 0 0 1 1.47 1.47v3.71m-10.815 6.055c.21 2.66 2.835 6.615 5.6 8.33v4.62"/><path d="M14.105 19.425c-.035-.14-.035-.28-.035-.42a1.72 1.72 0 0 1 1.715-1.715c.49 0 .91.21 1.225.525l1.995 2.66v-9.66a1.48 1.48 0 0 1 1.47-1.47 1.48 1.48 0 0 1 1.47 1.47v3.745M8.227 9.835h4.06c1.54 0 2.765-1.26 2.765-2.765V3.01"/><path d="M27.897 28.455h3.36a2.42 2.42 0 0 0 2.415-2.415V5.425a2.42 2.42 0 0 0-2.415-2.415h-16.17l-6.86 6.825v16.17a2.42 2.42 0 0 0 2.415 2.415h8.82M8.226 15.68h-7.14"/><path d="M8.227 20.475h-5.18m1.609-9.59h-3.57"/></svg>
