<svg xmlns:xlink="http://www.w3.org/1999/xlink" width="50" height="50" fill="none"><g stroke="#e62334" stroke-width="2" stroke-miterlimit="10" stroke-linejoin="round"><use xlink:href="#B"/><path d="M19.051 17.75h-14.5c-1.55 0-2.75-1.25-2.75-2.75V9.2c0-1.55 1.25-2.75 2.75-2.75h14.5c1.55 0 2.75 1.25 2.75 2.75v5.75c.05 1.55-1.2 2.8-2.75 2.8zm23.651-.2l-13.4-5.5c-1.4-.6-2.1-2.2-1.5-3.6l2.2-5.3c.6-1.4 2.2-2.1 3.6-1.5l13.4 5.5c1.4.6 2.1 2.2 1.5 3.6l-2.2 5.25c-.55 1.45-2.2 2.1-3.6 1.55z"/><path d="M25.102 14.95V9.2c0-1.55-1.25-2.75-2.75-2.75h-4.75M45.65 40.7V20.5c0-1.55-1.25-2.75-2.75-2.75h-15c-1.55 0-2.75-1.25-2.75-2.75V9.2" stroke-linecap="round"/><use xlink:href="#B" x="23.801"/><path d="M30.301 33.2h-14.5c-1.55 0-2.75-1.25-2.75-2.75v-5.8c0-1.55 1.25-2.75 2.75-2.75h14.5c1.55 0 2.75 1.25 2.75 2.75v5.75c.05 1.55-1.2 2.8-2.75 2.8z"/><g stroke-linecap="round"><path d="M45.652 33.2h-5.8c-1.55 0-2.75-1.25-2.75-2.75v-5.8c0-1.55 1.25-2.75 2.75-2.75h5.75M1.801 33.2h4.3c1.55 0 2.75-1.25 2.75-2.75v-5.8c0-1.55-1.25-2.75-2.75-2.75h-4.3"/><path d="M1.801 13.25v28.7m15.15 6.65h13.95"/></g></g><defs ><path id="B" d="M19.051 48.6h-14.5c-1.55 0-2.75-1.25-2.75-2.75V40.1c0-1.55 1.25-2.75 2.75-2.75h14.5c1.55 0 2.75 1.25 2.75 2.75v5.75c.05 1.55-1.2 2.75-2.75 2.75z"/></defs></svg>
