<svg width="50" height="50" viewBox="0 0 50 50" fill="none" xmlns="http://www.w3.org/2000/svg">
<path d="M19.0498 48.5996H4.5498C2.9998 48.5996 1.7998 47.3496 1.7998 45.8496V40.0996C1.7998 38.5496 3.0498 37.3496 4.5498 37.3496H19.0498C20.5998 37.3496 21.7998 38.5996 21.7998 40.0996V45.8496C21.8498 47.3996 20.5998 48.5996 19.0498 48.5996Z" stroke="#E62334" stroke-width="2" stroke-miterlimit="10" stroke-linecap="round" stroke-linejoin="round"/>
<path d="M19.0498 17.7497H4.5498C2.9998 17.7497 1.7998 16.4997 1.7998 14.9997V9.19971C1.7998 7.64971 3.0498 6.44971 4.5498 6.44971H19.0498C20.5998 6.44971 21.7998 7.69971 21.7998 9.19971V14.9497C21.8498 16.4997 20.5998 17.7497 19.0498 17.7497Z" stroke="#E62334" stroke-width="2" stroke-miterlimit="10" stroke-linecap="round" stroke-linejoin="round"/>
<path d="M42.6997 17.5498L29.2997 12.0498C27.8997 11.4498 27.1997 9.84981 27.7997 8.44981L29.9997 3.14981C30.5997 1.74981 32.1997 1.04981 33.5997 1.64981L46.9997 7.14981C48.3997 7.74981 49.0997 9.34981 48.4997 10.7498L46.2997 15.9998C45.7497 17.4498 44.0997 18.0998 42.6997 17.5498Z" stroke="#E62334" stroke-width="2" stroke-miterlimit="10" stroke-linecap="round" stroke-linejoin="round"/>
<path d="M25.0996 14.9497V9.19971C25.0996 7.64971 23.8496 6.44971 22.3496 6.44971H17.5996" stroke="#E62334" stroke-width="2" stroke-miterlimit="10" stroke-linecap="round" stroke-linejoin="round"/>
<path d="M45.6494 40.6997V20.4997C45.6494 18.9497 44.3994 17.7497 42.8994 17.7497H27.8994C26.3494 17.7497 25.1494 16.4997 25.1494 14.9997V9.19971" stroke="#E62334" stroke-width="2" stroke-miterlimit="10" stroke-linecap="round" stroke-linejoin="round"/>
<path d="M42.8496 48.5996H28.3496C26.7996 48.5996 25.5996 47.3496 25.5996 45.8496V40.0996C25.5996 38.5496 26.8496 37.3496 28.3496 37.3496H42.8496C44.3996 37.3496 45.5996 38.5996 45.5996 40.0996V45.8496C45.6496 47.3996 44.3996 48.5996 42.8496 48.5996Z" stroke="#E62334" stroke-width="2" stroke-miterlimit="10" stroke-linecap="round" stroke-linejoin="round"/>
<path d="M30.2998 33.1999H15.7998C14.2498 33.1999 13.0498 31.9499 13.0498 30.4499V24.6499C13.0498 23.0999 14.2998 21.8999 15.7998 21.8999H30.2998C31.8498 21.8999 33.0498 23.1499 33.0498 24.6499V30.3999C33.0998 31.9499 31.8498 33.1999 30.2998 33.1999Z" stroke="#E62334" stroke-width="2" stroke-miterlimit="10" stroke-linecap="round" stroke-linejoin="round"/>
<path d="M45.6496 33.1999H39.8496C38.2996 33.1999 37.0996 31.9499 37.0996 30.4499V24.6499C37.0996 23.0999 38.3496 21.8999 39.8496 21.8999H45.5996" stroke="#E62334" stroke-width="2" stroke-miterlimit="10" stroke-linecap="round" stroke-linejoin="round"/>
<path d="M1.7998 33.1999H6.0998C7.6498 33.1999 8.8498 31.9499 8.8498 30.4499V24.6499C8.8498 23.0999 7.5998 21.8999 6.0998 21.8999H1.7998" stroke="#E62334" stroke-width="2" stroke-miterlimit="10" stroke-linecap="round" stroke-linejoin="round"/>
<path d="M1.7998 13.25V41.95" stroke="#E62334" stroke-width="2" stroke-miterlimit="10" stroke-linecap="round" stroke-linejoin="round"/>
<path d="M16.9502 48.5996H30.9002" stroke="#E62334" stroke-width="2" stroke-miterlimit="10" stroke-linecap="round" stroke-linejoin="round"/>
</svg>
