<svg xmlns="http://www.w3.org/2000/svg" width="50" height="50" fill="none"  stroke="#e62334" stroke-width="2" stroke-miterlimit="10" stroke-linecap="round" stroke-linejoin="round"><path d="M37.749 36.5l3.95-4.05-.05-8.1c0-4.1 3.15-7.25 6.15-7.25v18.65l-9 8.95v3.1h-10.75v-8.1c0-1.45.55-2.8 1.55-3.85l5.4-5.6a3.17 3.17 0 0 1 4.5-.05c1.2 1.2 1.25 3.2.05 4.4l-4 4.1m-23.3-2.2l-3.95-4.05.05-8.1c0-4.1-3.1-7.25-6.15-7.25v18.65l9 8.95v3.1h10.7v-8.1c0-1.45-.55-2.8-1.55-3.85l-5.35-5.6a3.17 3.17 0 0 0-4.5-.05c-1.2 1.2-1.25 3.2-.05 4.4l4 4.1M25 2.1s9.15 11.05 9.15 16.95-5.35 9-9.15 9M25 2.1s-9.15 11.05-9.15 16.95 5.35 9 9.15 9"/></svg>
