<svg width="50" height="50" viewBox="0 0 50 50" fill="none" xmlns="http://www.w3.org/2000/svg">
<path d="M40.2 13.6499H3.19995C2.34995 13.6499 1.69995 12.9999 1.69995 12.1499V3.1499C1.69995 2.2999 2.34995 1.6499 3.19995 1.6499H40.25C41.1 1.6499 41.75 2.2999 41.75 3.1499V12.1999C41.7 12.9999 41.05 13.6499 40.2 13.6499Z" stroke="#E62334" stroke-width="1.5" stroke-miterlimit="10" stroke-linecap="round" stroke-linejoin="round"/>
<path d="M6.5 7.6499H18.65" stroke="#E62334" stroke-width="1.5" stroke-miterlimit="10" stroke-linecap="round" stroke-linejoin="round"/>
<path d="M26.4999 9.7498C27.6597 9.7498 28.5999 8.8096 28.5999 7.6498C28.5999 6.49001 27.6597 5.5498 26.4999 5.5498C25.3401 5.5498 24.3999 6.49001 24.3999 7.6498C24.3999 8.8096 25.3401 9.7498 26.4999 9.7498Z" stroke="#E62334" stroke-width="1.5" stroke-miterlimit="10" stroke-linecap="round" stroke-linejoin="round"/>
<path d="M34.8999 9.7498C36.0597 9.7498 36.9999 8.8096 36.9999 7.6498C36.9999 6.49001 36.0597 5.5498 34.8999 5.5498C33.7401 5.5498 32.7999 6.49001 32.7999 7.6498C32.7999 8.8096 33.7401 9.7498 34.8999 9.7498Z" stroke="#E62334" stroke-width="1.5" stroke-miterlimit="10" stroke-linecap="round" stroke-linejoin="round"/>
<path d="M40.2 25.6999H3.19995C2.34995 25.6999 1.69995 25.0499 1.69995 24.1999V15.1499C1.69995 14.2999 2.34995 13.6499 3.19995 13.6499H40.25C41.1 13.6499 41.75 14.2999 41.75 15.1499V24.1999C41.7 24.9999 41.05 25.6999 40.2 25.6999Z" stroke="#E62334" stroke-width="1.5" stroke-miterlimit="10" stroke-linecap="round" stroke-linejoin="round"/>
<path d="M6.5 19.6499H18.65" stroke="#E62334" stroke-width="1.5" stroke-miterlimit="10" stroke-linecap="round" stroke-linejoin="round"/>
<path d="M26.4999 21.7498C27.6597 21.7498 28.5999 20.8096 28.5999 19.6498C28.5999 18.49 27.6597 17.5498 26.4999 17.5498C25.3401 17.5498 24.3999 18.49 24.3999 19.6498C24.3999 20.8096 25.3401 21.7498 26.4999 21.7498Z" stroke="#E62334" stroke-width="1.5" stroke-miterlimit="10" stroke-linecap="round" stroke-linejoin="round"/>
<path d="M34.8999 21.7498C36.0597 21.7498 36.9999 20.8096 36.9999 19.6498C36.9999 18.49 36.0597 17.5498 34.8999 17.5498C33.7401 17.5498 32.7999 18.49 32.7999 19.6498C32.7999 20.8096 33.7401 21.7498 34.8999 21.7498Z" stroke="#E62334" stroke-width="1.5" stroke-miterlimit="10" stroke-linecap="round" stroke-linejoin="round"/>
<path d="M25.7 37.6499H3.19995C2.34995 37.6499 1.69995 36.9999 1.69995 36.1499V27.1499C1.69995 26.2999 2.34995 25.6499 3.19995 25.6499H36.5499" stroke="#E62334" stroke-width="1.5" stroke-miterlimit="10" stroke-linecap="round" stroke-linejoin="round"/>
<path d="M6.5 31.6499H18.65" stroke="#E62334" stroke-width="1.5" stroke-miterlimit="10" stroke-linecap="round" stroke-linejoin="round"/>
<path d="M37.0999 48.4499C43.396 48.4499 48.5 43.3459 48.5 37.0499C48.5 30.7539 43.396 25.6499 37.0999 25.6499C30.8039 25.6499 25.7 30.7539 25.7 37.0499C25.7 43.3459 30.8039 48.4499 37.0999 48.4499Z" stroke="#E62334" stroke-width="1.5" stroke-miterlimit="10" stroke-linecap="round" stroke-linejoin="round"/>
<path d="M37.0499 39.5499C39.0382 39.5499 40.65 37.9381 40.65 35.9499C40.65 33.9616 39.0382 32.3499 37.0499 32.3499C35.0617 32.3499 33.45 33.9616 33.45 35.9499C33.45 37.9381 35.0617 39.5499 37.0499 39.5499Z" stroke="#E62334" stroke-width="1.5" stroke-miterlimit="10" stroke-linecap="round" stroke-linejoin="round"/>
<path d="M29.1499 45.1998C29.1499 45.1998 30.8499 39.5498 37.0499 39.5498C43.2499 39.5498 45.0499 45.2498 45.0499 45.2498" stroke="#E62334" stroke-width="1.5" stroke-miterlimit="10" stroke-linecap="round" stroke-linejoin="round"/>
</svg>
