<svg width="50" height="50" viewBox="0 0 50 50" fill="none" xmlns="http://www.w3.org/2000/svg">
<path d="M35.5499 11.3501H41L46.0499 49.0001H3.94995L9.79995 11.3501H14.9" stroke="#E62334" stroke-width="1.5" stroke-miterlimit="10" stroke-linecap="round" stroke-linejoin="round"/>
<path d="M19.0999 11.3501H31.3499" stroke="#E62334" stroke-width="1.5" stroke-miterlimit="10" stroke-linecap="round" stroke-linejoin="round"/>
<path d="M35.5499 14.95V5.20005C35.5499 3.05005 33.8 1.30005 31.65 1.30005H18.85C16.7 1.30005 14.95 3.05005 14.95 5.20005V14.95H19.1V5.40005H31.4V14.95H35.5499V14.95Z" stroke="#E62334" stroke-width="1.5" stroke-miterlimit="10" stroke-linecap="round" stroke-linejoin="round"/>
<path d="M33.8499 22.55H16.1499V40.25H33.8499V22.55Z" stroke="#E62334" stroke-width="1.5" stroke-miterlimit="10" stroke-linecap="round" stroke-linejoin="round"/>
<path d="M21.65 30.1501C22.8374 30.1501 23.8 29.1875 23.8 28.0001C23.8 26.8127 22.8374 25.8501 21.65 25.8501C20.4626 25.8501 19.5 26.8127 19.5 28.0001C19.5 29.1875 20.4626 30.1501 21.65 30.1501Z" stroke="#E62334" stroke-width="1.5" stroke-miterlimit="10" stroke-linecap="round" stroke-linejoin="round"/>
<path d="M16.1499 40.25L20.9499 34L25.7999 40.25" stroke="#E62334" stroke-width="1.5" stroke-miterlimit="10" stroke-linecap="round" stroke-linejoin="round"/>
<path d="M22.95 36.55L28.55 28.8L33.85 35.85" stroke="#E62334" stroke-width="1.5" stroke-miterlimit="10" stroke-linecap="round" stroke-linejoin="round"/>
</svg>
