<svg width="50" height="50" viewBox="0 0 50 50" fill="none" xmlns="http://www.w3.org/2000/svg">
<path d="M17.6502 1.15015H13.3002V30.9502H17.6502V1.15015Z" stroke="#E62334" stroke-width="1.5" stroke-miterlimit="10" stroke-linecap="round" stroke-linejoin="round"/>
<path d="M26.4 36.35H4.75V33.85C4.75 32.25 6.05 31 7.6 31H23.5C25.1 31 26.35 32.3 26.35 33.85V36.35H26.4Z" stroke="#E62334" stroke-width="1.5" stroke-miterlimit="10" stroke-linecap="round" stroke-linejoin="round"/>
<path d="M17.6502 25.6001H13.3002" stroke="#E62334" stroke-width="1.5" stroke-miterlimit="10" stroke-linecap="round" stroke-linejoin="round"/>
<path d="M30.6998 28.5501C30.5498 28.2001 30.4498 27.8001 30.4498 27.4001C30.4498 26.0001 31.5998 24.8501 32.9998 24.8501C34.3998 24.8501 35.5498 26.0001 35.5498 27.4001C35.5498 27.7501 35.4998 28.1001 35.3498 28.4001" stroke="#E62334" stroke-width="1.5" stroke-miterlimit="10" stroke-linecap="round" stroke-linejoin="round"/>
<path d="M31.75 40.3501C31.85 40.0001 32.1 39.6501 32.35 39.3501C33.35 38.3501 35 38.3501 36 39.3501C37 40.3501 37 42.0001 36 43.0001C35.75 43.2501 35.45 43.4501 35.15 43.5501" stroke="#E62334" stroke-width="1.5" stroke-miterlimit="10" stroke-linecap="round" stroke-linejoin="round"/>
<path d="M37.6501 31.2503C38.5001 30.5003 39.6001 30.0503 40.8501 30.0503C43.5501 30.0503 45.7501 32.2503 45.7501 34.9503C45.7501 36.3003 45.2001 37.5003 44.3001 38.4003" stroke="#E62334" stroke-width="1.5" stroke-miterlimit="10" stroke-linecap="round" stroke-linejoin="round"/>
<path d="M39.0999 46.4002C39.9999 47.7502 41.5999 48.6502 43.3499 48.6502C46.1999 48.6502 48.4999 46.3502 48.4999 43.5002C48.4999 41.0002 46.7499 38.9502 44.3999 38.4502" stroke="#E62334" stroke-width="1.5" stroke-miterlimit="10" stroke-linecap="round" stroke-linejoin="round"/>
<path d="M18.0499 43.0503C17.5499 44.9503 16.7499 47.0003 15.5999 48.9503" stroke="#E62334" stroke-width="1.5" stroke-miterlimit="10" stroke-linecap="round" stroke-linejoin="round"/>
<path d="M10.7502 43.0503C10.2502 44.9503 9.45017 47.0003 8.30017 48.9503" stroke="#E62334" stroke-width="1.5" stroke-miterlimit="10" stroke-linecap="round" stroke-linejoin="round"/>
<path d="M1.30017 48.9001H22.9502" stroke="#E62334" stroke-width="1.5" stroke-miterlimit="10" stroke-linecap="round" stroke-linejoin="round"/>
<path d="M4.75 36.3501C4.75 36.3501 4.75 43.2001 1.25 48.9001" stroke="#E62334" stroke-width="1.5" stroke-miterlimit="10" stroke-linecap="round" stroke-linejoin="round"/>
<path d="M26.4001 36.3501C26.4001 36.3501 26.4001 43.2001 22.9001 48.9001" stroke="#E62334" stroke-width="1.5" stroke-miterlimit="10" stroke-linecap="round" stroke-linejoin="round"/>
</svg>
