<svg width="50" height="50" viewBox="0 0 50 50" fill="none" xmlns="http://www.w3.org/2000/svg">
<path d="M18.2 12.7H12.1V18.8H18.2V12.7Z" stroke="#E62334" stroke-width="1.5" stroke-miterlimit="10" stroke-linecap="round" stroke-linejoin="round"/>
<path d="M18.2 23.3499H12.1V29.4499H18.2V23.3499Z" stroke="#E62334" stroke-width="1.5" stroke-miterlimit="10" stroke-linecap="round" stroke-linejoin="round"/>
<path d="M28.95 12.7H22.85V18.8H28.95V12.7Z" stroke="#E62334" stroke-width="1.5" stroke-miterlimit="10" stroke-linecap="round" stroke-linejoin="round"/>
<path d="M28.95 23.3499H22.85V29.4499H28.95V23.3499Z" stroke="#E62334" stroke-width="1.5" stroke-miterlimit="10" stroke-linecap="round" stroke-linejoin="round"/>
<path d="M20.55 39.75C30.8501 39.75 39.2 31.4001 39.2 21.1C39.2 10.7998 30.8501 2.44995 20.55 2.44995C10.2499 2.44995 1.90002 10.7998 1.90002 21.1C1.90002 31.4001 10.2499 39.75 20.55 39.75Z" stroke="#E62334" stroke-width="1.5" stroke-miterlimit="10" stroke-linecap="round" stroke-linejoin="round"/>
<path d="M46.9501 42.7C48.2501 44 48.2501 46.1 46.9501 47.45C45.6501 48.7499 43.5501 48.7499 42.2001 47.45" stroke="#E62334" stroke-width="1.5" stroke-miterlimit="10" stroke-linecap="round" stroke-linejoin="round"/>
<path d="M46.95 42.6999L35.9 31.6499" stroke="#E62334" stroke-width="1.5" stroke-miterlimit="10" stroke-linecap="round" stroke-linejoin="round"/>
<path d="M42.2 47.4499L31.15 36.3999" stroke="#E62334" stroke-width="1.5" stroke-miterlimit="10" stroke-linecap="round" stroke-linejoin="round"/>
<path d="M5.55002 44.4001H1.65002V48.3001H5.55002V44.4001Z" stroke="#E62334" stroke-width="1.5" stroke-miterlimit="10" stroke-linecap="round" stroke-linejoin="round"/>
<path d="M13.65 44.4001H9.75V48.3001H13.65V44.4001Z" stroke="#E62334" stroke-width="1.5" stroke-miterlimit="10" stroke-linecap="round" stroke-linejoin="round"/>
<path d="M21.8 44.4001H17.9V48.3001H21.8V44.4001Z" stroke="#E62334" stroke-width="1.5" stroke-miterlimit="10" stroke-linecap="round" stroke-linejoin="round"/>
<path d="M29.9 44.4001H26V48.3001H29.9V44.4001Z" stroke="#E62334" stroke-width="1.5" stroke-miterlimit="10" stroke-linecap="round" stroke-linejoin="round"/>
<path d="M44.199 25.9992V29.8992H48.099V25.9992H44.199Z" stroke="#E62334" stroke-width="1.5" stroke-miterlimit="10" stroke-linecap="round" stroke-linejoin="round"/>
<path d="M44.223 17.8751V21.7751H48.123V17.8751H44.223Z" stroke="#E62334" stroke-width="1.5" stroke-miterlimit="10" stroke-linecap="round" stroke-linejoin="round"/>
<path d="M44.197 9.75113V13.6511H48.097V9.75113H44.197Z" stroke="#E62334" stroke-width="1.5" stroke-miterlimit="10" stroke-linecap="round" stroke-linejoin="round"/>
<path d="M44.2211 1.6271V5.5271H48.1211V1.6271L44.2211 1.6271Z" stroke="#E62334" stroke-width="1.5" stroke-miterlimit="10" stroke-linecap="round" stroke-linejoin="round"/>
</svg>
