<svg width="50" height="50" viewBox="0 0 50 50" fill="none" xmlns="http://www.w3.org/2000/svg">
<path d="M39.1501 5.64999V44.45" stroke="#E62334" stroke-width="1.5" stroke-miterlimit="10" stroke-linecap="round" stroke-linejoin="round"/>
<path d="M39.1501 8.64999H47.3001V5.64999C47.3001 3.39999 45.4501 1.54999 43.2001 1.54999C40.9501 1.54999 39.1001 3.39999 39.1001 5.64999" stroke="#E62334" stroke-width="1.5" stroke-miterlimit="10" stroke-linecap="round" stroke-linejoin="round"/>
<path d="M14.5501 1.59998C12.3001 1.59998 10.4501 3.44998 10.4501 5.69998V41.6" stroke="#E62334" stroke-width="1.5" stroke-miterlimit="10" stroke-linecap="round" stroke-linejoin="round"/>
<path d="M31.0001 44.45V41.6H2.45007V44.45C2.45007 46.7 4.30007 48.55 6.55007 48.55H35.1001" stroke="#E62334" stroke-width="1.5" stroke-miterlimit="10" stroke-linecap="round" stroke-linejoin="round"/>
<path d="M39.1501 44.45C39.1501 46.7 37.3001 48.55 35.0501 48.55C32.8001 48.55 30.9501 46.7 30.9501 44.45" stroke="#E62334" stroke-width="1.5" stroke-miterlimit="10" stroke-linecap="round" stroke-linejoin="round"/>
<path d="M43.2501 1.59998H14.55" stroke="#E62334" stroke-width="1.5" stroke-miterlimit="10" stroke-linecap="round" stroke-linejoin="round"/>
<path d="M29.55 36.4C31.2345 36.4 32.6 35.0345 32.6 33.35C32.6 31.6655 31.2345 30.3 29.55 30.3C27.8655 30.3 26.5 31.6655 26.5 33.35C26.5 35.0345 27.8655 36.4 29.55 36.4Z" stroke="#E62334" stroke-width="1.5" stroke-miterlimit="10" stroke-linecap="round" stroke-linejoin="round"/>
<path d="M17.1501 8.64999H32.3001" stroke="#E62334" stroke-width="1.5" stroke-miterlimit="10" stroke-linecap="round" stroke-linejoin="round"/>
<path d="M17.1501 14.25H32.3001" stroke="#E62334" stroke-width="1.5" stroke-miterlimit="10" stroke-linecap="round" stroke-linejoin="round"/>
<path d="M17.1501 19.8H32.3001" stroke="#E62334" stroke-width="1.5" stroke-miterlimit="10" stroke-linecap="round" stroke-linejoin="round"/>
<path d="M17.1501 25.35H32.3001" stroke="#E62334" stroke-width="1.5" stroke-miterlimit="10" stroke-linecap="round" stroke-linejoin="round"/>
</svg>
