<svg width="50" height="50" viewBox="0 0 50 50" fill="none" xmlns="http://www.w3.org/2000/svg">
<path d="M48.8499 40H1.1499V48.75H48.8499V40Z" stroke="#E62334" stroke-width="1.5" stroke-miterlimit="10" stroke-linecap="round" stroke-linejoin="round"/>
<path d="M24.9999 1.10001L1.04993 14.7V17.25H24.9999" stroke="#E62334" stroke-width="1.5" stroke-miterlimit="10" stroke-linecap="round" stroke-linejoin="round"/>
<path d="M25.0499 1.10001L48.9999 14.7V17.25H25.0499" stroke="#E62334" stroke-width="1.5" stroke-miterlimit="10" stroke-linecap="round" stroke-linejoin="round"/>
<path d="M25 12.8C26.5188 12.8 27.75 11.5688 27.75 10.05C27.75 8.53123 26.5188 7.30002 25 7.30002C23.4812 7.30002 22.25 8.53123 22.25 10.05C22.25 11.5688 23.4812 12.8 25 12.8Z" stroke="#E62334" stroke-width="1.5" stroke-miterlimit="10" stroke-linecap="round" stroke-linejoin="round"/>
<path d="M5.19995 17.25V40" stroke="#E62334" stroke-width="1.5" stroke-miterlimit="10" stroke-linecap="round" stroke-linejoin="round"/>
<path d="M11.45 17.25V40" stroke="#E62334" stroke-width="1.5" stroke-miterlimit="10" stroke-linecap="round" stroke-linejoin="round"/>
<path d="M21.8499 17.25V40" stroke="#E62334" stroke-width="1.5" stroke-miterlimit="10" stroke-linecap="round" stroke-linejoin="round"/>
<path d="M28.0999 17.25V40" stroke="#E62334" stroke-width="1.5" stroke-miterlimit="10" stroke-linecap="round" stroke-linejoin="round"/>
<path d="M38.5499 17.25V40" stroke="#E62334" stroke-width="1.5" stroke-miterlimit="10" stroke-linecap="round" stroke-linejoin="round"/>
<path d="M44.7999 17.25V40" stroke="#E62334" stroke-width="1.5" stroke-miterlimit="10" stroke-linecap="round" stroke-linejoin="round"/>
</svg>
