<svg width="50" height="50" viewBox="0 0 50 50" fill="none" xmlns="http://www.w3.org/2000/svg">
<path d="M30.75 19.3C30.75 16.15 28.2 13.55 25 13.55C21.8 13.55 19.25 16.1 19.25 19.3C19.25 26.1 30.7 23.95 30.7 30.75C30.7 33.9 28.15 36.5 24.95 36.5C21.75 36.5 19.2 33.95 19.2 30.75" stroke="#E62334" stroke-width="1.5" stroke-miterlimit="10" stroke-linecap="round" stroke-linejoin="round"/>
<path d="M24.9999 13.55V9.80005" stroke="#E62334" stroke-width="1.5" stroke-miterlimit="10" stroke-linecap="round" stroke-linejoin="round"/>
<path d="M24.9999 36.45V40.0999" stroke="#E62334" stroke-width="1.5" stroke-miterlimit="10" stroke-linecap="round" stroke-linejoin="round"/>
<path d="M46.55 32.0499C43.65 41.6999 34.95 48.7499 24.65 48.7499C14.15 48.7499 5.29998 41.3999 2.59998 31.3999" stroke="#E62334" stroke-width="1.5" stroke-miterlimit="10" stroke-linecap="round" stroke-linejoin="round"/>
<path d="M42.3999 33.7L46.7499 31.2L48.6499 36.15" stroke="#E62334" stroke-width="1.5" stroke-miterlimit="10" stroke-linecap="round" stroke-linejoin="round"/>
<path d="M3.44995 18C6.34995 8.30005 15.05 1.30005 25.35 1.30005C35.85 1.30005 44.7 8.65005 47.4 18.65" stroke="#E62334" stroke-width="1.5" stroke-miterlimit="10" stroke-linecap="round" stroke-linejoin="round"/>
<path d="M7.59998 16.3501L3.24998 18.8501L1.34998 13.9001" stroke="#E62334" stroke-width="1.5" stroke-miterlimit="10" stroke-linecap="round" stroke-linejoin="round"/>
</svg>
