<svg width="50" height="50" viewBox="0 0 50 50" fill="none" xmlns="http://www.w3.org/2000/svg">
<path d="M13.95 8.05C15.9 6.75 18.1 5.8 20.45 5.25" stroke="#E62334" stroke-width="1.5" stroke-miterlimit="10" stroke-linecap="round" stroke-linejoin="round"/>
<path d="M5.2998 20.4499C5.7998 18.3999 6.5498 16.4499 7.6498 14.6499" stroke="#E62334" stroke-width="1.5" stroke-miterlimit="10" stroke-linecap="round" stroke-linejoin="round"/>
<path d="M7.6 35.3499C6.55 33.5999 5.75 31.6499 5.25 29.5499" stroke="#E62334" stroke-width="1.5" stroke-miterlimit="10" stroke-linecap="round" stroke-linejoin="round"/>
<path d="M20.4499 44.6999C18.0999 44.1499 15.8999 43.1999 13.8999 41.8999" stroke="#E62334" stroke-width="1.5" stroke-miterlimit="10" stroke-linecap="round" stroke-linejoin="round"/>
<path d="M36.0999 41.95C34.1499 43.25 31.9499 44.2 29.5999 44.7" stroke="#E62334" stroke-width="1.5" stroke-miterlimit="10" stroke-linecap="round" stroke-linejoin="round"/>
<path d="M44.7499 29.5499C44.2499 31.6499 43.4499 33.5999 42.3999 35.3499" stroke="#E62334" stroke-width="1.5" stroke-miterlimit="10" stroke-linecap="round" stroke-linejoin="round"/>
<path d="M42.3999 14.6499C43.4499 16.3999 44.2499 18.3499 44.7499 20.4499" stroke="#E62334" stroke-width="1.5" stroke-miterlimit="10" stroke-linecap="round" stroke-linejoin="round"/>
<path d="M29.5999 5.29993C31.9499 5.84993 34.1499 6.79993 36.0999 8.04993" stroke="#E62334" stroke-width="1.5" stroke-miterlimit="10" stroke-linecap="round" stroke-linejoin="round"/>
<path d="M29.6 5.29995V3.04995C29.6 2.04995 28.75 1.19995 27.75 1.19995H22.3C21.2999 1.19995 20.45 2.04995 20.45 3.04995V5.29995" stroke="#E62334" stroke-width="1.5" stroke-miterlimit="10" stroke-linecap="round" stroke-linejoin="round"/>
<path d="M29.6 44.75V47C29.6 48 28.75 48.85 27.75 48.85H22.3C21.2999 48.85 20.45 48 20.45 47V44.75" stroke="#E62334" stroke-width="1.5" stroke-miterlimit="10" stroke-linecap="round" stroke-linejoin="round"/>
<path d="M5.2999 20.45H2.9999C1.9999 20.45 1.1499 21.2999 1.1499 22.2999V27.75C1.1499 28.75 1.9999 29.6 2.9999 29.6H5.2999" stroke="#E62334" stroke-width="1.5" stroke-miterlimit="10" stroke-linecap="round" stroke-linejoin="round"/>
<path d="M13.9498 8.04999L12.2998 6.49999C11.5498 5.79999 10.3998 5.79999 9.69982 6.54999L5.94982 10.5C5.24982 11.25 5.24982 12.4 5.99982 13.1L7.59982 14.65" stroke="#E62334" stroke-width="1.5" stroke-miterlimit="10" stroke-linecap="round" stroke-linejoin="round"/>
<path d="M13.9498 41.9L12.3498 43.5C11.5998 44.2 10.4498 44.2 9.74982 43.45L5.94982 39.5C5.24982 38.75 5.24982 37.6 5.99982 36.9L7.59982 35.35" stroke="#E62334" stroke-width="1.5" stroke-miterlimit="10" stroke-linecap="round" stroke-linejoin="round"/>
<path d="M44.7498 20.45H46.9998C47.9998 20.45 48.8498 21.2999 48.8498 22.2999V27.75C48.8498 28.75 47.9998 29.6 46.9998 29.6H44.7498" stroke="#E62334" stroke-width="1.5" stroke-miterlimit="10" stroke-linecap="round" stroke-linejoin="round"/>
<path d="M36.0498 8.04999L37.6498 6.49999C38.3998 5.79999 39.5498 5.79999 40.2498 6.54999L43.9998 10.45C44.6998 11.2 44.6998 12.35 43.9498 13.05L42.3498 14.6" stroke="#E62334" stroke-width="1.5" stroke-miterlimit="10" stroke-linecap="round" stroke-linejoin="round"/>
<path d="M36.0999 41.95L37.6999 43.5C38.4499 44.2 39.5999 44.2 40.2999 43.45L44.0499 39.55C44.7499 38.8 44.7499 37.65 43.9999 36.95L42.3999 35.4" stroke="#E62334" stroke-width="1.5" stroke-miterlimit="10" stroke-linecap="round" stroke-linejoin="round"/>
<path d="M29.5999 36.1999C33.9999 34.3999 37.1499 30.0499 37.1499 24.9999C37.1499 20.4999 34.6999 16.5999 31.0999 14.4999C30.4499 14.0999 29.5999 14.5999 29.5999 15.3499V24.9499C29.5999 27.4499 27.5499 29.4999 25.0499 29.4999C22.5499 29.4999 20.4499 27.4999 20.4499 24.9999L20.2999 15.4499C20.2999 14.6999 19.4499 14.1999 18.7999 14.5999C15.2499 16.6999 12.8999 20.5999 12.8999 24.9999C12.8999 29.9999 15.9499 34.2999 20.2999 36.1499" stroke="#E62334" stroke-width="1.5" stroke-miterlimit="10" stroke-linecap="round" stroke-linejoin="round"/>
<path d="M20.45 36.2V44.75" stroke="#E62334" stroke-width="1.5" stroke-miterlimit="10" stroke-linecap="round" stroke-linejoin="round"/>
<path d="M29.5999 36.2V44.75" stroke="#E62334" stroke-width="1.5" stroke-miterlimit="10" stroke-linecap="round" stroke-linejoin="round"/>
</svg>
