<svg width="50" height="50" viewBox="0 0 50 50" fill="none" xmlns="http://www.w3.org/2000/svg">
<path d="M48.8499 43.25H1.19995V48.8H48.8499V43.25Z" stroke="#E62334" stroke-width="1.5" stroke-miterlimit="10" stroke-linecap="round" stroke-linejoin="round"/>
<path d="M10.4999 18C10.4999 20.55 8.3999 22.65 5.8499 22.65C3.2999 22.65 1.1499 20.55 1.1499 18V12.25H47.7499V18C47.7499 20.55 45.6499 22.65 43.0999 22.65C40.5499 22.65 38.4499 20.55 38.4499 18V12.25" stroke="#E62334" stroke-width="1.5" stroke-miterlimit="10" stroke-linecap="round" stroke-linejoin="round"/>
<path d="M10.5 12.25V18C10.5 20.55 12.6 22.65 15.15 22.65C17.7 22.65 19.8 20.55 19.8 18" stroke="#E62334" stroke-width="1.5" stroke-miterlimit="10" stroke-linecap="round" stroke-linejoin="round"/>
<path d="M38.4499 18C38.4499 20.55 36.3499 22.65 33.7999 22.65C31.2499 22.65 29.1499 20.55 29.1499 18" stroke="#E62334" stroke-width="1.5" stroke-miterlimit="10" stroke-linecap="round" stroke-linejoin="round"/>
<path d="M29.0998 12.2499L26.7998 1.3999" stroke="#E62334" stroke-width="1.5" stroke-miterlimit="10" stroke-linecap="round" stroke-linejoin="round"/>
<path d="M19.7998 12.25V18C19.7998 20.55 21.8998 22.65 24.4498 22.65C26.9998 22.65 29.0998 20.55 29.0998 18V12.25" stroke="#E62334" stroke-width="1.5" stroke-miterlimit="10" stroke-linecap="round" stroke-linejoin="round"/>
<path d="M1.1499 12.25L10.0499 1.19995H39.9999L47.7499 12.25" stroke="#E62334" stroke-width="1.5" stroke-miterlimit="10" stroke-linecap="round" stroke-linejoin="round"/>
<path d="M38.4498 12.25L33.2998 1.19995" stroke="#E62334" stroke-width="1.5" stroke-miterlimit="10" stroke-linecap="round" stroke-linejoin="round"/>
<path d="M19.7998 12.2499L22.5998 1.3999" stroke="#E62334" stroke-width="1.5" stroke-miterlimit="10" stroke-linecap="round" stroke-linejoin="round"/>
<path d="M10.5 12.25L16.65 1.19995" stroke="#E62334" stroke-width="1.5" stroke-miterlimit="10" stroke-linecap="round" stroke-linejoin="round"/>
<path d="M5.7998 22.6499V43.2499" stroke="#E62334" stroke-width="1.5" stroke-miterlimit="10" stroke-linecap="round" stroke-linejoin="round"/>
<path d="M43.0999 22.6499V43.2499" stroke="#E62334" stroke-width="1.5" stroke-miterlimit="10" stroke-linecap="round" stroke-linejoin="round"/>
<path d="M27.2998 43.25V28.25H37.7498V43.25" stroke="#E62334" stroke-width="1.5" stroke-miterlimit="10" stroke-linecap="round" stroke-linejoin="round"/>
<path d="M21.8499 28.25H11.1499V35.45H21.8499V28.25Z" stroke="#E62334" stroke-width="1.5" stroke-miterlimit="10" stroke-linecap="round" stroke-linejoin="round"/>
</svg>
