<svg width="50" height="50" viewBox="0 0 50 50" fill="none" xmlns="http://www.w3.org/2000/svg">
<path d="M25.7 6.00003L29.3 3.40003C29.9 3.00003 30.7 3.20003 31.05 3.85003L33.05 7.80003C33.3 8.25003 33.75 8.50003 34.25 8.45003L38.65 7.85003C39.35 7.75003 40 8.30003 40 9.05003V13.5C40 14 40.3 14.45 40.8 14.65L45 16.15C45.7 16.4 46 17.2 45.65 17.85L43.5 21.75C43.25 22.2 43.3 22.75 43.65 23.1L46.65 26.4C47.15 26.95 47.05 27.8 46.45 28.2L42.75 30.65C42.35 30.95 42.15 31.45 42.25 31.95L43.4 36.25C43.6 36.95 43.1 37.65 42.35 37.75L37.9 38.2C37.4 38.25 37 38.6 36.85 39.1L35.85 43.45C35.7 44.15 34.95 44.55 34.25 44.3L30.1 42.65C29.65 42.45 29.1 42.6 28.75 43L25.85 46.4C25.4 46.95 24.5 46.95 24.05 46.4L21.2 43C20.85 42.6 20.35 42.5 19.85 42.65L15.7 44.3C15 44.55 14.25 44.15 14.1 43.45L13.1 39.1C13 38.6 12.55 38.25 12.05 38.2L7.6 37.75C6.85 37.65 6.4 36.95 6.55 36.25L7.7 31.95C7.85 31.45 7.65 30.95 7.2 30.65L3.5 28.2C2.9 27.8 2.8 26.95 3.3 26.4L6.3 23.1C6.65 22.75 6.7 22.15 6.45 21.75L4.3 17.85C3.95 17.2 4.25 16.4 4.95 16.15L9.15 14.65C9.7 14.5 10 14 10 13.5L9.95 9.05003C9.95 8.30003 10.6 7.75003 11.3 7.85003L15.7 8.45003C16.2 8.50003 16.7 8.25003 16.9 7.80003L18.9 3.85003C19.25 3.20003 20.05 3.00003 20.65 3.40003L24.25 6.00003C24.7 6.30003 25.3 6.30003 25.7 6.00003Z" stroke="#E62334" stroke-width="1.5" stroke-miterlimit="10" stroke-linecap="round" stroke-linejoin="round"/>
<path d="M18 32.0001L32.05 17.9501" stroke="#E62334" stroke-width="1.5" stroke-miterlimit="10" stroke-linecap="round" stroke-linejoin="round"/>
<path d="M30.2501 32.65C31.6584 32.65 32.8001 31.5084 32.8001 30.1C32.8001 28.6917 31.6584 27.55 30.2501 27.55C28.8417 27.55 27.7001 28.6917 27.7001 30.1C27.7001 31.5084 28.8417 32.65 30.2501 32.65Z" stroke="#E62334" stroke-width="1.5" stroke-miterlimit="10" stroke-linecap="round" stroke-linejoin="round"/>
<path d="M20.05 22.5C21.4583 22.5 22.6 21.3584 22.6 19.95C22.6 18.5417 21.4583 17.4 20.05 17.4C18.6417 17.4 17.5 18.5417 17.5 19.95C17.5 21.3584 18.6417 22.5 20.05 22.5Z" stroke="#E62334" stroke-width="1.5" stroke-miterlimit="10" stroke-linecap="round" stroke-linejoin="round"/>
</svg>
