<svg width="50" height="50" viewBox="0 0 50 50" fill="none" xmlns="http://www.w3.org/2000/svg">
<path d="M23.7 9.1001H48.3499" stroke="#E62334" stroke-width="1.5" stroke-miterlimit="10" stroke-linecap="round" stroke-linejoin="round"/>
<path d="M1.75 9.1001H12.2" stroke="#E62334" stroke-width="1.5" stroke-miterlimit="10" stroke-linecap="round" stroke-linejoin="round"/>
<path d="M23.7 41.05H48.3499" stroke="#E62334" stroke-width="1.5" stroke-miterlimit="10" stroke-linecap="round" stroke-linejoin="round"/>
<path d="M1.75 41.05H12.2" stroke="#E62334" stroke-width="1.5" stroke-miterlimit="10" stroke-linecap="round" stroke-linejoin="round"/>
<path d="M37.8 25.05H48.35" stroke="#E62334" stroke-width="1.5" stroke-miterlimit="10" stroke-linecap="round" stroke-linejoin="round"/>
<path d="M1.75 25.05H26.3" stroke="#E62334" stroke-width="1.5" stroke-miterlimit="10" stroke-linecap="round" stroke-linejoin="round"/>
<path d="M17.95 14.1001C20.7114 14.1001 22.95 11.8615 22.95 9.1001C22.95 6.33867 20.7114 4.1001 17.95 4.1001C15.1885 4.1001 12.95 6.33867 12.95 9.1001C12.95 11.8615 15.1885 14.1001 17.95 14.1001Z" stroke="#E62334" stroke-width="1.5" stroke-miterlimit="10" stroke-linecap="round" stroke-linejoin="round"/>
<path d="M17.95 46C20.7114 46 22.95 43.7614 22.95 41C22.95 38.2386 20.7114 36 17.95 36C15.1885 36 12.95 38.2386 12.95 41C12.95 43.7614 15.1885 46 17.95 46Z" stroke="#E62334" stroke-width="1.5" stroke-miterlimit="10" stroke-linecap="round" stroke-linejoin="round"/>
<path d="M32.05 30.05C34.8115 30.05 37.05 27.8115 37.05 25.05C37.05 22.2886 34.8115 20.05 32.05 20.05C29.2886 20.05 27.05 22.2886 27.05 25.05C27.05 27.8115 29.2886 30.05 32.05 30.05Z" stroke="#E62334" stroke-width="1.5" stroke-miterlimit="10" stroke-linecap="round" stroke-linejoin="round"/>
</svg>
