<svg width="50" height="50" viewBox="0 0 50 50" fill="none" xmlns="http://www.w3.org/2000/svg">
<path d="M45.0499 42.0501H11.6499C9.6999 42.0501 8.1499 40.5001 8.1499 38.5501V18.7001C8.1499 16.7501 9.6999 15.2001 11.6499 15.2001H45.0499C46.9999 15.2001 48.5499 16.7501 48.5499 18.7001V38.5501C48.5499 40.4501 46.9999 42.0501 45.0499 42.0501Z" stroke="#E62334" stroke-width="1.5" stroke-miterlimit="10" stroke-linecap="round" stroke-linejoin="round"/>
<path d="M8.14993 35.1501H4.84993C2.89993 35.1501 1.29993 33.5501 1.29993 31.6001V11.85C1.29993 9.90005 2.89993 8.30005 4.84993 8.30005H38.0999C40.0499 8.30005 41.6499 9.90005 41.6499 11.85V15.15" stroke="#E62334" stroke-width="1.5" stroke-miterlimit="10" stroke-linecap="round" stroke-linejoin="round"/>
<path d="M8.69995 21.75H47.8999" stroke="#E62334" stroke-width="1.5" stroke-miterlimit="10" stroke-linecap="round" stroke-linejoin="round"/>
<path d="M8.94995 26.9H48.1499" stroke="#E62334" stroke-width="1.5" stroke-miterlimit="10" stroke-linecap="round" stroke-linejoin="round"/>
<path d="M38.2 36.9501H43.5" stroke="#E62334" stroke-width="1.5" stroke-miterlimit="10" stroke-linecap="round" stroke-linejoin="round"/>
</svg>
