<svg width="35" height="35" viewBox="0 0 35 35" fill="none" xmlns="http://www.w3.org/2000/svg">
<path d="M15.4698 25.3749L13.1948 23.0999" stroke="#E62334" stroke-width="1.5" stroke-miterlimit="10" stroke-linecap="round"/>
<path d="M18.0602 12.95L26.7052 21.63C27.4052 22.3299 27.4052 23.45 26.7052 24.115C26.0052 24.815 24.8852 24.815 24.2202 24.115L18.2002 18.095" stroke="#E62334" stroke-width="1.5" stroke-miterlimit="10" stroke-linecap="round"/>
<path d="M15.4702 25.3748C16.1352 26.0398 16.1352 27.0898 15.5402 27.7548C14.9102 28.4548 13.8602 28.5598 13.1602 27.9998L4.58521 21.3848" stroke="#E62334" stroke-width="1.5" stroke-miterlimit="10" stroke-linecap="round"/>
<path d="M15.6801 20.6147L20.7901 25.7597C21.4901 26.4597 22.6101 26.4597 23.3101 25.7597C24.0101 25.0597 24.0101 23.9397 23.3101 23.2397L18.2001 18.0947" stroke="#E62334" stroke-width="1.5" stroke-miterlimit="10" stroke-linecap="round"/>
<path d="M13.1948 23.1L16.9398 26.88C17.6048 27.58 18.7248 27.58 19.4248 26.88C20.0898 26.215 20.0898 25.095 19.4248 24.395L15.6798 20.615" stroke="#E62334" stroke-width="1.5" stroke-miterlimit="10" stroke-linecap="round"/>
<path d="M2.09998 21.3849H4.58498L5.98498 10.0099L2.09998 8.99487V21.3849Z" stroke="#E62334" stroke-width="1.5" stroke-miterlimit="10" stroke-linecap="round" stroke-linejoin="round"/>
<path d="M32.8998 21.3849H30.4148L29.0148 10.0099L32.8998 8.99487V21.3849Z" stroke="#E62334" stroke-width="1.5" stroke-miterlimit="10" stroke-linecap="round" stroke-linejoin="round"/>
<path d="M30.4148 21.3848L27.1948 22.4698" stroke="#E62334" stroke-width="1.5" stroke-miterlimit="10" stroke-linecap="round" stroke-linejoin="round"/>
<path d="M29.0148 10.0099C29.0148 10.0099 26.8798 9.6599 24.6048 8.7849C22.5048 7.9799 20.3698 6.6499 17.8148 6.6499C13.7548 6.6499 11.0948 10.8499 11.0948 12.1099C11.0948 14.3849 14.3148 16.4149 18.0598 12.9499C18.7598 12.2849 19.4948 11.0249 19.4948 11.0249" stroke="#E62334" stroke-width="1.5" stroke-miterlimit="10" stroke-linecap="round" stroke-linejoin="round"/>
<path d="M5.98523 10.0101C5.98523 10.0101 10.5002 6.86007 13.9302 8.05007" stroke="#E62334" stroke-width="1.5" stroke-miterlimit="10" stroke-linecap="round" stroke-linejoin="round"/>
</svg>
