<svg xmlns:xlink="http://www.w3.org/1999/xlink" width="50" height="50" fill="none"><g stroke="#e62334" stroke-width="2" stroke-miterlimit="10" stroke-linejoin="round"><path d="M23.45 21.35C29.4 20.1 33.3 14 33.3 8.5c0-1.25-1-2.2-2.2-2.2-1.25 0-2.2 1-2.2 2.2v.1a9.37 9.37 0 0 1-9.35 9.35h-4.3A9.37 9.37 0 0 1 5.9 8.6v-.1c0-1.25-1-2.2-2.2-2.2a2.22 2.22 0 0 0-2.2 2.2c0 5.5 3.95 11.6 9.85 12.85V32h7.55" stroke-linecap="round"/><use xlink:href="#B"/><path d="M26.75 48.45v-10.4C20.8 36.8 16.9 30.7 16.9 25.2c0-1.25 1-2.2 2.2-2.2a2.22 2.22 0 0 1 2.2 2.2v.1a9.37 9.37 0 0 0 9.35 9.35H35a9.37 9.37 0 0 0 9.35-9.35v-.1c0-1.25 1-2.2 2.2-2.2 1.25 0 2.2 1 2.2 2.2 0 5.5-3.95 11.6-9.85 12.85v10.4" stroke-linecap="round"/><use xlink:href="#B" x="15.5" y="16.7"/><path d="M12.1 32v16.45m4.45-10.9v10.9m4.5-13.55v13.55m27.9-36.05h-1.2m-4.65 0h-1.2m3.6-3.5v1.2m0 4.65v1.2M25 4.6h-1.2m-4.65 0h-1.2m3.6-3.5v1.2m0 4.65v1.2" stroke-linecap="round"/></g><defs ><path id="B" d="M20.85 14.2a3.78 3.78 0 0 1-3.75 3.75 3.78 3.78 0 0 1-3.75-3.75v-.7a3.78 3.78 0 0 1 3.75-3.75 3.78 3.78 0 0 1 3.75 3.75v.7z"/></defs></svg>
