<svg width="35" height="35" fill="none"  stroke="#e62334" stroke-width="1.5" stroke-miterlimit="10" stroke-linejoin="round"><path d="M20.545 30.065H3.885c-1.61 0-2.94-1.295-2.94-2.87v-7.77c0-1.575 1.33-2.87 2.94-2.87h16.66c1.61 0 2.94 1.295 2.94 2.87v7.735c.035 1.61-1.295 2.905-2.94 2.905zm13.44-.98l-7.49-2.695v-6.65l7.49-2.66v12.005zM7.035 13.93a3.01 3.01 0 0 0 3.01-3.01c0-1.68-1.33-3.01-3.01-3.01s-3.01 1.33-3.01 3.01 1.33 3.01 3.01 3.01zm14.49-4.445A4.53 4.53 0 0 1 17.01 14a4.53 4.53 0 0 1-4.515-4.515A4.53 4.53 0 0 1 17.01 4.97a4.53 4.53 0 0 1 4.515 4.515z"/></svg>
