<svg width="50" height="50" fill="none"  stroke="#e62334" stroke-width="2" stroke-miterlimit="10" stroke-linejoin="round"><path d="M25 48.45c12.951 0 23.45-10.499 23.45-23.45S37.951 1.55 25 1.55 1.55 12.049 1.55 25 12.049 48.45 25 48.45z"/><g stroke-linecap="round"><path d="M33.15 23.1v12.2a2.06 2.06 0 0 1-2.05 2.05 2.06 2.06 0 0 1-2.05-2.05V23.7m-8.25.65V35.3a2.06 2.06 0 0 1-2.05 2.05 2.06 2.06 0 0 1-2.05-2.05V24.35"/><path d="M31.101 12.7c1.5 0 4.85 2.65 4.35 7.3-.35 3.2-3.15 3.45-4.3 3.45"/><path d="M31.15 12.7c-1.5 0-4.85 2.65-4.35 7.3.35 3.2 3.15 3.45 4.3 3.45m-16.3-9.8v6.5c0 2.35 1.75 4.2 3.95 4.2s3.95-1.9 3.95-4.2v-6.5"/><path d="M14.8 19.35h7.9"/><path d="M18.75 19.35v-5.7"/></g></svg>
