<svg width="35" height="35" fill="none"  stroke="#e62334" stroke-width="1.5" stroke-miterlimit="10" stroke-linejoin="round"><path d="M12.775 21.105v-8.26C8.155 11.865 5.11 7.14 5.11 2.87a1.72 1.72 0 0 1 1.715-1.715A1.72 1.72 0 0 1 8.54 2.87v.07c0 4.025 3.255 7.28 7.28 7.28h3.325c4.025 0 7.28-3.255 7.28-7.28v-.07a1.72 1.72 0 0 1 1.715-1.715 1.72 1.72 0 0 1 1.715 1.715c0 4.27-3.045 8.995-7.665 9.975v8.295h-9.415v-.035zM20.231 7.28a2.905 2.905 0 1 1-5.81 0v-.525a2.905 2.905 0 1 1 5.81 0v.525z"/><g stroke-linecap="round"><path d="M14.106 21.5v12.38h6.86V21.5"/><path d="M17.535 24.5v9.38"/></g></svg>
