<svg width="35" height="35" fill="none"  stroke="#e62334" stroke-width="1.5" stroke-miterlimit="10" stroke-linejoin="round"><path d="M33.215 11.165L18.9 3.36c-.455-.245-1.05-.245-1.505 0l-14.28 7.77s-.035 0-.035.035c-.63.35-1.785.875-1.925 1.75v10.5c0 .91.77 1.68 1.68 1.68.945 0 1.68-.735 1.68-1.68v-8.82l12.88 7.035c.455.245 1.05.245 1.505 0l14.315-7.805c1.05-.595 1.05-2.1 0-2.66zM17.361 25.34l-9.695-5.285v6.265l9.695 5.355c.455.245 1.05.245 1.505 0l9.695-5.285v-6.3l-9.66 5.25c-.49.245-1.05.245-1.54 0z"/></svg>
