<svg xmlns="http://www.w3.org/2000/svg" width="35" height="35" fill="none" ><g clip-path="url(#A)" stroke="#e62334" stroke-width="1.5" stroke-miterlimit="10" stroke-linejoin="round"><path d="M31.395 29.89H3.64C2.03 29.89.7 28.595.7 26.95V7.945c0-1.61 1.295-2.94 2.94-2.94h27.755c1.61 0 2.94 1.295 2.94 2.94V26.95c-.035 1.61-1.33 2.94-2.94 2.94z"/><g stroke-linecap="round"><path d="M21.106 12.39h8.82m-8.82 5.845h8.82m-8.82 5.845h8.82m-24.816 0v-1.54c0-1.575 1.295-2.87 2.87-2.87h5.915c1.575 0 2.87 1.295 2.87 2.87v1.54"/></g><path d="M10.92 16.835c1.643 0 2.975-1.332 2.975-2.975s-1.332-2.975-2.975-2.975-2.975 1.332-2.975 2.975 1.332 2.975 2.975 2.975z"/></g><defs><clipPath id="A"><path fill="#fff" d="M0 0h35v35H0z"/></clipPath></defs></svg>
