<svg xmlns="http://www.w3.org/2000/svg" width="50" height="50" fill="none"  stroke="#e62334" stroke-width="2"><g stroke-miterlimit="10"><g stroke-linecap="round" stroke-linejoin="round"><path d="M10.4 37.5H3.7c-1.2 0-2.15-.95-2.15-2.15v-19c0-1.2.95-2.15 2.15-2.15h42.7c1.2 0 2.15.95 2.15 2.15v19c0 1.2-.95 2.15-2.15 2.15h-7"/><path d="M10.4 14.25V1.45h28.95v12.8"/></g><path d="M39.35 28.35H10.4V48.5h28.95V28.35z" stroke-linejoin="round"/><path d="M17.25 42.75H32.4M17.25 37.5H32.4" stroke-linejoin="round" stroke-linecap="round"/></g><path d="M40.5 21.2a1.15 1.15 0 0 1-2.3 0 1.15 1.15 0 0 1 2.3 0z" fill="#e62334"/></svg>
