<svg xmlns="http://www.w3.org/2000/svg" width="50" height="50" fill="none" ><style><![CDATA[.B{stroke-linejoin:round}.C{stroke-linecap:round}]]></style><g stroke="#e62334" stroke-width="2" stroke-miterlimit="10" class="B"><path d="M10.5 36.35l5.7 5.7-5.7 5.7m5.15-5.7H1.25V17.6H4.3" class="C"/><path d="M48.6 17.6H20.85v29.65H48.6V17.6z"/><g class="C"><path d="M20.85 27.5c0-.1 27.75 0 27.75 0M20.85 37.65c0-.1 27.75 0 27.75 0m-23.95-16.9v3.5m3.95-3.5v3.5m11.351-1.75h3.5M24.65 30.85v3.5m3.95-3.5v3.5m11.351-1.75h3.5M24.65 40.75v3.5m3.95-3.5v3.5m11.351-1.75h3.5M20.85 32.1H7.8V2.45h27.75V17.6"/><path d="M7.8 12.3c0-.1 27.75 0 27.75 0M7.8 22.5c0-.1 13.05 0 13.05 0M11.601 5.6v3.5m3.949-3.5v3.5m11.351-1.75h3.5m-18.8 8.3v3.55m3.949-3.55v3.55m-3.949 6.4v3.5m3.949-3.5v3.5"/></g></g></svg>
