<svg width="35" height="35" fill="none"  stroke="#e62334" stroke-width="1.5" stroke-miterlimit="10"><path d="M12.075 33.53H7.56a4.08 4.08 0 0 1-4.095-4.095V5.565A4.08 4.08 0 0 1 7.56 1.47h16.8a4.08 4.08 0 0 1 4.095 4.095v8.4m-19.88-4.41h14.7m-14.7 5.46h14.7m-14.7 5.495H17.5" stroke-linecap="round" stroke-linejoin="round"/><path d="M26.705 19.74c1.12-1.12 2.905-1.12 3.99 0 1.12 1.12 1.12 2.905 0 3.99l-7.21 7.245-5.495 1.505 1.505-5.53 7.21-7.21z" stroke-linejoin="round"/><path d="M25.55 20.86l4.025 4.025" stroke-linecap="round" stroke-linejoin="round"/></svg>
