<svg width="35" height="35" fill="none"  stroke="#e62334" stroke-width="1.5" stroke-miterlimit="10" stroke-linejoin="round"><path d="M21.455 15.26c-1.435 0-2.59-1.155-2.59-2.59V4.13c0-1.435 1.155-2.59 2.59-2.59s2.59 1.155 2.59 2.59v8.54c0 1.435-1.155 2.59-2.59 2.59zm-8.4 18.06c-1.435 0-2.59-1.155-2.59-2.59v-8.54c0-1.435 1.155-2.59 2.59-2.59s2.59 1.155 2.59 2.59v8.54c0 1.435-1.155 2.59-2.59 2.59zm20.16-11.62c0 1.435-1.155 2.59-2.59 2.59h-8.54c-1.435 0-2.59-1.155-2.59-2.59s1.155-2.59 2.59-2.59h8.54c1.435 0 2.59 1.155 2.59 2.59zm-18.2-8.54c0 1.435-1.155 2.59-2.59 2.59h-8.54c-1.435 0-2.59-1.155-2.59-2.59s1.155-2.59 2.59-2.59h8.54c1.435.035 2.59 1.19 2.59 2.59zm15.575-3.15a2.62 2.62 0 0 0-2.625 2.625v2.625h2.625a2.62 2.62 0 0 0 2.625-2.625 2.6 2.6 0 0 0-2.625-2.625zM3.955 24.71a2.62 2.62 0 0 0 2.625-2.625V19.46H3.955a2.625 2.625 0 1 0 0 5.25zm17.535 8.61a2.62 2.62 0 0 1-2.625-2.625V28.07h2.625a2.62 2.62 0 0 1 2.625 2.625c.035 1.435-1.155 2.625-2.625 2.625zM12.495 1.47a2.62 2.62 0 0 1 2.625 2.625V6.72h-2.625A2.62 2.62 0 0 1 9.87 4.095c-.035-1.47 1.155-2.625 2.625-2.625z"/></svg>
