<svg xmlns="http://www.w3.org/2000/svg" width="35" height="35" fill="none"  stroke="#e62334" stroke-width="1.5" stroke-miterlimit="10" stroke-linecap="round" stroke-linejoin="round"><path d="M25.445.805l8.68 8.715M20.3 3.885L31.045 14.63"/><path d="M27.616 2.975l-4.095 4.13m8.714.525l-4.095 4.095M21.945 5.53L7.49 19.985a2.43 2.43 0 0 0 0 3.43l3.92 3.92a2.43 2.43 0 0 0 3.43 0L29.295 12.88"/><path d="M7.245 23.1l-.98.98c-1.295 1.295-1.295 3.395 0 4.725 1.295 1.295 3.395 1.295 4.725 0l.98-.98"/><path d="M6.23 28.805L.91 34.16m21.245-21.07l3.5 3.5m-5.11-.035l2.59 2.555m-6.65-.35l3.5 3.5m-5.74.595l2.59 2.555"/></svg>
