<svg width="50" height="50" fill="none"><style><![CDATA[.B{stroke-linejoin:round}.C{stroke-linecap:round}]]></style><g stroke="#e62334" stroke-width="2" stroke-miterlimit="10" class="B"><path d="M4.351 18.55c2.75-9.05 10.85-15.6 20.45-15.6 9.8 0 18.1 6.85 20.6 16.2M9.95 16.85l-5.8 2.5-2.6-6.05M45.9 31.451c-2.7 9.05-10.8 15.6-20.4 15.6-9.8 0-18.1-6.85-20.6-16.2m35.9 2.099l5.35-2.3 2.5 5.9" class="C"/><path d="M24.7 29.551a4.4 4.4 0 1 0 0-8.8 4.4 4.4 0 1 0 0 8.8z"/><g class="C"><path d="M27.45 17.2c.45.15.9.35 1.3.55m-11.3 3.1l-2.5-2.5c-.4-.4-.4-1 0-1.4L17 14.9c.4-.4 1-.4 1.4 0l2.7 2.7m-4.55 9.85H13.2c-.55 0-1-.45-1-1v-2.9c0-.55.45-1 1-1h3.45M20.8 32.7l-2.45 2.45c-.4.4-1 .4-1.4 0L14.9 33.1c-.4-.4-.4-1 0-1.4l2.4-2.4m10.15 3.85v3.55c0 .55-.45 1-1 1h-2.9c-.55 0-1-.45-1-1v-3.35m9.75-4.45l2.6 2.6c.4.4.4 1 0 1.4l-2.05 2.05c-.4.4-1 .4-1.4 0l-2.5-2.5m3.75-9.9h3.85c.55 0 1 .45 1 1v2.9c0 .55-.45 1-1 1H32.8m-4.049-9.699l2.7-2.7c.4-.4 1-.4 1.4 0l2.05 2.05c.4.4.4 1 0 1.4l-2.75 2.75"/><path d="M22.6 17v-3.7c0-.55.45-1 1-1h2.9c.55 0 1 .45 1 1v3.9m-6.45.351c.5-.25 1-.4 1.5-.55m-5.9 5.549c.2-.6.45-1.2.8-1.75m-.15 8.5c-.3-.6-.6-1.2-.75-1.85m6.05 5.9c-.6-.15-1.2-.4-1.75-.65m8.1-.25c-.5.3-1 .5-1.5.7m5.4-5.7c-.15.5-.3 1-.55 1.45m-.15-7.7c.25.45.4.85.55 1.35"/></g></g></svg>
