<svg width="35" height="35" fill="#e62334" ><path d="M3.185 13.615h-1.4A1.09 1.09 0 0 1 .7 12.53a1.09 1.09 0 0 1 1.085-1.085H6.86a1.09 1.09 0 0 1 1.085 1.085 1.09 1.09 0 0 1-1.085 1.085h-1.4v8.75a1.13 1.13 0 0 1-1.12 1.12 1.13 1.13 0 0 1-1.12-1.12c-.035 0-.035-8.75-.035-8.75zm15.016 5.11h-2.065c-.63 0-1.12-.49-1.12-1.12s.49-1.12 1.12-1.12h3.745c.49 0 .91.385.91.875l-.035.77c-.28 2.87-2.59 5.18-5.425 5.46a6.1 6.1 0 0 1-6.685-6.685 6.11 6.11 0 0 1 5.425-5.425c1.47-.14 2.835.21 3.955.945.35.245.595.665.56 1.12a1.23 1.23 0 0 1-1.015 1.085c-.315.035-.63-.035-.84-.175a3.66 3.66 0 0 0-2.45-.56c-1.68.21-3.01 1.575-3.22 3.22a3.66 3.66 0 0 0 3.675 4.095 3.71 3.71 0 0 0 3.465-2.485zm6.194 4.9c-.63 0-1.12-.49-1.12-1.12v-9.94c0-.63.49-1.12 1.12-1.12s1.12.49 1.12 1.12v9.94c.035.595-.49 1.12-1.12 1.12zm6.09-5.04v3.885c0 .63-.49 1.12-1.12 1.12s-1.12-.49-1.12-1.12v-9.905c0-.63.49-1.12 1.12-1.12h3.85a1.18 1.18 0 0 1 1.19 1.19 1.18 1.18 0 0 1-1.19 1.19h-2.73v2.59h2.345a1.13 1.13 0 0 1 1.12 1.12 1.13 1.13 0 0 1-1.12 1.12l-2.345-.07z"/></svg>
