<svg width="50" height="50" fill="none" ><g clip-path="url(#A)" stroke="#e62334" stroke-width="2" stroke-miterlimit="10" stroke-linejoin="round"><path d="M4.45 31.25h-2A1.56 1.56 0 0 1 .9 29.7a1.56 1.56 0 0 1 1.55-1.55H9.7a1.56 1.56 0 0 1 1.55 1.55 1.56 1.56 0 0 1-1.55 1.55h-2v12.5c0 .9-.75 1.6-1.6 1.6-.9 0-1.6-.75-1.6-1.6-.05 0-.05-12.5-.05-12.5zm21.45 7.301h-2.95a1.58 1.58 0 0 1-1.6-1.6 1.58 1.58 0 0 1 1.6-1.6h5.35c.7 0 1.3.55 1.3 1.25l-.05 1.1c-.4 4.1-3.7 7.4-7.75 7.8-5.5.55-10.1-4.05-9.55-9.55a8.73 8.73 0 0 1 7.75-7.75c2.1-.2 4.05.3 5.65 1.35.5.35.85.95.8 1.6-.05.75-.7 1.45-1.45 1.55-.45.05-.9-.05-1.2-.25a5.23 5.23 0 0 0-3.5-.8 5.36 5.36 0 0 0-4.6 4.6 5.23 5.23 0 0 0 5.25 5.85c2.25-.05 4.2-1.5 4.95-3.55zm8.85 6.95a1.58 1.58 0 0 1-1.6-1.6v-14.2a1.58 1.58 0 0 1 1.6-1.6 1.58 1.58 0 0 1 1.6 1.6v14.2a1.58 1.58 0 0 1-1.6 1.6zm8.65-7.15v5.55a1.6 1.6 0 1 1-3.2 0v-14.2a1.58 1.58 0 0 1 1.6-1.6h5.5c.95 0 1.7.75 1.7 1.7s-.75 1.7-1.7 1.7h-3.9v3.7h3.35c.85 0 1.6.7 1.6 1.6 0 .85-.7 1.6-1.6 1.6l-3.35-.05zM17.2 11.85l-.8 2.45-1.9-1.7-2.4.9.1-2.55-2.2-1.3 2.05-1.55-.35-2.5 2.45.65 1.8-1.85 1 2.35 2.55.2-1.2 2.3 1.45 2.1-2.55.5z"/><g stroke-linecap="round"><path d="M17 12.5l8.4 11.15M13.85 25.5l1.35-12.25m-1.35 12.251c2.15-1.5 4.8-2.45 7.65-2.45 1.35 0 2.65.2 3.9.6"/></g></g><defs><clipPath id="A"><path fill="#fff" d="M0 0h50v50H0z"/></clipPath></defs></svg>
