<svg xmlns="http://www.w3.org/2000/svg" width="35" height="35" fill="none"  stroke="#e62334" stroke-width="1.5" stroke-miterlimit="10" stroke-linecap="round" stroke-linejoin="round"><path d="M17.57 1.19l-6.44 6.44h3.185v5.425M17.57 1.19l6.44 6.44h-3.185v13.475M1.33 16.31l6.44 6.44v-3.185h5.32c.7 0 1.26.56 1.26 1.26V33.53M1.33 16.31l6.44-6.405v3.15h1.715"/><path d="M9.17 13.055h3.99a7.65 7.65 0 0 1 7.63 7.63m12.845 3.675l-6.44 6.44v-3.185H21.91c-.63 0-1.12.49-1.12 1.12v4.83"/><path d="M33.635 24.36l-6.44-6.44v3.185h-5.53c-4.025 0-7.315 3.29-7.315 7.315v5.145"/></svg>
