<svg width="50" height="50" fill="none" ><g clip-path="url(#A)" stroke="#e62334" stroke-width="2" stroke-miterlimit="10" stroke-linejoin="round"><path d="M43.499 8.5H6.649v16.25h36.85V8.5z"/><path d="M12.05 24.75v3.7H38.1v-3.7" stroke-linecap="round"/><path d="M3.95 41.55a3 3 0 1 0 0-6 3 3 0 1 0 0 6zm42.05 0a3 3 0 1 0 0-6 3 3 0 1 0 0 6zm-20.95 0a3 3 0 1 0 0-6 3 3 0 1 0 0 6z"/><g stroke-linecap="round"><path d="M28.1 38.55h14.85M7 38.55h15.05m3-10.1v7.1m-9.7-22.3l2.7 6.75"/><path d="M20.749 13.25l-2.7 6.75m5 0v-6.75h2.65c1.1 0 2 .9 2 2s-.9 2-2 2h-2.65m11.751-4V20l-4.7-6.75V20"/></g></g><defs><clipPath id="A"><path fill="#fff" d="M0 0h50v50H0z"/></clipPath></defs></svg>
