<svg width="50" height="50" fill="none"  stroke="#e62334" stroke-width="1.5" stroke-miterlimit="10" stroke-linejoin="round"><path d="M38 38.75V22.4c0-7.2-5.8-13-13-13s-13 5.8-13 13v16.35h26z"/><path d="M23.399 30.65c-1.55-.65-2.7-2.15-2.7-3.95 0-2.35 1.9-4.25 4.25-4.25s4.25 1.9 4.25 4.25c0 1.65-.95 3.1-2.35 3.8" stroke-linecap="round"/><path d="M41.2 43.55H8.8v-2.4c0-1.35 1.1-2.45 2.45-2.45H38.8c1.35 0 2.45 1.1 2.45 2.45v2.4h-.05z"/><path d="M43.349 48.401H6.699v-2.7c0-1.2.95-2.15 2.15-2.15h32.35c1.2 0 2.15.95 2.15 2.15v2.7z"/><path d="M23.399 30.65v8.1m3.55-8.25v8.25M25 5.1V1.9m18.35 22.151h3.55m-6.201-9.101l3.05-1.8M34.1 7.4l2.3-2.65M6.65 24.25H3.1m6.2-9.149l-3.05-1.75M15.9 7.55L13.6 4.9" stroke-linecap="round"/></svg>
