<svg width="50" height="50" fill="none"  stroke="#e62334" stroke-width="1.5" stroke-miterlimit="10" stroke-linejoin="round"><path d="M20.8 36.55c8.726 0 15.8-7.074 15.8-15.8s-7.074-15.8-15.8-15.8S5 12.024 5 20.75s7.074 15.8 15.8 15.8z"/><path d="M20.801 40.5c10.908 0 19.75-8.842 19.75-19.75S31.708 1 20.801 1 1.051 9.842 1.051 20.75 9.893 40.5 20.801 40.5z"/><path d="M47.75 42.85a3.429 3.429 0 1 1-4.85 4.85m4.851-4.85l-10.8-10.8M42.9 47.7L32.15 36.9" stroke-linecap="round"/><path d="M11.701 20.85a2.5 2.5 0 1 0 0-5 2.5 2.5 0 1 0 0 5zM30 19.4a2.5 2.5 0 0 0 0-5 2.5 2.5 0 0 0 0 5zM41.65 7.75a2.5 2.5 0 1 0 0-5 2.5 2.5 0 1 0 0 5zM20 29.15a2.5 2.5 0 1 0 0-5 2.5 2.5 0 1 0 0 5z"/><path d="M5.15 18.35H9.2M13.551 20l4.8 4.8M37.25 9.85l2.8-2.65m-8.299 7.95l2.6-2.5M21.701 24.8l6.45-6.2M44.15 5.25h4.7" stroke-linecap="round"/></svg>
