<svg xmlns="http://www.w3.org/2000/svg" width="35" height="35" fill="none"  stroke="#e62334" stroke-width="1.5" stroke-miterlimit="10" stroke-linecap="round" stroke-linejoin="round"><path d="M27.755 15.68H30.8s.21 6.86-4.9 10.255v7.98H13.02V29.47m-2.555-13.79h-3.99l-2.59 4.585a1.29 1.29 0 0 0 1.12 1.925H7.49l.56 5.845c.105 1.155 1.19 1.995 2.345 1.785l4.41-.77c1.33-.245 2.485-1.05 3.185-2.205l1.68-2.835m.49-22.925v8.05h8.54m.21 2.975h-6.405l4.62 4.55"/><path d="M17.325 1.19v10.15l7.63 7.525M20.16 1.085c4.375.455 7.875 3.78 8.645 8.05"/><path d="M24.955 18.865c-1.645 1.19-3.675 1.925-5.845 1.925a9.86 9.86 0 0 1-9.87-9.87 9.92 9.92 0 0 1 8.085-9.73M28.91 12.11c-.21 1.68-.84 3.22-1.785 4.515"/></svg>
