<svg width="50" height="50" fill="none"  stroke="#e62334" stroke-width="1.5" stroke-miterlimit="10" stroke-linecap="round" stroke-linejoin="round"><path d="M13.9 7.25c3.2 0 3.55 5.25 0 5.6-3.15.35-5.8-2.15-5.8-5.1 0-3.55 2.65-6.2 5.85-6.2H25.2m-11.301 11.3v3.1a2.69 2.69 0 0 0 2.7 2.7h8.55"/><path d="M24.999 12.85h-11.1m8.3 11.15v17.7M16.6 18.65V47.5m-2.701 0h11.25m11.2-40.25c-3.2 0-3.55 5.25 0 5.6 3.15.35 5.8-2.15 5.8-5.1 0-3.55-2.65-6.2-5.85-6.2h-11.15m11.25 11.3v3.1a2.69 2.69 0 0 1-2.7 2.7h-8.55"/><path d="M25.3 12.85h11.1M28.1 24v17.7m5.599-23.05V47.5m2.7 0h-11.25"/></svg>
