<svg width="50" height="50" fill="none" ><path d="M50 25c0 13.807-11.193 25-25 25S0 38.807 0 25C0 25.006 25 .003 25 0c13.807 0 25 11.193 25 25z" fill="#0052b4"/><g fill="#f0f0f0"><path d="M24.933 25H25v-.067l-.067.067z"/><path d="M25 13.044L24.996.001C11.191.003 0 11.195 0 25.001h13.044v-7.345l7.345 7.345h4.545l.067-.067V20.39l-7.345-7.345H25z"/></g><path d="M12.649 3.261a25.12 25.12 0 0 0-9.387 9.387V25h6.522V9.783h15.217V3.261H12.649zm12.352 18.664l-8.882-8.882h-3.074L25.001 25v-3.074z" fill="#d80027"/><path d="M15.078 29.348l1.372 2.869 3.098-.716-1.387 2.862 2.492 1.976-3.102.699.009 3.18-2.481-1.99-2.481 1.99.009-3.18-3.102-.699 2.492-1.976-1.388-2.862 3.098.716 1.372-2.869zm22.354 5.434l.686 1.435 1.549-.358-.694 1.431 1.246.988-1.551.35.004 1.59-1.24-.995-1.24.995.004-1.59-1.551-.35 1.246-.988-.694-1.431 1.549.358.686-1.434zm-6.383-15.217L31.735 21l1.549-.358-.694 1.431 1.246.988-1.551.35.004 1.59-1.24-.995-1.24.995.004-1.59-1.551-.35 1.246-.988-.694-1.431 1.549.358.686-1.435zm6.383-8.696l.686 1.435 1.549-.358-.694 1.431 1.246.988-1.551.35.004 1.59-1.24-.995-1.24.995.004-1.59-1.551-.35 1.246-.988-.694-1.431 1.549.358.686-1.435zm5.574 6.522l.686 1.435 1.549-.358-.694 1.431 1.246.988-1.551.35.004 1.59-1.24-.995-1.241.995.004-1.59-1.551-.35 1.246-.988-.694-1.431 1.549.358.686-1.435zM39.019 25l.54 1.661h1.746l-1.413 1.027.54 1.661-1.413-1.026-1.413 1.026.54-1.661-1.413-1.027h1.746l.54-1.661z" fill="#f0f0f0"/></svg>
