<svg width="50" height="50" fill="none"  stroke="#e62334" stroke-width="1.5" stroke-miterlimit="10" stroke-linejoin="round"><path d="M14.8 10.4c7.18 0 13-1.858 13-4.15s-5.82-4.15-13-4.15-13 1.858-13 4.15 5.82 4.15 13 4.15z"/><g stroke-linecap="round"><path d="M27.8 32.25c0 2.3-5.85 4.15-13 4.15s-13-1.85-13-4.15m26-8.6c0 2.3-5.85 4.15-13 4.15s-13-1.85-13-4.15m26-8.5c0 2.3-5.85 4.15-13 4.15s-13-1.85-13-4.15m26-8.9v26m-26-26v26m46.15 7.05c0 4.8-3.9 8.75-8.75 8.75a8.73 8.73 0 0 1-8.75-8.75 8.73 8.73 0 0 1 8.75-8.75h5.65"/><path d="M40.55 26.25l4.3 4.3-4.3 4.3"/></g></svg>
