<svg xmlns="http://www.w3.org/2000/svg" width="50" height="50" fill="none"  stroke="#e62334" stroke-width="1.5" stroke-miterlimit="10" stroke-linejoin="round"><path d="M17.65 1.15H13.3v29.8h4.35V1.15zm8.75 35.2H4.75v-2.5A2.85 2.85 0 0 1 7.6 31h15.9a2.85 2.85 0 0 1 2.85 2.85v2.5h.05z"/><g stroke-linecap="round"><path d="M17.65 25.6H13.3m17.4 2.95c-.15-.35-.25-.75-.25-1.15A2.56 2.56 0 0 1 33 24.85a2.56 2.56 0 0 1 2.55 2.55c0 .35-.05.7-.2 1m-3.6 11.95c.1-.35.35-.7.6-1 1-1 2.65-1 3.65 0S37 42 36 43c-.25.25-.55.45-.85.55m2.5-12.3c.85-.75 1.95-1.2 3.2-1.2a4.91 4.91 0 0 1 4.9 4.9c0 1.35-.55 2.55-1.45 3.45m-5.2 8c.9 1.35 2.5 2.25 4.25 2.25 2.85 0 5.15-2.3 5.15-5.15 0-2.5-1.75-4.55-4.1-5.05m-26.35 4.6a23.49 23.49 0 0 1-2.45 5.9m-4.85-5.9a23.49 23.49 0 0 1-2.45 5.9"/><path d="M1.3 48.9h21.65M4.75 36.35s0 6.85-3.5 12.55M26.4 36.35s0 6.85-3.5 12.55"/></g></svg>
