<svg width="50" height="50" fill="none"  stroke="#e62334" stroke-width="1.5" stroke-miterlimit="10" stroke-linejoin="round"><path d="M19.3 48.35H5.9V31.9h13.4v16.45z"/><path d="M5.9 37.2h13.4M5.9 42.8h13.4m3.101-15.55h-9.8v4.65" stroke-linecap="round"/><path d="M29.851 48.35h13.4V31.9h-13.4v16.45z"/><g stroke-linecap="round"><path d="M43.251 37.2h-13.4m13.4 5.6h-13.4M26.7 27.25h9.85v4.65M18.9 7.9a5.96 5.96 0 0 0-2.8-.7 5.93 5.93 0 0 0-5.95 5.95 5.93 5.93 0 0 0 5.95 5.95h16.85a5.93 5.93 0 0 0 5.95-5.95 5.93 5.93 0 0 0-5.95-5.95c-1.25 0-2.35.35-3.3 1M23.1 5.5c0-1.85-1.5-3.3-3.3-3.3-1.85 0-3.3 1.5-3.3 3.3a3.41 3.41 0 0 0 .5 1.75"/><path d="M33.8 7.2c-.65-3.2-3.5-5.6-6.9-5.6-1.8 0-3.4.65-4.65 1.75"/></g><path d="M24.5 29.05a2.1 2.1 0 1 0 0-4.2 2.1 2.1 0 0 0 0 4.2z"/><path d="M24.5 24.9v-5.85" stroke-linecap="round"/></svg>
