<svg width="35" height="35" fill="none"  stroke="#e62334" stroke-width="1.5" stroke-miterlimit="10" stroke-linejoin="round"><path d="M6.475 2.52H1.89v4.585h4.585V2.52zm13.3 0H15.19v4.585h4.585V2.52zm13.02 0H28.21v4.585h4.585V2.52z"/><path d="M15.19 4.829H6.475m13.336 0h8.4" stroke-linecap="round"/><path d="M5.46 18.095H.875v4.585H5.46v-4.585z"/><path d="M3.186 18.095c0-5.775 5.635-12.25 12.005-12.25" stroke-linecap="round"/><path d="M29.541 22.682h4.585v-4.585h-4.585v4.585z"/><path d="M31.816 18.095c0-5.775-5.635-12.25-12.005-12.25m-2.556 1.259l-4.795 8.925 2.38 7.49m2.905-16.415l4.795 8.925-2.38 7.49" stroke-linecap="round"/><path d="M22.61 23.52H12.39v10.22h10.22V23.52z"/><path d="M17.5 7.104v7.42" stroke-linecap="round"/><path d="M17.5 18.094c.986 0 1.785-.799 1.785-1.785s-.799-1.785-1.785-1.785-1.785.799-1.785 1.785.799 1.785 1.785 1.785z"/></svg>
