<svg width="50" height="50" fill="none" ><style><![CDATA[.B{stroke-linecap:round}]]></style><g stroke="#e62334" stroke-width="1.5" stroke-miterlimit="10" stroke-linejoin="round"><path d="M48.65 38h-11v11h11V38z"/><g class="B"><path d="M31.2 31.4l4.15 4.15"/><path d="M35.35 31.4v4.25h-4.2"/></g><path d="M12.95 1.7h-11v11h11v-11z"/><path d="M5.5 7.2l1.55 1.45L9.4 5.8" class="B"/><path d="M27.7 1.7h-11v11h11v-11z"/><path d="M20.3 7.2l1.55 1.45 2.3-2.85" class="B"/><path d="M42.5 1.7h-11v11h11v-11z"/><path d="M35.05 7.2l1.55 1.45 2.35-2.85" class="B"/><path d="M12.95 16.3h-11v11h11v-11z"/><path d="M5.5 21.75l1.55 1.5 2.35-2.9" class="B"/><path d="M27.7 16.3h-11v11h11v-11z"/><path d="M20.3 21.75l1.55 1.5 2.3-2.9" class="B"/><path d="M12.95 30.9h-11v11h11v-11z"/><path d="M5.5 36.35l1.55 1.5 2.35-2.9" class="B"/><path d="M27.7 30.9h-11v11h11v-11z"/><path d="M20.3 36.35l1.55 1.5 2.3-2.9" class="B"/><path d="M42.5 16.4h-11v11h11v-11z"/><path d="M35.05 21.85l1.55 1.45 2.35-2.85m4.2 20.45v2.5m0 2.6v.05" class="B"/></g></svg>
