<svg width="50" height="50" fill="none"  stroke="#e62334" stroke-width="1.5" stroke-miterlimit="10"><g stroke-linecap="round" stroke-linejoin="round"><path d="M39.149 16.05c.65.2 1.35.3 2.05.3a7.58 7.58 0 0 0 7.55-7.55c0-4.15-3.35-7.55-7.55-7.55a7.51 7.51 0 0 0-7.55 7.55c0 .65.1 1.3.25 1.9M1.4 7.8c-.05.35-.05.65-.05 1 0 .65.1 1.3.25 1.9m32.299 0l5.25 5.4m-28.45 17.75c-.55-.15-1.15-.2-1.75-.2a7.58 7.58 0 0 0-7.55 7.55 7.58 7.58 0 0 0 7.55 7.55 7.58 7.58 0 0 0 7.55-7.55c0-.75-.1-1.5-.3-2.2"/><path d="M33.899 10.7l-23.2 23.15 5.45 5.15 22.95-22.95M19.55 25l-8.8-8.75M30.199 25l9.05 9-5.5 5.2-8.85-8.9m-8.75-19.35l8.75 8.7M4.35 2.75L8.8 5.3v3.35M1.399 7.8l4.55 2.55 2.85-1.7"/><path d="M4.4 2.8c1.25-.95 2.85-1.5 4.55-1.5a7.58 7.58 0 0 1 7.55 7.55 7.58 7.58 0 0 1-7.55 7.55c-4.15 0-7.6-3.4-7.6-7.6 0-.35 0-.7.05-1.05M45.55 47.4l-4.45-2.55V41.5m7.4.9l-4.55-2.55-2.85 1.65M39.249 34c.55-.15 1.15-.2 1.75-.2a7.58 7.58 0 0 1 7.55 7.55l-.05 1.05m-2.95 5c-1.25.95-2.85 1.5-4.55 1.5a7.58 7.58 0 0 1-7.55-7.55c0-.75.1-1.5.3-2.15"/></g><path d="M44.1 7.15v3.3l-2.9 1.65-2.9-1.65.05-3.35 2.9-1.65 2.85 1.7zM11.699 39.6l-.05 3.35-2.9 1.65-2.85-1.7v-3.3l2.9-1.65 2.9 1.65z" stroke-linejoin="round"/></svg>
