<svg width="50" height="50" fill="none"  stroke="#e62334" stroke-width="1.5" stroke-miterlimit="10" stroke-linejoin="round"><path d="M41.2 32.45H8.65a1.9 1.9 0 0 1-1.9-1.9v-11a1.9 1.9 0 0 1 1.9-1.9H41.2a1.9 1.9 0 0 1 1.9 1.9v11c.05 1.05-.85 1.9-1.9 1.9zM25 10.6a3.65 3.65 0 0 0 0-7.3 3.65 3.65 0 0 0 0 7.3zm18.15 0a3.65 3.65 0 0 0 0-7.3 3.65 3.65 0 0 0 0 7.3zm-36.45 0a3.65 3.65 0 0 0 0-7.3 3.65 3.65 0 0 0 0 7.3z"/><path d="M25 10.55v7.1m-18.3-7.1v1.8c0 .95.8 1.75 1.75 1.75h7.25c.95 0 1.75.8 1.75 1.75v1.5m25.7-6.8v1.8c0 .95-.8 1.75-1.75 1.75h-7.3c-.95 0-1.75.8-1.75 1.75v1.5" stroke-linecap="round"/><path d="M25 46.8a3.65 3.65 0 1 0 0-7.3 3.65 3.65 0 1 0 0 7.3zm18.15 0a3.65 3.65 0 1 0 0-7.3 3.65 3.65 0 1 0 0 7.3zm-36.45 0a3.65 3.65 0 1 0 0-7.3 3.65 3.65 0 1 0 0 7.3z"/><path d="M25 39.5v-7.05M6.7 39.5v-1.8c0-.95.8-1.75 1.75-1.75h7.25c.95 0 1.75-.8 1.75-1.75v-1.5m25.7 6.8v-1.8c0-.95-.8-1.75-1.75-1.75h-7.3c-.95 0-1.75-.8-1.75-1.75v-1.5M15.199 22.1h-3.8v6.2h3.8v-2.8h-.95" stroke-linecap="round"/><path d="M18.95 22.1v6.2h3.15c.55 0 1-.45 1-1v-4.2c0-.55-.45-1-1-1h-3.15z"/><path d="M26.55 28.3v-6.2h3.3a.77.77 0 0 1 .75.75v1.6a.77.77 0 0 1-.75.75h-3.3m7.3 3.1v-6.2h3.3a.77.77 0 0 1 .75.75v1.6a.77.77 0 0 1-.75.75h-3.3m1.95 0l2.5 3.1" stroke-linecap="round"/></svg>
