<svg width="50" height="50" fill="none"  stroke="#e62334" stroke-width="1.5" stroke-miterlimit="10" stroke-linejoin="round"><path d="M36.1 38.05h-22c-1.1 0-2-.9-2-2v-22c0-1.1.9-2 2-2h22c1.1 0 2 .9 2 2v22c0 1.1-.9 2-2 2z"/><path d="M40.2 44.6H10.05a4.48 4.48 0 0 1-4.5-4.5V9.95a4.48 4.48 0 0 1 4.5-4.5H40.2a4.48 4.48 0 0 1 4.5 4.5V40.1c0 2.5-2.05 4.5-4.5 4.5z"/><path d="M16.35 5.45v-4.3m8.7 4.3v-4.3m8.7 4.3v-4.3M16.35 48.9v-4.3m8.7 4.3v-4.3m8.7 4.3v-4.3M5.45 33.7H1.1m4.35-8.65H1.1m4.35-8.7H1.1M48.899 33.7h-4.2m4.2-8.65h-4.2m4.2-8.7h-4.2M12.1 18.65h26m-19.701 19.4v-6.1h6.7m6.701 6.1v-6.1h-6.7" stroke-linecap="round"/></svg>
