<svg xmlns="http://www.w3.org/2000/svg" width="50" height="50" fill="none"  stroke="#e62334" stroke-width="1.5" stroke-miterlimit="10"><g stroke-linecap="round" stroke-linejoin="round"><path d="M42.95 40.5h2.45a2.56 2.56 0 0 1 2.55 2.55 2.56 2.56 0 0 1-2.55 2.55H25M42.95 9.15H25M47.95 43.1V6.6a2.56 2.56 0 0 0-2.55-2.55h-2.45v36.5m-35.9-.05h-2.4a2.56 2.56 0 0 0-2.55 2.55 2.56 2.56 0 0 0 2.55 2.55H25"/><path d="M7.05 9.15H25"/><path d="M2.05 43.1V6.6A2.58 2.58 0 0 1 4.65 4H7.1v36.5m26.75-14.85h3.55v3.25h-3.55m-3.75-9.15l2.4-2.45 2.35 2.35-2.5 2.45m-9.25-3.95V14.6h3.25v3.55"/><path d="M32.35 22.1c.7 1.05 1.2 2.25 1.45 3.55m-7.45-7.5a9 9 0 0 1 3.75 1.6m0 15.05l2.4 2.45 2.35-2.35-2.5-2.45M23.1 36.4v3.55h3.25V36.4m6-3.95c.7-1.05 1.2-2.25 1.45-3.55m-7.45 7.5a9 9 0 0 0 3.75-1.6m-14.5-9.15h-3.55v3.25h3.55m3.75-9.15L16.9 17.3l-2.3 2.35 2.45 2.45"/><path d="M17.05 22.1c-.7 1.05-1.2 2.25-1.45 3.55m7.5-7.5a9 9 0 0 0-3.75 1.6m0 15.05l-2.45 2.45-2.3-2.35 2.45-2.45m0 0c-.7-1.05-1.2-2.25-1.45-3.55m7.5 7.5a9 9 0 0 1-3.75-1.6"/></g><path d="M24.7 31.9a4.5 4.5 0 1 0 0-9 4.5 4.5 0 1 0 0 9z" stroke-linejoin="round"/></svg>
