<svg xmlns="http://www.w3.org/2000/svg" width="50" height="50" fill="none" ><style><![CDATA[.B{stroke-linejoin:round}.C{stroke-linecap:round}]]></style><g stroke="#e62334" stroke-width="1.5" stroke-miterlimit="10" class="B"><g class="C"><path d="M4.75 9.8V6.7c0-1.1.9-2 2-2h27.8M9.35 44.75h-2.6c-1.1 0-2-.9-2-2v-27.9m40.1 25.35v2.6c0 1.1-.9 2-2 2H14.8M39.85 4.7h3c1.1 0 2 .9 2 2v27.65"/><path d="M30.8 1.2l4.05 3.5M30.8 8.2l4.05-3.5M18.8 41.25l-4 3.5m4 3.55l-4-3.55m33.55-13.5l-3.5 4m-3.5-4l3.5 4m-36.6-17l-3.5-4m-3.5 4l3.5-4m20.1-4.6h1.05l.55 2.05m5.15 4.95l1.8.5v1.1m-5.001-5.749l1.7-1 1.55 1.55-.95 1.65m.9 1.949a6.92 6.92 0 0 0-.9-1.95m-2.3-2.2c-.6-.35-1.25-.65-1.95-.8m.001 13.1l-.55 2.05h-1.05m6.75-6.999l1.8-.45v-1.15M28.399 24l1.7 1 1.55-1.55-.95-1.65m.9-1.949a6.92 6.92 0 0 1-.9 1.95m-2.3 2.2c-.6.35-1.25.65-1.95.8M24.65 9.65h-1.1L23 11.7m-5.1 4.95l-1.85.5v1.1m5-5.749l-1.65-1-1.6 1.55.95 1.65"/><path d="M17.899 16.65a6.92 6.92 0 0 1 .9-1.95m2.251-2.2c.6-.35 1.25-.65 1.95-.8m1.65 15.15h-1.1L23 24.8m-5.1-4.949l-1.85-.45v-1.15m5 5.749l-1.65 1-1.6-1.55.95-1.65"/><path d="M17.899 19.851a6.92 6.92 0 0 0 .9 1.95m2.251 2.2c.6.35 1.25.65 1.95.8"/></g><path d="M24.749 21.85a3.6 3.6 0 1 0 0-7.2 3.6 3.6 0 1 0 0 7.2z"/><path d="M24.75 33.5v-6.65" class="C"/><path d="M27.95 33.5H21.5v4.85h6.45V33.5zm-10.2 0H11.3v4.85h6.45V33.5zm20.35 0h-6.45v4.85h6.45V33.5z"/><path d="M14.5 33.5v-1.6c0-.9.75-1.65 1.65-1.65h17c.9 0 1.65.75 1.65 1.65v1.6" class="C"/></g></svg>
