<svg width="50" height="50" fill="none" ><style><![CDATA[.B{stroke-linejoin:round}.C{stroke-linecap:round}]]></style><g stroke="#e62334" stroke-width="1.5" stroke-miterlimit="10" class="B"><path d="M41.6 15l.4-5 5.15 1.15M7.95 44.6l5-.4-1.15-5.15" class="C"/><path d="M30.401 16.35a2.5 2.5 0 1 0 0-5 2.5 2.5 0 0 0 0 5z"/><path d="M27.251 21.05V19.5c0-1.75 1.4-3.15 3.15-3.15s3.15 1.4 3.15 3.15v1.55" class="C"/><path d="M30.401 21.8a7.05 7.05 0 0 0 0-14.1 7.05 7.05 0 0 0 0 14.1zM13.75 27.9a2.5 2.5 0 1 0 0-5 2.5 2.5 0 1 0 0 5z"/><path d="M10.65 32.6v-1.55c0-1.75 1.4-3.15 3.15-3.15s3.15 1.4 3.15 3.15v1.55" class="C"/><path d="M13.75 33.3a7.05 7.05 0 1 0 0-14.1 7.05 7.05 0 1 0 0 14.1zm17.301 3.3a2.5 2.5 0 0 0 0-5 2.5 2.5 0 0 0 0 5z"/><path d="M27.9 41.3v-1.55c0-1.75 1.4-3.15 3.15-3.15s3.15 1.4 3.15 3.15v1.55" class="C"/><path d="M31.05 42a7.05 7.05 0 1 0 0-14.1 7.05 7.05 0 0 0 0 14.1z"/><path d="M42 10c3.55 4 5.7 9.25 5.7 15 0 12.5-10.2 22.7-22.7 22.7-2.35 0-4.65-.35-6.8-1.05m-5.25-2.45C6.55 40.2 2.3 33.1 2.3 25 2.3 12.5 12.5 2.3 25 2.3c4.7 0 9.05 1.45 12.7 3.85" class="C"/></g></svg>
