<svg width="50" height="50" fill="none"  stroke="#e62334" stroke-width="1.5" stroke-miterlimit="10" stroke-linecap="round" stroke-linejoin="round"><path d="M36.849 38.5h-14.2M20.5 29.9V2.15h19.6l7.55 7.55v28.8H43.4"/><path d="M40.1 2.15V9.7h7.55M40.1 20l3.3 8v16.65a3.33 3.33 0 0 1-3.3 3.3"/><path d="M40.1 20l-3.25 8v16.65a3.33 3.33 0 0 0 3.3 3.3M25.05 14.2H42.9m-17.85 4.4H35.3M12 25.1l10.65 6v10.2L12 47.65m0-22.55l-10.65 6v10.2L12 47.65"/><path d="M1.35 31.1l10.65 6v10.55m0-10.55l10.65-6"/><path d="M16.149 38.5l2.65-1.5m-10.6-9.75l10.6 5.95V37M5.25 28.9l10.65 6v3.75"/></svg>
