<svg width="50" height="50" fill="none" ><path d="M47.3 29.9c-.05 0-.15 0-.15-.05s-.15-.05-.3-.05c-.3-.05-.55-.05-.85-.05-.15 0-.3 0-.4-.05h-.05c-.75-.05-1.6-.2-2.35-.4-.2-.05-.4-.3-.5-.5h0l-.55-.15c.3-2 .15-4.1-.3-6.15-.5-2-1.3-3.95-2.45-5.7l.4-.4v-.05c0-.2.05-.5.2-.65.65-.55 1.25-1 1.95-1.4.15-.05.3-.15.4-.2.3-.15.5-.3.75-.4.05-.05.15-.05.2-.15.05-.05 0-.05 0-.15.65-.5.75-1.3.3-1.95-.2-.3-.65-.5-1-.5s-.7.15-1 .35l-.05.05c-.05.05-.15.15-.2.15-.2.2-.4.4-.55.65-.05.15-.2.2-.3.3A10.48 10.48 0 0 1 38.75 14c-.15.05-.3.15-.4.15-.05 0-.2 0-.3-.05H38l-.55.35-1.75-1.65c-2.6-2-5.8-3.25-9.05-3.6l-.05-.5c-.2-.15-.35-2.1-.2-2.95V5.5c0-.15.05-.3.05-.4.05-.3.05-.55.15-.85v-.4c.05-.7-.5-1.4-1.2-1.45-.4-.05-.85.15-1.2.5-.3.3-.4.65-.4 1v.35a2.54 2.54 0 0 0 .15.85c.05.15.05.3.05.4.15.75-.2 3.05-.2 3.05l-.05.55c-.75.05-1.55.2-2.35.35-3.25.7-6.25 2.45-8.55 4.9l-.4-.3h-.05c-.05 0-.15.05-.3.05s-.3-.05-.4-.15c-.65-.5-1.25-1.05-1.75-1.6-.05-.15-.2-.2-.3-.3-.2-.2-.35-.4-.55-.65-.05-.05-.15-.05-.2-.15l-.05-.05c-.3-.2-.65-.35-1-.35-.4 0-.75.15-1 .5-.4.65-.3 1.45.3 1.95.05 0 .05.05.05.05s.15.15.2.15c.2.15.5.3.75.4.15.05.3.15.4.2.7.4 1.4.85 1.95 1.4.15.15.3.4.2.65v-.05l.4.4c-.05.15-.15.2-.2.35-2.15 3.4-3.05 7.45-2.45 11.4L8 28.5c0 .05-.05.05-.05.05-.05.2-.3.35-.5.5a12.15 12.15 0 0 1-2.35.4c-.15 0-.3 0-.4.05-.3 0-.55.05-.85.05-.05 0-.15.05-.3.05-.05 0-.05 0-.15.05-.75.15-1.25.85-1.1 1.6.15.65.75 1.05 1.4 1 .15 0 .2 0 .35-.05.05 0 .05 0 .05-.05s.2 0 .3 0c.3-.05.55-.2.75-.3.15-.05.3-.15.4-.15h.05a11.13 11.13 0 0 1 2.3-.65H8c.2 0 .4.05.55.2.05 0 .05.05.05.05l.65-.05c1.05 3.2 3 6.05 5.7 8.15.65.5 1.2.9 1.9 1.25l-.35.5c0 .05.05.05.05.05.15.2.15.5.05.7a12.81 12.81 0 0 1-1.1 2v.05c-.05.15-.15.2-.3.35s-.3.4-.5.7c-.05.05-.05.15-.15.2 0 0 0 .05-.05.05-.35.7-.05 1.55.55 1.9.15.05.35.15.5.15.55 0 1.05-.35 1.3-.85 0 0 0-.05.05-.05 0-.05.05-.15.15-.2.05-.3.2-.5.3-.75l.15-.4c.2-.75.55-1.45.9-2.15.15-.2.35-.35.55-.4.05 0 .05 0 .05-.05l.3-.55c1.95.75 3.95 1.1 6.05 1.1 1.25 0 2.5-.15 3.75-.5.75-.15 1.55-.4 2.25-.65l.3.5c.05 0 .05 0 .05.05.2.05.4.2.55.4.35.7.7 1.4.9 2.15V45l.15.4c.05.3.15.55.3.75.05.05.05.15.15.2 0 0 0 .05.05.05.3.5.75.85 1.3.85.2 0 .35-.05.55-.15.3-.15.55-.4.65-.75.05-.35.05-.7-.05-1.05 0-.05-.05-.05-.05-.05 0-.05-.05-.15-.15-.2a2.51 2.51 0 0 0-.5-.7c-.05-.15-.15-.2-.3-.35v-.15c-.5-.65-.85-1.3-1.1-2-.05-.2-.05-.5.05-.7 0-.05.05-.05.05-.05l-.2-.55c3.55-2.15 6.25-5.5 7.5-9.45l.55.05c.05 0 .05-.05.05-.05.15-.15.35-.2.55-.2h.05c.75.15 1.55.35 2.25.65h.05c.15.05.3.15.4.15.3.15.5.3.75.35.05 0 .15.05.3.05.05 0 .05 0 .15.05a.85.85 0 0 0 .35.05c.65 0 1.2-.4 1.4-1 .1-.6-.5-1.15-1.1-1.3zm-20.15-2.15l-1.9.9-1.9-.9-.5-2 1.3-1.65h2.1l1.3 1.65-.4 2zM38.5 23.2c.35 1.45.4 2.95.3 4.4l-6.6-1.9c-.65-.15-1-.75-.85-1.4.05-.2.15-.35.3-.5l5.2-4.75c.75 1.3 1.3 2.7 1.65 4.15zm-3.75-6.65l-5.7 4.05c-.5.3-1.2.2-1.55-.3a.64.64 0 0 1-.2-.5l-.4-7.05c3.05.35 5.75 1.7 7.85 3.8zM22.15 13l1.4-.3-.35 6.95c0 .65-.55 1.1-1.2 1.1-.2 0-.35-.05-.55-.15l-5.8-4.1c1.85-1.7 4.05-2.95 6.5-3.5zm-8.5 6.1l5.15 4.6c.5.4.55 1.1.15 1.6a.82.82 0 0 1-.55.35l-6.75 1.95c-.25-2.9.45-5.9 2-8.5zm-1.2 11.8l6.9-1.2c.55 0 1.1.35 1.2.9.05.2.05.5-.05.7l-2.65 6.4a13.93 13.93 0 0 1-5.4-6.8zm15.85 8.6c-1 .2-1.95.35-3 .35-1.45 0-3-.3-4.4-.7l3.4-6.2c.35-.4.9-.55 1.4-.3.2.15.35.3.55.5l3.35 6.05c-.4.1-.85.2-1.3.3zm8.5-6.05c-1.05 1.65-2.5 3.15-4.2 4.2l-2.7-6.55a1.15 1.15 0 0 1 .6-1.35c.2-.05.4-.15.65-.15l6.95 1.2c-.35 1-.75 1.9-1.3 2.65z" stroke="#e62334" stroke-width="1.5" stroke-miterlimit="10" stroke-linejoin="round"/></svg>
