<svg xmlns="http://www.w3.org/2000/svg" width="50" height="50" fill="none"  stroke="#e62334" stroke-width="1.5" stroke-miterlimit="10" stroke-linejoin="round"><path d="M24.9 30.75c8.174 0 14.8-6.626 14.8-14.8s-6.626-14.8-14.8-14.8-14.8 6.626-14.8 14.8 6.626 14.8 14.8 14.8zm23.6 6.5h-47v11.4h47v-11.4z"/><path d="M9.1 43.05h.15m21.45 0h.2m-11 0h.2m5.2 0h.2m-11 0h.2m23.85-5.8V48.7m-3.7-21.8c-.5-4.65-4.7-8.25-9.85-8.25s-9.35 3.6-9.85 8.25" stroke-linecap="round"/><path d="M25 18.65a5.55 5.55 0 1 0 0-11.1 5.55 5.55 0 0 0 0 11.1z"/></svg>
