<svg width="50" height="50" fill="none"  stroke="#e62334" stroke-width="1.5" stroke-miterlimit="10" stroke-linejoin="round"><path d="M28.999 39.8c10.521 0 19.05-8.529 19.05-19.05S39.52 1.7 28.999 1.7s-19.05 8.529-19.05 19.05 8.529 19.05 19.05 19.05z"/><g stroke-linecap="round"><path d="M2.05 42.85a3.41 3.41 0 0 0 0 4.85 3.41 3.41 0 0 0 4.85 0m-4.85-4.85l11.3-11.3"/><path d="M6.85 47.7l11.3-11.3"/></g><path d="M28.999 26.6a5.85 5.85 0 1 0 0-11.7 5.85 5.85 0 1 0 0 11.7z"/><path d="M16.85 20.75s3.9 7 12.15 7 12.2-7 12.2-7-3.95-7-12.2-7-12.15 7-12.15 7z"/></svg>
