<svg xmlns="http://www.w3.org/2000/svg" width="35" height="35" fill="none"  stroke="#e62334" stroke-width="1.5" stroke-miterlimit="10" stroke-linejoin="round"><path d="M26.741 9.8a2.31 2.31 0 1 0 0-4.62 2.31 2.31 0 1 0 0 4.62z"/><path d="M26.74 13.93a6.44 6.44 0 1 0 0-12.88 6.44 6.44 0 1 0 0 12.88z"/><path d="M21.806 11.585c-.07-.105-14.14 4.76-14.14 4.76l-2.94-.525 1.295-3.745 1.435-.455 1.785.98 1.54-1.96 2.485.665 1.89-2.135 2.765.665 2.45-3.08M28 9.45c4.655 1.33 6.23 7.455 2.66 8.75-2.66.98-4.655-2.38-4.305-4.27" stroke-linecap="round"/><path d="M4.865 31.325H2.59a1.48 1.48 0 0 1-1.47-1.47v-9.59a1.48 1.48 0 0 1 1.47-1.47h2.275a1.48 1.48 0 0 1 1.47 1.47v9.59a1.48 1.48 0 0 1-1.47 1.47z"/><path d="M6.335 20.44s3.29-2.24 7.805-.77 4.095 3.92 10.08 3.43c2.87-.245 2.38 3.745-3.01 4.095-2.835.175-5.32-.735-5.355-.42 0 0 4.305 2.73 16.415.035 1.855-.42 2.03 1.855 1.54 2.275-3.255 2.835-13.685 4.41-17.5 4.2-3.78-.21-7.98-2.695-9.975-4.235" stroke-linecap="round"/></svg>
