<svg width="50" height="50" fill="none"  stroke="#e62334" stroke-width="1.5" stroke-miterlimit="10"><path d="M12.05 25.05a9.85 9.85 0 1 0 0 19.7m25.001-19.7a9.84 9.84 0 0 0 9.85-9.85c0-5.45-4.4-9.9-9.85-9.9h-6.2m-7.35 0H9.551M37.5 48.1V32h10.95L44 35.65l4.45 3.7H37.5M20.051 44.8h17.45" stroke-linecap="round" stroke-linejoin="round"/><path d="M25.05 25.05a3.7 3.7 0 1 1-7.4 0 3.7 3.7 0 1 1 7.4 0zM27.15 9a3.7 3.7 0 1 0 0-7.4 3.7 3.7 0 1 0 0 7.4zM5.85 9a3.7 3.7 0 1 0 0-7.4 3.7 3.7 0 1 0 0 7.4zM16.4 48.5a3.7 3.7 0 1 0 0-7.4 3.7 3.7 0 0 0 0 7.4z" stroke-linejoin="round"/><path d="M17.701 25.05h-5.65m25 0h-12" stroke-linejoin="round" stroke-linecap="round"/></svg>
