<svg xmlns="http://www.w3.org/2000/svg" width="50" height="50" fill="none"  stroke="#e62334" stroke-width="1.5" stroke-miterlimit="10" stroke-linecap="round" stroke-linejoin="round"><path d="M44.151 1.5h-31.5a4.57 4.57 0 0 0-4.55 4.55V39.4M33.9 48.7h-27A5.7 5.7 0 0 1 1.2 43v-3.35h27V43a5.7 5.7 0 0 0 5.7 5.7zm0 0a5.7 5.7 0 0 0 5.7-5.7V6.05a4.57 4.57 0 0 1 4.55-4.55 4.57 4.57 0 0 1 4.55 4.55v6.75h-9.1M23.45 6.75l7.1 3.5v5.7A7.42 7.42 0 0 1 27.4 22l-3.95 2.75m.001-18l-7.1 3.5v5.7a7.42 7.42 0 0 0 3.15 6.05l3.95 2.75M20.55 15.3l2 1.8 3.55-3.6M15.4 34.55h16.15m-16.15-5h16.15"/></svg>
