<svg xmlns="http://www.w3.org/2000/svg" width="50" height="50" fill="none"  stroke="#e62334" stroke-width="1.5" stroke-miterlimit="10" stroke-linecap="round" stroke-linejoin="round"><path d="M31.999 27.05c.25-.95.4-3.65-2.5-4.8m1.3.75s1.8-2.7-.6-4.65m1.7 16.1c1.85.5 5.35-.8 5.6-4.3s-2.95-6.05-5.5-5.3"/><path d="M36.299 26.5c1.15-1 2.9-4.2-.5-6.5 0 0 1.25-4.65-3.7-5.2 0 0-1.3-3.45-4.65-2.7-3.15.7-2.75 3.65-2.75 3.65V33.7c0 3.2 3.9 4.3 5.8 2.85s1.75-4.1.75-5.55m-13.9-3.95c-.25-.95-.4-3.65 2.5-4.8m-1.3.75s-1.8-2.7.6-4.65m-1.699 16.1c-1.85.5-5.35-.8-5.6-4.3s2.95-6.05 5.5-5.3"/><path d="M13.049 26.5c-1.15-1-2.9-4.2.5-6.5 0 0-1.25-4.65 3.7-5.2 0 0 1.3-3.45 4.65-2.7 3.15.7 2.75 3.65 2.75 3.65V33.7c0 3.2-3.9 4.3-5.8 2.85s-1.75-4.1-.75-5.55m28.451 1.05c-2.9 9.65-11.6 16.7-21.9 16.7-10.5 0-19.35-7.35-22.05-17.35m39.799 2.3l4.35-2.5 1.9 4.95M3.449 18c2.9-9.7 11.6-16.7 21.9-16.7 10.5 0 19.35 7.35 22.05 17.35M7.6 16.35l-4.35 2.5-1.9-4.95"/></svg>
