<svg width="35" height="35" fill="none"  stroke="#e62334" stroke-width="1.5" stroke-miterlimit="10"><path d="M17.5 14.07c2.571 0 4.655-2.084 4.655-4.655S20.071 4.76 17.5 4.76s-4.655 2.084-4.655 4.655 2.084 4.655 4.655 4.655z"/><g stroke-linejoin="round"><path d="M23.941 29.54h-13.09v-9.17c0-2.17 1.75-3.92 3.92-3.92h5.285c2.17 0 3.885 1.75 3.885 3.885v9.205zm3.324-13.091a3.15 3.15 0 0 0 0-6.3 3.15 3.15 0 0 0 0 6.3z"/><path d="M30.555 29.539h-6.44V18.794h4.445a3.99 3.99 0 0 1 3.99 3.99v4.76a2.02 2.02 0 0 1-1.995 1.995zM7.701 16.449a3.15 3.15 0 1 0 0-6.3 3.15 3.15 0 0 0 0 6.3zm-3.256 13.09h6.405V18.794H6.405a3.99 3.99 0 0 0-3.99 3.99v4.76c0 1.085.91 1.995 2.03 1.995z"/></g></svg>
