<svg width="50" height="50" fill="none" ><g clip-path="url(#A)"><path d="M25 50c13.807 0 25-11.193 25-25S38.807 0 25 0 0 11.193 0 25s11.193 25 25 25z" fill="#f0f0f0"/><g fill="#d80027"><path d="M23.913 25H50a25.03 25.03 0 0 0-.861-6.522H23.913V25zm0-13.043h22.418a25.13 25.13 0 0 0-5.769-6.522H23.913v6.522zM25 50a24.89 24.89 0 0 0 15.562-5.435H9.438A24.89 24.89 0 0 0 25 50zM3.669 38.044H46.33a24.85 24.85 0 0 0 2.808-6.522H.861a24.85 24.85 0 0 0 2.808 6.522z"/></g><path d="M11.581 3.904h2.278l-2.119 1.54.809 2.491-2.119-1.54-2.119 1.54.699-2.152a25.14 25.14 0 0 0-4.849 5.404h.73l-1.349.98-.605 1.068.644 1.983-1.202-.873-.818 1.941.71 2.184h2.619l-2.119 1.54.809 2.491-2.119-1.54-1.269.922A25.24 25.24 0 0 0 0 25h25V0a24.88 24.88 0 0 0-13.419 3.904zm.968 18.596l-2.119-1.54-2.119 1.54.809-2.491-2.119-1.54h2.619l.809-2.491.809 2.491h2.619l-2.119 1.54.809 2.491zm-.809-9.774l.809 2.491-2.119-1.54-2.119 1.54.809-2.491-2.119-1.54h2.619l.809-2.491.809 2.491h2.619l-2.119 1.54zm9.777 9.774l-2.119-1.54-2.119 1.54.809-2.491-2.119-1.54h2.619l.809-2.491.809 2.491h2.619l-2.119 1.54.809 2.491zm-.809-9.774l.809 2.491-2.119-1.54-2.119 1.54.809-2.491-2.119-1.54h2.619l.809-2.491.809 2.491h2.619l-2.119 1.54zm0-7.283l.809 2.491-2.119-1.54-2.119 1.54.809-2.491-2.119-1.54h2.619l.809-2.491.809 2.491h2.619l-2.119 1.54z" fill="#0052b4"/></g><defs><clipPath id="A"><path fill="#fff" d="M0 0h50v50H0z"/></clipPath></defs></svg>
