<svg width="50" height="50" fill="none" ><path d="M25 50c13.807 0 25-11.193 25-25S38.807 0 25 0 0 11.193 0 25s11.193 25 25 25z" fill="#f0f0f0"/><path d="M5.168 9.78a24.91 24.91 0 0 0-4.307 8.699h13.006L5.168 9.78zm43.971 8.698c-.862-3.199-2.343-6.144-4.307-8.699l-8.699 8.699h13.005zM.861 31.522a24.91 24.91 0 0 0 4.307 8.699l8.699-8.699H.861zM40.22 5.168A24.91 24.91 0 0 0 31.522.861v13.006l8.699-8.699zM9.779 44.832a24.91 24.91 0 0 0 8.699 4.307V36.133l-8.699 8.699zM18.478.861a24.91 24.91 0 0 0-8.699 4.307l8.699 8.699V.861zm13.045 48.278a24.91 24.91 0 0 0 8.699-4.307l-8.699-8.699v13.006zm4.611-17.617l8.699 8.699a24.91 24.91 0 0 0 4.307-8.699H36.134z" fill="#0052b4"/><path d="M49.788 21.739H28.261V.212A25.25 25.25 0 0 0 25 0a25.25 25.25 0 0 0-3.261.212v21.527H.212A25.25 25.25 0 0 0 0 25a25.24 25.24 0 0 0 .212 3.261h21.527v21.528a25.24 25.24 0 0 0 6.522 0V28.261h21.528A25.42 25.42 0 0 0 50 25a25.25 25.25 0 0 0-.212-3.261zm-18.266 9.783l11.156 11.156 1.47-1.605-9.551-9.551h-3.074zm-13.044 0h0L7.322 42.678l1.605 1.469 9.551-9.551v-3.074zm.001-13.044h0L7.323 7.322l-1.47 1.605 9.551 9.551h3.074zm13.043 0L42.677 7.322l-1.605-1.469-9.551 9.551v3.074z" fill="#d80027"/></svg>
