<svg width="160" height="45" fill="none"><path d="M14.866 4.206c-.154.06-.205.253-.103.375l.688.882L28.294 21.8l.42.497c.072.08.185.1.287.07l.708-.284.4-.172.534-.223.216-.1 1.745-.74.062-.02.575-.243 1.376-.578 4.497-1.905a1.84 1.84 0 0 0 .606-.395c.01-.01.02-.03.03-.04a1.38 1.38 0 0 0 .298-.476c.062-.182.072-.365.04-.547v-.02c0-.01-.01-.03-.01-.04a1.41 1.41 0 0 0-.072-.203c-.01-.02-.02-.05-.03-.07a1.59 1.59 0 0 0-.154-.243L34.504 9.55c-.072-.08-.185-.1-.287-.07l-1.355.557-.144.06-2.988 1.226a.24.24 0 0 0-.103.375l.308.395.35.426 2.36 2.95c.04.05.072.1.103.162.02.04.03.1.04.132s.01.1.01.132a.53.53 0 0 1-.03.172c0 .02-.01.03-.01.03 0 .01-.01.02-.01.03-.02.04-.04.08-.072.122-.01.02-.03.03-.04.05s-.02.03-.04.05-.04.03-.062.05c-.02.01-.03.03-.05.04-.062.04-.134.08-.205.1-.133.05-.267.1-.4.1a1.94 1.94 0 0 1-.42-.02c-.133-.03-.267-.07-.38-.132a.93.93 0 0 1-.287-.233l-1-1.265-2.536-3.142-4.64-5.797c-.03-.04-.062-.08-.082-.122 0-.01-.01-.02-.01-.03-.02-.04-.03-.08-.04-.132v-.01a.67.67 0 0 1 .031-.284c.04-.1.103-.182.185-.264s.195-.152.318-.203.267-.08.4-.1a1.86 1.86 0 0 1 .411.02c.133.03.257.07.37.132a.88.88 0 0 1 .277.223l.144.182 3.2 3.993.38.486c.072.1.185.122.298.08L32.975 8.2c.154-.06.205-.253.103-.385L27.33.8a1.63 1.63 0 0 0-.524-.416 2.2 2.2 0 0 0-.688-.233c-.246-.05-.503-.06-.76-.04a2.66 2.66 0 0 0-.75.172l-9.743 3.932zm26.95 13.227c0 .1-.02.182-.03.264 0 .02-.01.03-.01.05-.01.05-.02.1-.04.162-.01.02-.01.03-.02.05l-.03.08a.89.89 0 0 1-.082.172c-.01.03-.03.05-.04.08a1.23 1.23 0 0 1-.134.193c-.01.01-.02.03-.03.04a1.15 1.15 0 0 1-.185.203l-.01.01a2.25 2.25 0 0 1-.38.304l-.103.06c-.144.1-.308.182-.482.253l-.205.08-.328.142-5.113 2.17-1.94.82-.062.02-.144.06-.513.213-1.294.547-.534.223-.482.203-1.283.537c-.103.04-.226.01-.298-.07L14.97 7.572l-1.612-1.997-.37-.476c-.072-.1-.185-.122-.298-.08L2.618 9.08c-.113.04-.205.1-.308.152l-.082.05c-.072.05-.133.1-.195.152-.01.01-.03.02-.04.03l-.205.223c-.01.02-.02.03-.03.05-.04.06-.082.122-.103.193-.01.01-.02.02-.02.04 0 .01 0 .02-.01.03a.96.96 0 0 0-.062.233v.02a1.22 1.22 0 0 0 0 .274 1.15 1.15 0 0 0 .226.547l8.45 11.27 3.5 4.672c.144.182.33.345.534.466a2.43 2.43 0 0 0 .719.264c.257.05.534.07.8.04a2.59 2.59 0 0 0 .79-.193l.4-.172.8-.345 1.232-.517 2.7-1.145a.26.26 0 0 1 .298.081l.72.943a.24.24 0 0 1-.103.375l-3.593 1.52-.226.1-2.023.862c-.4.172-.842.274-1.283.314a4.62 4.62 0 0 1-1.293-.07c-.42-.08-.8-.233-1.16-.426-.35-.203-.647-.456-.873-.76L9.27 24.416l-.955-1.277-6.58-8.838L.4 12.426c-.05-.07-.103-.152-.144-.233a.3.3 0 0 0-.04-.08.78.78 0 0 1-.072-.162l-.03-.1c-.02-.05-.03-.1-.04-.142-.01-.03-.02-.07-.02-.1-.01-.04-.01-.08-.01-.08l.05 14.26c0 .08.02.172.03.253l.072.253a1.29 1.29 0 0 0 .113.243 1.53 1.53 0 0 0 .154.243l12.207 16.86c.216.304.503.547.842.75a3.6 3.6 0 0 0 1.12.426c.4.08.82.1 1.252.07a4.01 4.01 0 0 0 1.232-.314l23.2-10.125c.236-.1.452-.233.637-.375s.35-.294.472-.466c.133-.172.226-.355.308-.537.113-.264.123-.578.123-.578l-.03-15.07zM18.962 21.78c0 .01 0 .02-.01.03v.01a.71.71 0 0 1-.092.172c-.01.01-.02.03-.04.04-.02.02-.04.05-.062.07s-.04.03-.062.05c-.02.01-.03.03-.05.04-.062.05-.133.1-.216.122a1.22 1.22 0 0 1-.421.101c-.144.01-.288 0-.42-.02-.133-.03-.267-.07-.38-.142-.113-.06-.216-.142-.287-.243l-1.396-1.824-.318-.426-6.252-8.178a.42.42 0 0 1-.072-.132c0-.01-.01-.01-.01-.02-.02-.04-.03-.1-.04-.132v-.02a.55.55 0 0 1 .041-.284c.04-.1.103-.193.195-.274a1.05 1.05 0 0 1 .33-.203 1.87 1.87 0 0 1 .411-.101 1.83 1.83 0 0 1 .411.02 1.45 1.45 0 0 1 .37.132.88.88 0 0 1 .277.233l7.987 10.388a.66.66 0 0 1 .134.304c.01.04 0 .07 0 .1 0 .06-.01.1-.02.172z" fill="#f52334"/><path d="M60.5 27.66c-1.335.274-2.495.405-3.5.405h-.72c-.934 0-1.684-.274-2.238-.83-.565-.557-.842-1.297-.842-2.2V20.35c0-1.013.287-1.814.873-2.382.585-.578 1.386-.86 2.413-.86h7.607v14.2H60.5v-3.66h.01zm-2.464-2.33c.862 0 1.684-.07 2.464-.203v-5.28h-2.875c-.544 0-.82.274-.82.8v3.963a.69.69 0 0 0 .205.507.71.71 0 0 0 .513.203h.513zm13.16-.205c.73 0 1.55-.132 2.464-.405v-7.6h3.603v10.764H74.08l-.205-1.014c-.647.415-1.304.73-1.98.922s-1.252.294-1.714.294h-.924c-.934 0-1.684-.274-2.238-.83-.565-.557-.842-1.297-.842-2.2V17.12h3.603v7.307a.69.69 0 0 0 .205.507.71.71 0 0 0 .513.203h.698v-.01zM79.83 17.3l6.786-.405c.934 0 1.684.274 2.238.83.565.557.842 1.297.842 2.2v7.916h-3.182l-.205-1.014c-.647.416-1.304.73-1.98.922s-1.252.294-1.715.294h-.72c-.934 0-1.684-.274-2.238-.83-.565-.557-.842-1.297-.842-2.2v-.912c0-.922.277-1.662.842-2.2.565-.557 1.314-.83 2.238-.83h4.22v-.8a.69.69 0 0 0-.205-.507.71.71 0 0 0-.513-.203l-2.946.122-2.597.182V17.3h-.02zm3.8 7.916c.73 0 1.55-.132 2.464-.405v-1.216h-2.977a.71.71 0 0 0-.513.203.69.69 0 0 0-.205.507v.203a.69.69 0 0 0 .205.507.71.71 0 0 0 .513.203h.513zm15.625 2.636l-.205-1.014c-.647.416-1.304.73-1.98.922s-1.252.294-1.715.294h-.924c-.934 0-1.684-.274-2.238-.83-.565-.557-.842-1.297-.842-2.2V20.35c0-1.013.287-1.814.873-2.382.585-.578 1.386-.86 2.413-.86h4.22v-3.456h3.594v14.2h-3.193zM96.4 25.125c.73 0 1.55-.132 2.464-.405v-4.875h-3.1c-.544 0-.82.274-.82.8v3.76a.69.69 0 0 0 .205.507.71.71 0 0 0 .513.203h.73zm17.77 2.535l-6.786.405c-.934 0-1.683-.274-2.238-.83-.564-.557-.842-1.297-.842-2.2V20.35c0-1.013.288-1.814.873-2.382.585-.578 1.386-.86 2.413-.86h6.58v2.736h-5.45c-.544 0-.82.274-.82.8v3.963a.69.69 0 0 0 .205.507c.133.132.308.203.513.203 1.232 0 3.1-.1 5.554-.304v2.635zm12.752-2.84c0 1.014-.287 1.814-.873 2.382-.585.578-1.386.86-2.412.86h-4.733c-1.027 0-1.838-.284-2.412-.86-.586-.578-.873-1.368-.873-2.382v-4.67c0-1.013.287-1.814.873-2.382s1.385-.86 2.412-.86h4.733c1.026 0 1.838.284 2.412.86.586.578.873 1.368.873 2.382v4.672zm-3.593-4.368c0-.537-.277-.8-.82-.8h-2.464c-.544 0-.822.274-.822.8v4.064c0 .537.278.8.822.8h2.464c.544 0 .82-.274.82-.8v-4.064zm13.17 7.4l-.205-1.014c-.647.416-1.304.73-1.98.922s-1.253.294-1.715.294h-.924c-.934 0-1.684-.274-2.238-.83-.565-.557-.842-1.297-.842-2.2V20.35c0-1.013.288-1.814.873-2.382.585-.578 1.386-.86 2.412-.86h4.22v-3.456h3.603v14.2H136.5zm-2.885-2.736c.73 0 1.55-.132 2.464-.405v-4.875h-3.1c-.544 0-.82.274-.82.8v3.76c0 .203.072.375.205.507a.71.71 0 0 0 .514.203h.728zm18.193 2.534l-7.197.405c-.934 0-1.684-.274-2.238-.83-.565-.557-.842-1.297-.842-2.2V20.15c0-1.013.287-1.814.873-2.382.585-.578 1.386-.86 2.412-.86h4.117c1.027 0 1.838.284 2.413.86.585.578.872 1.368.872 2.382v3.76h-7.094v.8a.69.69 0 0 0 .206.507c.133.132.308.203.513.203 1.355 0 3.347-.1 5.965-.304v2.534zm-5.862-8.22c-.545 0-.822.274-.822.8v1.115h3.5V20.25c0-.537-.277-.8-.82-.8h-1.858zm7.454-7.197c0-1.794 1.468-3.223 3.264-3.223 1.817 0 3.265 1.43 3.265 3.223 0 1.784-1.448 3.223-3.265 3.223-1.807 0-3.264-1.45-3.264-3.223zm.503 0c0 1.5 1.232 2.726 2.76 2.726s2.74-1.236 2.74-2.726c0-1.52-1.22-2.706-2.74-2.706-1.53-.01-2.76 1.176-2.76 2.706zm2.67.395h-.616v1.46h-.554v-3.7h1.53c.698 0 1.253.446 1.253 1.125a1.09 1.09 0 0 1-.955 1.095l1.006 1.48h-.677l-.986-1.46zm-.616-1.784v1.308h.975c.4 0 .678-.264.678-.64a.64.64 0 0 0-.678-.669h-.975z" fill="#323e48"/></svg>
