<svg width="125" height="35" viewBox="0 0 125 35" fill="none" xmlns="http://www.w3.org/2000/svg">
<path d="M11.6136 3.27248C11.4933 3.31977 11.4532 3.46955 11.5334 3.56414L12.0708 4.24995L17.5649 11.2105L17.6691 11.3445L18.8963 12.8975L22.1045 16.965L22.4333 17.3513C22.4895 17.4144 22.5777 17.438 22.6579 17.4065C22.8504 17.3277 23.1953 17.1936 23.2113 17.1858L23.5321 17.0518L23.9492 16.8783L24.1176 16.8074L25.3688 16.2792L25.4811 16.2319L25.5293 16.2162L25.9784 16.027L27.0532 15.5777L30.5662 14.0957C30.7586 14.0168 30.911 13.9144 31.0394 13.7882C31.0474 13.7804 31.0554 13.7646 31.0634 13.7567C31.1677 13.6463 31.2479 13.5202 31.296 13.3862C31.3442 13.2443 31.3522 13.1024 31.3281 12.9605C31.3281 12.9527 31.3281 12.9527 31.3281 12.9448C31.3281 12.9369 31.3201 12.9211 31.3201 12.9132C31.304 12.8581 31.288 12.8108 31.2639 12.7556C31.2559 12.7398 31.2479 12.7162 31.2399 12.7004C31.2078 12.6373 31.1677 12.5743 31.1196 12.5112L27.2617 7.80513C27.2216 7.75784 27.0612 7.56076 26.9569 7.42675C26.9008 7.36369 26.8125 7.34004 26.7323 7.37157L25.6736 7.80513L25.5613 7.85243L23.2274 8.80626C23.1071 8.85356 23.067 8.99545 23.1472 9.09793C23.2434 9.22405 23.3557 9.37383 23.3878 9.40536L23.6605 9.73644L25.4731 11.9909L25.5052 12.0304C25.5373 12.0698 25.5613 12.1171 25.5854 12.1565C25.6014 12.188 25.6095 12.2274 25.6175 12.259C25.6255 12.2905 25.6255 12.3299 25.6255 12.3614C25.6255 12.4087 25.6175 12.4482 25.6014 12.4954C25.6014 12.4954 25.6014 12.4954 25.6014 12.5033C25.6014 12.5112 25.5934 12.5191 25.5934 12.5191C25.5934 12.527 25.5854 12.5349 25.5854 12.5427C25.5694 12.5743 25.5533 12.6058 25.5293 12.6373C25.5212 12.6531 25.5052 12.661 25.4972 12.6768C25.4892 12.6925 25.4811 12.7004 25.4651 12.7162C25.4491 12.7319 25.433 12.7398 25.417 12.7556C25.4009 12.7635 25.3929 12.7792 25.3769 12.7871C25.3287 12.8186 25.2726 12.8502 25.2165 12.8738C25.1122 12.9132 25.0079 12.9448 24.8956 12.9527C24.7833 12.9605 24.6711 12.9527 24.5668 12.9369C24.4625 12.9132 24.3583 12.8817 24.27 12.8344C24.1818 12.7871 24.1016 12.7241 24.0455 12.6531L23.6364 12.1407L23.2594 11.6677L21.2784 9.22405L19.2171 6.66212L17.6531 4.71504C17.629 4.68351 17.605 4.65198 17.5889 4.62045C17.5889 4.61257 17.5809 4.60468 17.5809 4.5968C17.5649 4.56527 17.5568 4.53374 17.5488 4.49432V4.48644C17.5408 4.41549 17.5488 4.33667 17.5729 4.26572C17.605 4.19477 17.6531 4.12383 17.7173 4.06076C17.7814 3.9977 17.8696 3.94252 17.9659 3.90311C18.0621 3.86369 18.1744 3.84004 18.2787 3.83216C18.383 3.82428 18.4953 3.83216 18.5995 3.84793C18.7038 3.87158 18.8 3.90311 18.8883 3.9504C18.9765 3.9977 19.0487 4.05288 19.1048 4.12383L19.2171 4.26572L21.2864 6.83554L21.7195 7.37157C21.7596 7.41887 21.912 7.61594 22.0163 7.74995C22.0724 7.8209 22.1606 7.84455 22.2489 7.81302L25.7619 6.37833C25.8822 6.33103 25.9223 6.18126 25.8421 6.07878L21.3506 0.615945C21.2463 0.481936 21.1019 0.379459 20.9415 0.292747C20.7811 0.206035 20.5966 0.142972 20.4041 0.111441C20.2116 0.0720261 20.0111 0.0641432 19.8106 0.079909C19.6101 0.0956748 19.4096 0.142972 19.2251 0.213918L11.6136 3.27248Z" fill="white"/>
<path d="M32.6675 13.5586C32.6675 13.6295 32.6515 13.7005 32.6435 13.7635C32.6435 13.7793 32.6354 13.7872 32.6354 13.8029C32.6274 13.8424 32.6194 13.8897 32.6034 13.9291C32.5953 13.9448 32.5953 13.9527 32.5873 13.9685C32.5793 13.9921 32.5713 14.0158 32.5633 14.0315C32.5472 14.0788 32.5232 14.1261 32.4991 14.1656C32.4911 14.1892 32.475 14.205 32.467 14.2286C32.4349 14.2838 32.4028 14.3311 32.3627 14.3784C32.3547 14.3863 32.3467 14.402 32.3387 14.4099C32.2986 14.4651 32.2505 14.5203 32.1943 14.5676L32.1863 14.5755C32.0981 14.6622 32.0018 14.741 31.8895 14.8119C31.8655 14.8277 31.8414 14.8435 31.8093 14.8592C31.697 14.9302 31.5687 15.0011 31.4324 15.0563L31.2719 15.1194L31.0153 15.2297L27.0211 16.9167L25.9543 17.366L25.5052 17.5552L25.4571 17.571L25.3448 17.6183L24.9437 17.7838L23.9332 18.2095L23.5161 18.3829L23.1391 18.5406L22.1366 18.9583C22.0564 18.9899 21.9601 18.9662 21.904 18.9032L21.1821 17.9809L17.6771 13.5113L17.5729 13.3773L17.5649 13.3694L12.1109 6.41668L11.6938 5.88853L10.4346 4.3356L10.1459 3.9651C10.0897 3.89416 10.0015 3.87051 9.91327 3.90204L2.04514 7.06308C1.95691 7.09461 1.88472 7.1419 1.80452 7.18132C1.78046 7.19708 1.76442 7.20497 1.74036 7.22073C1.68421 7.26015 1.63609 7.29168 1.58797 7.33898C1.57994 7.34686 1.5639 7.35474 1.55588 7.36263C1.54786 7.36263 1.54786 7.37051 1.54786 7.37051C1.49172 7.42569 1.4436 7.48087 1.39547 7.53605C1.38745 7.55181 1.37943 7.5597 1.37141 7.57546C1.33933 7.62276 1.30725 7.67006 1.29121 7.72524C1.28319 7.73312 1.27516 7.741 1.27516 7.75677C1.27516 7.76465 1.27516 7.77253 1.26714 7.78042C1.24308 7.8356 1.22704 7.89866 1.21902 7.96172C1.21902 7.96961 1.21902 7.96961 1.21902 7.97749C1.211 8.04844 1.211 8.11938 1.21902 8.19033C1.23506 8.3401 1.29923 8.482 1.39547 8.616L2.17346 9.64866L7.15421 16.2624L7.25046 16.3885L7.99637 17.3818L10.7314 21.0158C10.8437 21.1577 10.988 21.2838 11.1484 21.3784C11.3169 21.473 11.5094 21.5439 11.7099 21.5833C11.9104 21.6228 12.1269 21.6385 12.3355 21.6149C12.544 21.5991 12.7606 21.5439 12.9531 21.4651L13.2739 21.3311L13.9075 21.0631L14.87 20.661L16.9794 19.7703C17.0596 19.7388 17.1558 19.7624 17.212 19.8333L17.7734 20.5665C17.8536 20.6689 17.8135 20.8108 17.6932 20.8581L14.886 22.0406L14.7096 22.1115L13.2979 22.7106L13.1295 22.7815C12.8087 22.9156 12.4718 22.9944 12.1269 23.0259C11.7821 23.0574 11.4372 23.0338 11.1164 22.9707C10.7875 22.9077 10.4827 22.7894 10.21 22.6397C9.93734 22.482 9.70474 22.2849 9.52829 22.0484L7.33869 19.116L7.24244 18.9899L6.49653 17.9966L2.30179 12.384L1.35537 11.1228L0.312701 9.66443C0.272598 9.60925 0.232496 9.54618 0.200414 9.48312C0.192393 9.45947 0.184372 9.44371 0.168331 9.42006C0.14427 9.38064 0.128229 9.34123 0.112188 9.29393C0.104167 9.27028 0.0961467 9.24663 0.0881261 9.22299C0.0720851 9.18357 0.0640645 9.14416 0.056044 9.11263C0.0480235 9.08898 0.040003 9.05745 0.040003 9.0338C0.0319824 9.00226 0.0319824 8.97073 0.0319824 8.97073L0.0720851 20.062C0.0720851 20.125 0.0881261 20.196 0.0961467 20.259C0.112188 20.3221 0.128229 20.3851 0.15229 20.4561C0.176352 20.5192 0.200414 20.5822 0.240516 20.6453C0.272598 20.7083 0.312701 20.7714 0.360824 20.8345L9.89723 33.9516C10.0657 34.1881 10.2902 34.3773 10.5549 34.5349C10.8116 34.6847 11.1083 34.8029 11.4292 34.866C11.742 34.9291 12.0708 34.9527 12.4077 34.9212C12.7365 34.8897 13.0653 34.8108 13.3701 34.6768L31.4885 26.8018C31.673 26.723 31.8414 26.6205 31.9858 26.5101C32.1301 26.3998 32.2585 26.2815 32.3547 26.1475C32.459 26.0135 32.5312 25.8716 32.5953 25.7297C32.6836 25.5248 32.6916 25.2804 32.6916 25.2804L32.6675 13.5586ZM14.8138 16.9403C14.8138 16.9482 14.8138 16.9561 14.8058 16.964V16.9719C14.7898 17.0192 14.7657 17.0586 14.7336 17.1059C14.7256 17.1138 14.7176 17.1295 14.7015 17.1374C14.6855 17.1532 14.6694 17.1768 14.6534 17.1926C14.6374 17.2083 14.6213 17.2162 14.6053 17.232C14.5892 17.2399 14.5812 17.2556 14.5652 17.2635C14.5171 17.3029 14.4609 17.3345 14.3968 17.3581C14.2925 17.4054 14.1802 17.4291 14.0679 17.4369C13.9556 17.4448 13.8433 17.4369 13.7391 17.4212C13.6348 17.3975 13.5305 17.366 13.4423 17.3108C13.3541 17.2635 13.2739 17.2005 13.2177 17.1216L12.1269 15.7027L11.8783 15.3716L10.6592 13.7872L9.59245 12.3998L6.9938 9.01015C6.96974 8.97862 6.94568 8.9392 6.93766 8.90767C6.93766 8.89979 6.92964 8.89979 6.92964 8.8919C6.9136 8.86037 6.90558 8.82096 6.89756 8.78943V8.78154V8.77366C6.88954 8.70272 6.89756 8.62389 6.92964 8.55294C6.96172 8.47411 7.00984 8.40317 7.08203 8.3401C7.15421 8.27704 7.23442 8.22186 7.33869 8.18245C7.44295 8.14303 7.54722 8.11938 7.65951 8.10362C7.77179 8.09573 7.87606 8.10362 7.98033 8.11938C8.08459 8.14303 8.18084 8.17456 8.26907 8.22186C8.35729 8.26916 8.42948 8.33222 8.48562 8.40317L9.52027 9.74326L10.595 11.1306L11.8222 12.723L12.2312 13.2511L13.6188 15.0484L14.7256 16.4831C14.7817 16.5619 14.8218 16.6408 14.8299 16.7196C14.8379 16.7511 14.8299 16.7748 14.8299 16.8063C14.8299 16.8536 14.8218 16.893 14.8138 16.9403Z" fill="white"/>
<path d="M47.2651 21.5124C46.2224 21.7252 45.3161 21.8277 44.5301 21.8277H43.9686C43.2388 21.8277 42.6533 21.6148 42.2202 21.1813C41.7791 20.7477 41.5625 20.1723 41.5625 19.4628V15.8288C41.5625 15.0405 41.7871 14.4178 42.2442 13.9763C42.7014 13.527 43.327 13.3063 44.1291 13.3063H50.0722V24.3581H47.2571V21.5124H47.2651ZM45.3402 19.6993C46.0139 19.6993 46.6555 19.6441 47.2651 19.5416V15.4347H45.0193C44.5942 15.4347 44.3777 15.6475 44.3777 16.0653V19.1475C44.3777 19.3051 44.4338 19.4392 44.5381 19.5416C44.6424 19.6441 44.7787 19.6993 44.9391 19.6993H45.3402Z" fill="white"/>
<path d="M55.6225 19.5416C56.1919 19.5416 56.8336 19.4392 57.5474 19.2263V13.3063H60.3626V21.6779H57.8762L57.7158 20.8896C57.2105 21.2128 56.6972 21.4572 56.1679 21.607C55.6385 21.7567 55.1894 21.8356 54.8284 21.8356H54.1066C53.3767 21.8356 52.7912 21.6227 52.3581 21.1892C51.917 20.7556 51.7004 20.1802 51.7004 19.4707V13.3142H54.5156V18.9977C54.5156 19.1554 54.5718 19.2894 54.6761 19.3919C54.7803 19.4943 54.9167 19.5495 55.0771 19.5495H55.6225V19.5416Z" fill="white"/>
<path d="M62.3678 13.4639C64.3248 13.2511 66.0973 13.1486 67.6693 13.1486C68.3992 13.1486 68.9847 13.3615 69.4178 13.795C69.8589 14.2286 70.0755 14.804 70.0755 15.5135V21.67H67.5891L67.4287 20.8817C66.9234 21.2049 66.4101 21.4493 65.8808 21.5991C65.3514 21.7489 64.9023 21.8277 64.5413 21.8277H63.9799C63.25 21.8277 62.6645 21.6148 62.2314 21.1813C61.7903 20.7477 61.5737 20.1723 61.5737 19.4628V18.7534C61.5737 18.036 61.7903 17.4606 62.2314 17.0349C62.6725 16.6013 63.258 16.3885 63.9799 16.3885H67.2763V15.7579C67.2763 15.6002 67.2202 15.4662 67.1159 15.3637C67.0117 15.2612 66.8753 15.2061 66.7149 15.2061C66.0171 15.2061 65.2471 15.2376 64.413 15.3007C63.5708 15.3637 62.8971 15.411 62.3838 15.4425V13.4639H62.3678ZM65.3434 19.6205C65.9128 19.6205 66.5545 19.518 67.2683 19.3052V18.3592H64.9424C64.7819 18.3592 64.6456 18.4144 64.5413 18.5169C64.4371 18.6193 64.3809 18.7534 64.3809 18.911V19.0687C64.3809 19.2263 64.4371 19.3603 64.5413 19.4628C64.6456 19.5653 64.7819 19.6205 64.9424 19.6205H65.3434Z" fill="white"/>
<path d="M77.5505 21.67L77.3901 20.8817C76.8848 21.2049 76.3715 21.4493 75.8422 21.5991C75.3128 21.7489 74.8637 21.8277 74.5027 21.8277H73.7809C73.051 21.8277 72.4655 21.6149 72.0324 21.1813C71.5913 20.7477 71.3748 20.1723 71.3748 19.4628V15.8288C71.3748 15.0405 71.5993 14.4178 72.0565 13.9763C72.5137 13.527 73.1393 13.3063 73.9413 13.3063H77.2377V10.6182H80.0449V21.67H77.5505ZM75.3048 19.5417C75.8742 19.5417 76.5159 19.4392 77.2297 19.2263V15.4347H74.8155C74.3905 15.4347 74.1739 15.6475 74.1739 16.0653V18.9898C74.1739 19.1475 74.23 19.2815 74.3343 19.384C74.4386 19.4865 74.5749 19.5417 74.7353 19.5417H75.3048Z" fill="white"/>
<path d="M89.1965 21.5124C87.1914 21.7252 85.4268 21.8277 83.8949 21.8277C83.1651 21.8277 82.5796 21.6148 82.1464 21.1813C81.7053 20.7477 81.4888 20.1723 81.4888 19.4628V15.8288C81.4888 15.0405 81.7133 14.4178 82.1705 13.9763C82.6277 13.527 83.2533 13.3063 84.0553 13.3063H89.1965V15.4347H84.9376C84.5125 15.4347 84.296 15.6475 84.296 16.0653V19.1475C84.296 19.3051 84.3521 19.4392 84.4564 19.5416C84.5606 19.6441 84.697 19.6993 84.8574 19.6993C85.8199 19.6993 87.2716 19.6205 89.1965 19.4628V21.5124Z" fill="white"/>
<path d="M99.158 19.3052C99.158 20.0934 98.9334 20.7162 98.4762 21.1576C98.0191 21.607 97.3935 21.8277 96.5914 21.8277H92.894C92.0919 21.8277 91.4583 21.607 91.0091 21.1576C90.552 20.7083 90.3274 20.0934 90.3274 19.3052V15.6711C90.3274 14.8829 90.552 14.2601 91.0091 13.8187C91.4663 13.3772 92.0919 13.1486 92.894 13.1486H96.5914C97.3935 13.1486 98.0271 13.3693 98.4762 13.8187C98.9334 14.268 99.158 14.8829 99.158 15.6711V19.3052ZM96.3508 15.9076C96.3508 15.4898 96.1342 15.277 95.7092 15.277H93.7842C93.3592 15.277 93.1426 15.4898 93.1426 15.9076V19.0687C93.1426 19.4865 93.3592 19.6993 93.7842 19.6993H95.7092C96.1342 19.6993 96.3508 19.4865 96.3508 19.0687V15.9076Z" fill="white"/>
<path d="M106.633 21.67L106.473 20.8817C105.967 21.2049 105.454 21.4493 104.925 21.5991C104.395 21.7489 103.946 21.8277 103.585 21.8277H102.863C102.134 21.8277 101.548 21.6149 101.115 21.1813C100.674 20.7477 100.457 20.1723 100.457 19.4628V15.8288C100.457 15.0405 100.682 14.4178 101.139 13.9763C101.596 13.527 102.222 13.3063 103.024 13.3063H106.32V10.6182H109.135V21.67H106.633ZM104.379 19.5417C104.949 19.5417 105.59 19.4392 106.304 19.2263V15.4347H103.89C103.465 15.4347 103.248 15.6475 103.248 16.0653V18.9898C103.248 19.1475 103.305 19.2815 103.409 19.384C103.513 19.4865 103.649 19.5417 103.81 19.5417H104.379Z" fill="white"/>
<path d="M118.6 21.5124C116.53 21.7252 114.662 21.8277 112.977 21.8277C112.247 21.8277 111.662 21.6148 111.229 21.1813C110.788 20.7477 110.571 20.1723 110.571 19.4628V15.6711C110.571 14.8829 110.796 14.2601 111.253 13.8187C111.71 13.3693 112.336 13.1486 113.138 13.1486H116.354C117.156 13.1486 117.79 13.3693 118.239 13.8187C118.696 14.268 118.92 14.8829 118.92 15.6711V18.5957H113.378V19.2263C113.378 19.384 113.434 19.518 113.539 19.6205C113.643 19.723 113.779 19.7781 113.94 19.7781C114.998 19.7781 116.554 19.6993 118.6 19.5416V21.5124ZM114.02 15.1193C113.595 15.1193 113.378 15.3322 113.378 15.75V16.6171H116.113V15.75C116.113 15.3322 115.897 15.1193 115.472 15.1193H114.02Z" fill="white"/>
<path d="M119.843 9.52254C119.843 8.12726 120.99 7.01578 122.393 7.01578C123.813 7.01578 124.944 8.12726 124.944 9.52254C124.944 10.9099 123.813 12.0293 122.393 12.0293C120.982 12.0293 119.843 10.902 119.843 9.52254ZM120.236 9.52254C120.236 10.6813 121.198 11.643 122.393 11.643C123.588 11.643 124.535 10.6813 124.535 9.52254C124.535 8.3401 123.58 7.4178 122.393 7.4178C121.198 7.40992 120.236 8.33222 120.236 9.52254ZM122.321 9.82997H121.84V10.9651H121.407V8.08785H122.602C123.147 8.08785 123.58 8.4347 123.58 8.96285C123.58 9.60136 123.003 9.8142 122.834 9.8142L123.62 10.9651H123.091L122.321 9.82997ZM121.84 8.44258V9.45947H122.602C122.907 9.45947 123.131 9.25452 123.131 8.96285C123.131 8.63965 122.899 8.44258 122.602 8.44258H121.84Z" fill="white"/>
</svg>
