<svg width="51" height="50" viewBox="0 0 51 50" fill="none" xmlns="http://www.w3.org/2000/svg">
<g clip-path="url(#clip0)">
<path d="M24.395 35.8501H36.845" stroke="#E62334" stroke-width="1.5" stroke-miterlimit="10" stroke-linecap="round" stroke-linejoin="round"/>
<path d="M20.9951 6.45007H33.4451" stroke="#E62334" stroke-width="1.5" stroke-miterlimit="10" stroke-linecap="round" stroke-linejoin="round"/>
<path d="M10.3447 40.7001H26.0447" stroke="#E62334" stroke-width="1.5" stroke-miterlimit="10" stroke-linecap="round" stroke-linejoin="round"/>
<path d="M38.0947 6.45007H40.4447" stroke="#E62334" stroke-width="1.5" stroke-miterlimit="10" stroke-linecap="round" stroke-linejoin="round"/>
<path d="M21.7451 14.1501H24.0951" stroke="#E62334" stroke-width="1.5" stroke-miterlimit="10" stroke-linecap="round" stroke-linejoin="round"/>
<path d="M23.6948 28.8H26.0448" stroke="#E62334" stroke-width="1.5" stroke-miterlimit="10" stroke-linecap="round" stroke-linejoin="round"/>
<path d="M33.645 43.55H35.995" stroke="#E62334" stroke-width="1.5" stroke-miterlimit="10" stroke-linecap="round" stroke-linejoin="round"/>
<path d="M17.145 35.8501H19.445" stroke="#E62334" stroke-width="1.5" stroke-miterlimit="10" stroke-linecap="round" stroke-linejoin="round"/>
<path d="M31.7451 11.3501H47.5951" stroke="#E62334" stroke-width="1.5" stroke-miterlimit="10" stroke-linecap="round" stroke-linejoin="round"/>
<path d="M13.1948 23.1001H49.5948" stroke="#E62334" stroke-width="1.5" stroke-miterlimit="10" stroke-linecap="round" stroke-linejoin="round"/>
<path d="M10.7449 31.5501C15.4117 31.5501 19.1949 27.767 19.1949 23.1001C19.1949 18.4333 15.4117 14.6501 10.7449 14.6501C6.07812 14.6501 2.29492 18.4333 2.29492 23.1001C2.29492 27.767 6.07812 31.5501 10.7449 31.5501Z" stroke="#E62334" stroke-width="1.5" stroke-miterlimit="10" stroke-linecap="round" stroke-linejoin="round"/>
<path d="M44.0449 17.9001L49.5949 23.1001" stroke="#E62334" stroke-width="1.5" stroke-miterlimit="10" stroke-linecap="round" stroke-linejoin="round"/>
<path d="M44.0449 28.3501L49.5949 23.1001" stroke="#E62334" stroke-width="1.5" stroke-miterlimit="10" stroke-linecap="round" stroke-linejoin="round"/>
</g>
<defs>
<clipPath id="clip0">
<rect width="50" height="50" fill="white" transform="translate(0.844727)"/>
</clipPath>
</defs>
</svg>
