<svg width="50" height="50" viewBox="0 0 50 50" fill="none" xmlns="http://www.w3.org/2000/svg">
<path d="M14.8998 10.15C17.7165 10.15 19.9998 9.0531 19.9998 7.7C19.9998 6.3469 17.7165 5.25 14.8998 5.25C12.0832 5.25 9.7998 6.3469 9.7998 7.7C9.7998 9.0531 12.0832 10.15 14.8998 10.15Z" stroke="#E62334" stroke-width="1.5" stroke-miterlimit="10" stroke-linecap="round" stroke-linejoin="round"/>
<path d="M10.3998 20.9502C13.2165 20.9502 15.4998 19.8533 15.4998 18.5002C15.4998 17.1471 13.2165 16.0502 10.3998 16.0502C7.58315 16.0502 5.2998 17.1471 5.2998 18.5002C5.2998 19.8533 7.58315 20.9502 10.3998 20.9502Z" stroke="#E62334" stroke-width="1.5" stroke-miterlimit="10" stroke-linecap="round" stroke-linejoin="round"/>
<path d="M6.89981 43.4C9.71646 43.4 11.9998 42.3031 11.9998 40.95C11.9998 39.5969 9.71646 38.5 6.89981 38.5C4.08315 38.5 1.7998 39.5969 1.7998 40.95C1.7998 42.3031 4.08315 43.4 6.89981 43.4Z" stroke="#E62334" stroke-width="1.5" stroke-miterlimit="10" stroke-linecap="round" stroke-linejoin="round"/>
<path d="M1.7998 45.0502C1.7998 46.4002 4.09981 47.5002 6.89981 47.5002C9.69981 47.5002 11.9998 46.4002 11.9998 45.0502V37.0502" stroke="#E62334" stroke-width="1.5" stroke-miterlimit="10" stroke-linecap="round" stroke-linejoin="round"/>
<path d="M22.25 33V43.4C22.25 44.75 19.95 45.85 17.15 45.85C14.35 45.85 12 44.75 12 43.4V40.95" stroke="#E62334" stroke-width="1.5" stroke-miterlimit="10" stroke-linecap="round" stroke-linejoin="round"/>
<path d="M17.1498 35.4502C19.9665 35.4502 22.2498 34.3533 22.2498 33.0002C22.2498 31.6471 19.9665 30.5502 17.1498 30.5502C14.3332 30.5502 12.0498 31.6471 12.0498 33.0002C12.0498 34.3533 14.3332 35.4502 17.1498 35.4502Z" stroke="#E62334" stroke-width="1.5" stroke-miterlimit="10" stroke-linecap="round" stroke-linejoin="round"/>
<path d="M20 7.70007V15.0501" stroke="#E62334" stroke-width="1.5" stroke-miterlimit="10" stroke-linecap="round" stroke-linejoin="round"/>
<path d="M9.7998 7.70007V16.0501" stroke="#E62334" stroke-width="1.5" stroke-miterlimit="10" stroke-linecap="round" stroke-linejoin="round"/>
<path d="M18.2998 17.45C19.5998 15.75 23.4498 11.9 26.8498 11.25" stroke="#E62334" stroke-width="1.5" stroke-miterlimit="10" stroke-linecap="round" stroke-linejoin="round"/>
<path d="M15.5 18.5V30.55" stroke="#E62334" stroke-width="1.5" stroke-miterlimit="10" stroke-linecap="round" stroke-linejoin="round"/>
<path d="M5.2998 18.5V38.5" stroke="#E62334" stroke-width="1.5" stroke-miterlimit="10" stroke-linecap="round" stroke-linejoin="round"/>
<path d="M12 33V40.2" stroke="#E62334" stroke-width="1.5" stroke-miterlimit="10" stroke-linecap="round" stroke-linejoin="round"/>
<path d="M1.7998 40.9501V45.0501" stroke="#E62334" stroke-width="1.5" stroke-miterlimit="10" stroke-linecap="round" stroke-linejoin="round"/>
<path d="M30.1499 2.35008C32.5999 2.35008 31.7999 4.00008 33.9999 4.00008C36.1999 4.00008 35.9999 2.15008 37.3999 2.35008C38.7999 2.60008 38.7499 11.8501 30.1499 11.8501" stroke="#E62334" stroke-width="1.5" stroke-miterlimit="10" stroke-linecap="round" stroke-linejoin="round"/>
<path d="M30.3497 2.35008C27.8997 2.35008 28.6997 4.00008 26.4997 4.00008C24.2997 4.00008 24.4997 2.15008 23.0997 2.35008C21.6997 2.55008 21.7497 11.8501 30.3497 11.8501" stroke="#E62334" stroke-width="1.5" stroke-miterlimit="10" stroke-linecap="round" stroke-linejoin="round"/>
<path d="M34.6499 10.7001C52.0499 23.8001 49.6999 42.8001 39.8499 42.8001C34.9499 42.8001 26.3999 42.8001 26.3999 42.8001" stroke="#E62334" stroke-width="1.5" stroke-miterlimit="10" stroke-linecap="round" stroke-linejoin="round"/>
<path d="M33.2999 6.70007C33.2999 6.70007 32.4499 11.8501 30.1499 11.8501" stroke="#E62334" stroke-width="1.5" stroke-miterlimit="10" stroke-linecap="round" stroke-linejoin="round"/>
<path d="M27.1997 6.70007C27.1997 6.70007 28.0497 11.8501 30.3497 11.8501" stroke="#E62334" stroke-width="1.5" stroke-miterlimit="10" stroke-linecap="round" stroke-linejoin="round"/>
<path d="M34.9 15.0501L32 11.7001" stroke="#E62334" stroke-width="1.5" stroke-miterlimit="10" stroke-linecap="round" stroke-linejoin="round"/>
<path d="M25.4497 15.0501L28.3497 11.7001" stroke="#E62334" stroke-width="1.5" stroke-miterlimit="10" stroke-linecap="round" stroke-linejoin="round"/>
<path d="M30.1499 15.0501V11.8501" stroke="#E62334" stroke-width="1.5" stroke-miterlimit="10" stroke-linecap="round" stroke-linejoin="round"/>
<path d="M42.1998 30.9501C42.1998 32.7501 43.6498 37.6001 35.5498 37.6001" stroke="#E62334" stroke-width="1.5" stroke-miterlimit="10" stroke-linecap="round" stroke-linejoin="round"/>
<path d="M37.85 5.85017C40.85 4.55017 43.4 11.2002 36.25 12.0002" stroke="#E62334" stroke-width="1.5" stroke-miterlimit="10" stroke-linecap="round" stroke-linejoin="round"/>
<path d="M45.4498 15.0501C42.9498 12.7001 41.0498 11.7501 38.5498 11.3501" stroke="#E62334" stroke-width="1.5" stroke-miterlimit="10" stroke-linecap="round" stroke-linejoin="round"/>
</svg>
