<svg xmlns="http://www.w3.org/2000/svg" xmlns:xlink="http://www.w3.org/1999/xlink" width="70" height="35" fill="none" ><g stroke="#e62334" stroke-miterlimit="10"><path d="M17.5 1.68L5.145 14.07H11.9v18.935h11.2V14.07h6.755L17.5 1.68z" fill="#e62334" stroke-linejoin="round"/><g stroke-width="1.5"><use xlink:href="#B"/><g stroke-linecap="round"><use xlink:href="#C"/><path d="M62.93 22.295V32.69"/><path d="M57.75 27.475h10.36"/></g><use xlink:href="#B"/><g stroke-linecap="round"><use xlink:href="#C"/><path d="M62.93 22.295V32.69"/><path d="M57.75 27.475h10.36"/></g><use xlink:href="#B"/><g stroke-linecap="round"><use xlink:href="#C"/><path d="M62.93 22.295V32.69"/><path d="M57.75 27.475h10.36"/></g></g></g><defs ><path id="B" d="M52.675 16.765c4.079 0 7.385-3.306 7.385-7.385s-3.306-7.385-7.385-7.385S45.29 5.301 45.29 9.38s3.306 7.385 7.385 7.385z"/><path id="C" d="M59.29 18.095c-2.03-.875-4.27-1.33-6.615-1.33-6.72 0-12.495 3.885-15.26 9.555-1.295 2.625.63 5.74 3.57 5.74H53.41"/></defs></svg>
