<svg width="86" height="50" viewBox="0 0 86 50" fill="none">
<path d="M17.5 16.68L5.14502 29.07H11.9V48.005H23.1V29.07H29.855L17.5 16.68Z" fill="#E62334" stroke="#E62334" stroke-miterlimit="10" stroke-linecap="round" stroke-linejoin="round"/>
<path d="M61.2502 23.95C67.0768 23.95 71.8002 19.2267 71.8002 13.4C71.8002 7.57344 67.0768 2.85004 61.2502 2.85004C55.4236 2.85004 50.7002 7.57344 50.7002 13.4C50.7002 19.2267 55.4236 23.95 61.2502 23.95Z" stroke="#E62334" stroke-width="2" stroke-miterlimit="10" stroke-linecap="round"/>
<path d="M70.7 25.8501C67.8 24.6001 64.6 23.9501 61.25 23.9501C51.65 23.9501 43.4 29.5001 39.45 37.6001C37.6 41.3501 40.35 45.8001 44.55 45.8001H62.3" stroke="#E62334" stroke-width="2" stroke-miterlimit="10" stroke-linecap="round"/>
<path d="M75.9004 31.8501V46.7" stroke="#E62334" stroke-width="2" stroke-miterlimit="10" stroke-linecap="round"/>
<path d="M68.5 39.25H83.3" stroke="#E62334" stroke-width="2" stroke-miterlimit="10" stroke-linecap="round"/>
<path d="M61.2502 23.95C67.0768 23.95 71.8002 19.2267 71.8002 13.4C71.8002 7.57344 67.0768 2.85004 61.2502 2.85004C55.4236 2.85004 50.7002 7.57344 50.7002 13.4C50.7002 19.2267 55.4236 23.95 61.2502 23.95Z" stroke="#E62334" stroke-width="2" stroke-miterlimit="10" stroke-linecap="round"/>
<path d="M70.7 25.8501C67.8 24.6001 64.6 23.9501 61.25 23.9501C51.65 23.9501 43.4 29.5001 39.45 37.6001C37.6 41.3501 40.35 45.8001 44.55 45.8001H62.3" stroke="#E62334" stroke-width="2" stroke-miterlimit="10" stroke-linecap="round"/>
<path d="M75.9004 31.8501V46.7" stroke="#E62334" stroke-width="2" stroke-miterlimit="10" stroke-linecap="round"/>
<path d="M68.5 39.25H83.3" stroke="#E62334" stroke-width="2" stroke-miterlimit="10" stroke-linecap="round"/>
<path d="M61.2502 23.95C67.0768 23.95 71.8002 19.2267 71.8002 13.4C71.8002 7.57344 67.0768 2.85004 61.2502 2.85004C55.4236 2.85004 50.7002 7.57344 50.7002 13.4C50.7002 19.2267 55.4236 23.95 61.2502 23.95Z" stroke="#E62334" stroke-width="2" stroke-miterlimit="10" stroke-linecap="round"/>
<path d="M70.7 25.8501C67.8 24.6001 64.6 23.9501 61.25 23.9501C51.65 23.9501 43.4 29.5001 39.45 37.6001C37.6 41.3501 40.35 45.8001 44.55 45.8001H62.3" stroke="#E62334" stroke-width="2" stroke-miterlimit="10" stroke-linecap="round"/>
<path d="M75.9004 31.8501V46.7" stroke="#E62334" stroke-width="2" stroke-miterlimit="10" stroke-linecap="round"/>
<path d="M68.5 39.25H83.3" stroke="#E62334" stroke-width="2" stroke-miterlimit="10" stroke-linecap="round"/>
</svg>
