<svg xmlns="http://www.w3.org/2000/svg" width="71" height="35" fill="none"  stroke="#e62334" stroke-miterlimit="10" ><path d="M17.5 1.68L5.145 14.07H11.9v18.935h11.2V14.07h6.755L17.5 1.68z" fill="#e62334" stroke-linejoin="round"/><g stroke-width="1.5" stroke-linecap="round"><path d="M37.925 32.865h31.15m-28.105-6.16c-1.925-2.59-3.08-5.81-3.08-9.275.035-8.645 7-15.61 15.61-15.61s15.575 6.965 15.575 15.575c0 3.465-1.155 6.685-3.08 9.275"/><path d="M57.07 13.79c0-1.96-1.61-3.57-3.57-3.57s-3.57 1.61-3.57 3.57c0 4.235 7.14 2.87 7.14 7.105 0 1.96-1.61 3.57-3.57 3.57s-3.57-1.61-3.57-3.57M53.5 10.22V7.875m0 16.555v2.275"/></g></svg>
