<svg xmlns="http://www.w3.org/2000/svg" xmlns:xlink="http://www.w3.org/1999/xlink" width="71" height="35" fill="none" ><g stroke="#e62334" stroke-miterlimit="10"><path d="M17.5 1.68L5.145 14.07H11.9v18.935h11.2V14.07h6.755L17.5 1.68z" fill="#e62334" stroke-linejoin="round"/><g stroke-width="1.5"><use xlink:href="#B"/><use xlink:href="#C" stroke-linecap="round"/><use xlink:href="#B"/><use xlink:href="#C" stroke-linecap="round"/><use xlink:href="#B"/><path d="M60.29 18.095c-2.03-.875-4.27-1.33-6.615-1.33-6.72 0-12.495 3.885-15.26 9.555-1.295 2.625.63 5.74 3.57 5.74H58.12" stroke-linecap="round"/><path d="M61.76 32.83a7.35 7.35 0 1 0 0-14.7 7.35 7.35 0 1 0 0 14.7z"/><path d="M61.76 21.595v3.885m0 0l2.695 2.695" stroke-linecap="round"/></g></g><defs ><path id="B" d="M53.675 16.765c4.079 0 7.385-3.306 7.385-7.385s-3.306-7.385-7.385-7.385S46.29 5.301 46.29 9.38s3.306 7.385 7.385 7.385z"/><path id="C" d="M60.29 18.095c-2.03-.875-4.27-1.33-6.615-1.33-6.72 0-12.495 3.885-15.26 9.555-1.295 2.625.63 5.74 3.57 5.74H54.41"/></defs></svg>
