<svg width="86" height="50" viewBox="0 0 86 50" fill="none">
<path d="M17.4998 16.68L5.14478 29.07H11.8998V48.005H23.0998V29.07H29.8548L17.4998 16.68Z" fill="#E62334" stroke="#E62334" stroke-miterlimit="10" stroke-linecap="round" stroke-linejoin="round"/>
<path d="M38.75 46.95H83.25" stroke="#E62334" stroke-width="2" stroke-miterlimit="10" stroke-linecap="round"/>
<path d="M43.1002 38.15C40.3502 34.45 38.7002 29.85 38.7002 24.9C38.7502 12.55 48.7002 2.6 61.0002 2.6C73.3002 2.6 83.2502 12.55 83.2502 24.85C83.2502 29.8 81.6002 34.4 78.8502 38.1" stroke="#E62334" stroke-width="2" stroke-miterlimit="10" stroke-linecap="round"/>
<path d="M66.1004 19.7C66.1004 16.9 63.8004 14.6 61.0004 14.6C58.2004 14.6 55.9004 16.9 55.9004 19.7C55.9004 25.75 66.1004 23.8 66.1004 29.85C66.1004 32.65 63.8004 34.95 61.0004 34.95C58.2004 34.95 55.9004 32.65 55.9004 29.85" stroke="#E62334" stroke-width="2" stroke-miterlimit="10" stroke-linecap="round"/>
<path d="M61 14.6V11.25" stroke="#E62334" stroke-width="2" stroke-miterlimit="10" stroke-linecap="round"/>
<path d="M61 34.9V38.15" stroke="#E62334" stroke-width="2" stroke-miterlimit="10" stroke-linecap="round"/>
</svg>
