<svg width="86" height="50" viewBox="0 0 86 50" fill="none">
<path d="M17.5 16.68L5.14502 29.07H11.9V48.005H23.1V29.07H29.855L17.5 16.68Z" fill="#E62334" stroke="#E62334" stroke-miterlimit="10" stroke-linecap="round" stroke-linejoin="round"/>
<path d="M61.2502 23.95C67.0768 23.95 71.8002 19.2266 71.8002 13.4C71.8002 7.5734 67.0768 2.85001 61.2502 2.85001C55.4236 2.85001 50.7002 7.5734 50.7002 13.4C50.7002 19.2266 55.4236 23.95 61.2502 23.95Z" stroke="#E62334" stroke-width="2" stroke-miterlimit="10" stroke-linecap="round"/>
<path d="M70.7 25.85C67.8 24.6 64.6 23.95 61.25 23.95C51.65 23.95 43.4 29.5 39.45 37.6C37.6 41.35 40.35 45.8 44.55 45.8H62.3" stroke="#E62334" stroke-width="2" stroke-miterlimit="10" stroke-linecap="round"/>
<path d="M61.2502 23.95C67.0768 23.95 71.8002 19.2266 71.8002 13.4C71.8002 7.5734 67.0768 2.85001 61.2502 2.85001C55.4236 2.85001 50.7002 7.5734 50.7002 13.4C50.7002 19.2266 55.4236 23.95 61.2502 23.95Z" stroke="#E62334" stroke-width="2" stroke-miterlimit="10" stroke-linecap="round"/>
<path d="M70.7 25.85C67.8 24.6 64.6 23.95 61.25 23.95C51.65 23.95 43.4 29.5 39.45 37.6C37.6 41.35 40.35 45.8 44.55 45.8H62.3" stroke="#E62334" stroke-width="2" stroke-miterlimit="10" stroke-linecap="round"/>
<path d="M61.2502 23.95C67.0768 23.95 71.8002 19.2266 71.8002 13.4C71.8002 7.5734 67.0768 2.85001 61.2502 2.85001C55.4236 2.85001 50.7002 7.5734 50.7002 13.4C50.7002 19.2266 55.4236 23.95 61.2502 23.95Z" stroke="#E62334" stroke-width="2" stroke-miterlimit="10" stroke-linecap="round"/>
<path d="M70.7 25.85C67.8 24.6 64.6 23.95 61.25 23.95C51.65 23.95 43.4 29.5 39.45 37.6C37.6 41.35 40.35 45.8 44.55 45.8H67.6" stroke="#E62334" stroke-width="2" stroke-miterlimit="10" stroke-linecap="round"/>
<path d="M72.7998 46.9C78.5988 46.9 83.2998 42.199 83.2998 36.4C83.2998 30.601 78.5988 25.9 72.7998 25.9C67.0008 25.9 62.2998 30.601 62.2998 36.4C62.2998 42.199 67.0008 46.9 72.7998 46.9Z" stroke="#E62334" stroke-width="2" stroke-miterlimit="10" stroke-linecap="round"/>
<path d="M72.7998 30.85V36.4" stroke="#E62334" stroke-width="2" stroke-miterlimit="10" stroke-linecap="round"/>
<path d="M72.7998 36.4L76.6498 40.25" stroke="#E62334" stroke-width="2" stroke-miterlimit="10" stroke-linecap="round"/>
</svg>
