<svg width="35" height="35" fill="none"  stroke="#e62334" stroke-width="1.5" stroke-miterlimit="10" stroke-linejoin="round" ><path d="M9.275 21.63V9.31c0-4.55 3.675-8.225 8.225-8.225s8.225 3.675 8.225 8.225v12.32h-4.41V9.31c0-2.1-1.715-3.815-3.815-3.815S13.685 7.21 13.685 9.31v12.32h-4.41z"/><path d="M9.275 17.5h4.41m7.63 0h4.41" stroke-linecap="round"/><path d="M17.5 28.735c1.411 0 2.555-1.144 2.555-2.555s-1.144-2.555-2.555-2.555-2.555 1.144-2.555 2.555 1.144 2.555 2.555 2.555z"/><path d="M22.505 33.74c0-2.765-2.24-5.005-5.005-5.005s-5.005 2.24-5.005 5.005h10.01z"/><path d="M9.275 24.745c-.07-.07-4.06 5.075-4.06 5.075h4.06L7.63 33.74m17.955-8.995c.07-.07 4.06 5.075 4.06 5.075h-4.06l1.645 3.92" stroke-linecap="round"/></svg>
