<svg xmlns="http://www.w3.org/2000/svg" width="35" height="35" fill="none"  stroke="#e62334" stroke-width="1.5" stroke-miterlimit="10"><path d="M21.665 15.68c-1.295-3.675-4.2-7-6.825-7.98-.42-.14-.735-.455-.945-.875-.175-.42-.21-.875-.07-1.295.245-.665.875-1.085 1.61-1.085a1.45 1.45 0 0 1 .56.105c2.59.945 5.25 2.87 7.07 5.915"/><path d="M14.315 33.986c-.805 0-1.54-.42-1.925-1.085l-.91-1.47-1.505-2.555c-.875-1.68-1.855-3.535-1.855-5.425 0-.875.7-1.61 1.61-1.61.875 0 1.61.735 1.61 1.645 0 1.68 1.54 3.08 3.255 3.08H16.1c1.295 0 2.38-.49 3.185-1.435.735-.875 1.12-2.1 1.155-3.43 0-1.54-.49-2.87-1.365-3.78-1.015-1.015-2.52-1.4-4.2-.98-1.75.42-3.01 1.82-3.57 3.535-.21.63-.84 1.085-1.54 1.085-.14 0-.315-.035-.455-.07-.84-.245-1.295-1.19-1.05-2.065.49-1.645 1.54-3.115 2.905-4.165 1.435-1.085 3.185-1.68 5.005-1.68a8.23 8.23 0 0 1 6.335 2.975c.035.035.07.105.14.175.21.245.315.385.49.385h.035c.21-.035.385-.21.385-.42v-2.835c0-2.17-.525-4.305-1.505-6.23l-2.17-4.235c-.245-.455-.28-.875-.14-1.295s.42-.735.805-.945c.21-.105.455-.175.7-.175.595 0 1.155.35 1.435.875l2.17 4.27a16.77 16.77 0 0 1 1.855 7.7v17.36c0 1.575-1.26 2.835-2.835 2.835h-9.555v-.035z"/></svg>
