<svg xmlns="http://www.w3.org/2000/svg" width="35" height="35" fill="none"  stroke="#e62334" stroke-width="1.5" stroke-miterlimit="10" stroke-linecap="round" ><path d="M1.925 32.865h31.15M4.97 26.705c-1.925-2.59-3.08-5.81-3.08-9.275.035-8.645 7-15.61 15.61-15.61s15.575 6.965 15.575 15.575c0 3.465-1.155 6.685-3.08 9.275"/><path d="M21.07 13.79c0-1.96-1.61-3.57-3.57-3.57s-3.57 1.61-3.57 3.57c0 4.235 7.14 2.87 7.14 7.105 0 1.96-1.61 3.57-3.57 3.57s-3.57-1.61-3.57-3.57M17.5 10.22V7.875m0 16.555v2.275"/></svg>
