<svg width="50" height="50" viewBox="0 0 50 50" fill="none" xmlns="http://www.w3.org/2000/svg">
<path d="M21.1501 28.35L3.10015 24.25C1.95015 24 1.15015 23 1.15015 21.8V15.05C1.15015 13.65 2.25015 12.55 3.65015 12.55H24.6001" stroke="#E62334" stroke-width="1.5" stroke-miterlimit="10" stroke-linecap="round" stroke-linejoin="round"/>
<path d="M28.6501 28.35L46.7001 24.25C47.8501 24 48.6501 23 48.6501 21.8V15.05C48.6501 13.65 47.5501 12.55 46.1501 12.55H24.6001" stroke="#E62334" stroke-width="1.5" stroke-miterlimit="10" stroke-linecap="round" stroke-linejoin="round"/>
<path d="M28.4001 26.1499H21.4001V33.1499H28.4001V26.1499Z" stroke="#E62334" stroke-width="1.5" stroke-miterlimit="10" stroke-linecap="round" stroke-linejoin="round"/>
<path d="M16.9001 7.94998V6.84998C16.9001 5.44998 18.0001 4.34998 19.4001 4.34998H30.4501C31.8501 4.34998 32.9501 5.44998 32.9501 6.84998V7.94998" stroke="#E62334" stroke-width="1.5" stroke-miterlimit="10" stroke-linecap="round" stroke-linejoin="round"/>
<path d="M47.75 28.7V43.45C47.75 44.55 46.85 45.45 45.75 45.45H4.25C3.15 45.45 2.25 44.55 2.25 43.45V28.7999" stroke="#E62334" stroke-width="1.5" stroke-miterlimit="10" stroke-linecap="round" stroke-linejoin="round"/>
</svg>
