<svg width="35" height="35" viewBox="0 0 35 35" fill="none" xmlns="http://www.w3.org/2000/svg">
<path d="M17.675 16.7651C21.7537 16.7651 25.06 13.4587 25.06 9.38012C25.06 5.30149 21.7537 1.99512 17.675 1.99512C13.5964 1.99512 10.29 5.30149 10.29 9.38012C10.29 13.4587 13.5964 16.7651 17.675 16.7651Z" stroke="#E62334" stroke-width="1.5" stroke-miterlimit="10" stroke-linecap="round"/>
<path d="M24.29 18.0956C22.26 17.2206 20.02 16.7656 17.675 16.7656C10.955 16.7656 5.17997 20.6506 2.41497 26.3206C1.11997 28.9456 3.04497 32.0606 5.98497 32.0606H18.41" stroke="#E62334" stroke-width="1.5" stroke-miterlimit="10" stroke-linecap="round"/>
<path d="M27.9301 22.2949V32.6899" stroke="#E62334" stroke-width="1.5" stroke-miterlimit="10" stroke-linecap="round"/>
<path d="M22.75 27.4746H33.11" stroke="#E62334" stroke-width="1.5" stroke-miterlimit="10" stroke-linecap="round"/>
<path d="M17.675 16.7651C21.7537 16.7651 25.06 13.4587 25.06 9.38012C25.06 5.30149 21.7537 1.99512 17.675 1.99512C13.5964 1.99512 10.29 5.30149 10.29 9.38012C10.29 13.4587 13.5964 16.7651 17.675 16.7651Z" stroke="#E62334" stroke-width="1.5" stroke-miterlimit="10" stroke-linecap="round"/>
<path d="M24.29 18.0956C22.26 17.2206 20.02 16.7656 17.675 16.7656C10.955 16.7656 5.17997 20.6506 2.41497 26.3206C1.11997 28.9456 3.04497 32.0606 5.98497 32.0606H18.41" stroke="#E62334" stroke-width="1.5" stroke-miterlimit="10" stroke-linecap="round"/>
<path d="M27.9301 22.2949V32.6899" stroke="#E62334" stroke-width="1.5" stroke-miterlimit="10" stroke-linecap="round"/>
<path d="M22.75 27.4746H33.11" stroke="#E62334" stroke-width="1.5" stroke-miterlimit="10" stroke-linecap="round"/>
<path d="M17.675 16.7651C21.7537 16.7651 25.06 13.4587 25.06 9.38012C25.06 5.30149 21.7537 1.99512 17.675 1.99512C13.5964 1.99512 10.29 5.30149 10.29 9.38012C10.29 13.4587 13.5964 16.7651 17.675 16.7651Z" stroke="#E62334" stroke-width="1.5" stroke-miterlimit="10" stroke-linecap="round"/>
<path d="M24.29 18.0956C22.26 17.2206 20.02 16.7656 17.675 16.7656C10.955 16.7656 5.17997 20.6506 2.41497 26.3206C1.11997 28.9456 3.04497 32.0606 5.98497 32.0606H18.41" stroke="#E62334" stroke-width="1.5" stroke-miterlimit="10" stroke-linecap="round"/>
<path d="M27.9301 22.2949V32.6899" stroke="#E62334" stroke-width="1.5" stroke-miterlimit="10" stroke-linecap="round"/>
<path d="M22.75 27.4746H33.11" stroke="#E62334" stroke-width="1.5" stroke-miterlimit="10" stroke-linecap="round"/>
</svg>
