<svg xmlns="http://www.w3.org/2000/svg" xmlns:xlink="http://www.w3.org/1999/xlink" width="35" height="35" fill="none" ><g stroke="#e62334" stroke-width="1.5" stroke-miterlimit="10"><use xlink:href="#B"/><g stroke-linecap="round"><use xlink:href="#C"/><path d="M27.93 22.295V32.69"/><path d="M22.75 27.475h10.36"/></g><use xlink:href="#B"/><g stroke-linecap="round"><use xlink:href="#C"/><path d="M27.93 22.295V32.69"/><path d="M22.75 27.475h10.36"/></g><use xlink:href="#B"/><g stroke-linecap="round"><use xlink:href="#C"/><path d="M27.93 22.295V32.69"/><path d="M22.75 27.475h10.36"/></g></g><defs ><path id="B" d="M17.675 16.765c4.079 0 7.385-3.306 7.385-7.385s-3.306-7.385-7.385-7.385S10.29 5.301 10.29 9.38s3.306 7.385 7.385 7.385z"/><path id="C" d="M24.29 18.095c-2.03-.875-4.27-1.33-6.615-1.33-6.72 0-12.495 3.885-15.26 9.555-1.295 2.625.63 5.74 3.57 5.74H18.41"/></defs></svg>
