<svg width="35" height="35" viewBox="0 0 35 35" fill="none" xmlns="http://www.w3.org/2000/svg">
<path d="M17.675 16.765C21.7537 16.765 25.06 13.4586 25.06 9.38C25.06 5.30137 21.7537 1.995 17.675 1.995C13.5964 1.995 10.29 5.30137 10.29 9.38C10.29 13.4586 13.5964 16.765 17.675 16.765Z" stroke="#E62334" stroke-width="1.5" stroke-miterlimit="10" stroke-linecap="round"/>
<path d="M24.2901 18.095C22.2601 17.22 20.0201 16.765 17.6751 16.765C10.9551 16.765 5.18009 20.65 2.41509 26.32C1.12009 28.945 3.04509 32.06 5.98509 32.06H18.4101" stroke="#E62334" stroke-width="1.5" stroke-miterlimit="10" stroke-linecap="round"/>
<path d="M27.9302 22.295V32.69" stroke="#E62334" stroke-width="1.5" stroke-miterlimit="10" stroke-linecap="round"/>
<path d="M22.75 27.475H33.11" stroke="#E62334" stroke-width="1.5" stroke-miterlimit="10" stroke-linecap="round"/>
<path d="M17.675 16.765C21.7537 16.765 25.06 13.4586 25.06 9.38C25.06 5.30137 21.7537 1.995 17.675 1.995C13.5964 1.995 10.29 5.30137 10.29 9.38C10.29 13.4586 13.5964 16.765 17.675 16.765Z" stroke="#E62334" stroke-width="1.5" stroke-miterlimit="10" stroke-linecap="round"/>
<path d="M24.2901 18.095C22.2601 17.22 20.0201 16.765 17.6751 16.765C10.9551 16.765 5.18009 20.65 2.41509 26.32C1.12009 28.945 3.04509 32.06 5.98509 32.06H18.4101" stroke="#E62334" stroke-width="1.5" stroke-miterlimit="10" stroke-linecap="round"/>
<path d="M27.9302 22.295V32.69" stroke="#E62334" stroke-width="1.5" stroke-miterlimit="10" stroke-linecap="round"/>
<path d="M22.75 27.475H33.11" stroke="#E62334" stroke-width="1.5" stroke-miterlimit="10" stroke-linecap="round"/>
<path d="M17.675 16.765C21.7537 16.765 25.06 13.4586 25.06 9.38C25.06 5.30137 21.7537 1.995 17.675 1.995C13.5964 1.995 10.29 5.30137 10.29 9.38C10.29 13.4586 13.5964 16.765 17.675 16.765Z" stroke="#E62334" stroke-width="1.5" stroke-miterlimit="10" stroke-linecap="round"/>
<path d="M24.2901 18.095C22.2601 17.22 20.0201 16.765 17.6751 16.765C10.9551 16.765 5.18009 20.65 2.41509 26.32C1.12009 28.945 3.04509 32.06 5.98509 32.06H18.4101" stroke="#E62334" stroke-width="1.5" stroke-miterlimit="10" stroke-linecap="round"/>
<path d="M27.9302 22.295V32.69" stroke="#E62334" stroke-width="1.5" stroke-miterlimit="10" stroke-linecap="round"/>
<path d="M22.75 27.475H33.11" stroke="#E62334" stroke-width="1.5" stroke-miterlimit="10" stroke-linecap="round"/>
</svg>
