<svg width="50" height="50" viewBox="0 0 50 50" fill="none" xmlns="http://www.w3.org/2000/svg">
<path d="M25.0001 19.8499C30.1916 19.8499 34.4001 15.6414 34.4001 10.4499C34.4001 5.25845 30.1916 1.04993 25.0001 1.04993C19.8086 1.04993 15.6001 5.25845 15.6001 10.4499C15.6001 15.6414 19.8086 19.8499 25.0001 19.8499Z" stroke="#E62334" stroke-width="1.5" stroke-miterlimit="10" stroke-linecap="round" stroke-linejoin="round"/>
<path d="M25 19.8499V48.8999" stroke="#E62334" stroke-width="1.5" stroke-miterlimit="10" stroke-linecap="round" stroke-linejoin="round"/>
<path d="M14.6499 48.8999H35.3999" stroke="#E62334" stroke-width="1.5" stroke-miterlimit="10" stroke-linecap="round" stroke-linejoin="round"/>
<path d="M43.3498 27.7999C32.6498 27.7999 29.9998 30.1999 29.9998 41.3499" stroke="#E62334" stroke-width="1.5" stroke-miterlimit="10" stroke-linecap="round" stroke-linejoin="round"/>
<path d="M43.3498 27.7999C43.4998 38.4499 41.0998 41.1499 29.9998 41.3499" stroke="#E62334" stroke-width="1.5" stroke-miterlimit="10" stroke-linecap="round" stroke-linejoin="round"/>
<path d="M35.6498 35.6499L25.0498 46.4499" stroke="#E62334" stroke-width="1.5" stroke-miterlimit="10" stroke-linecap="round" stroke-linejoin="round"/>
<path d="M6.69995 19.3499C17.4 19.3499 20.05 21.7499 20.05 32.8999" stroke="#E62334" stroke-width="1.5" stroke-miterlimit="10" stroke-linecap="round" stroke-linejoin="round"/>
<path d="M6.69995 19.3499C6.54995 30.0499 8.89995 32.7499 20.0499 32.8999" stroke="#E62334" stroke-width="1.5" stroke-miterlimit="10" stroke-linecap="round" stroke-linejoin="round"/>
<path d="M14.3999 27.2499L24.9999 37.9999" stroke="#E62334" stroke-width="1.5" stroke-miterlimit="10" stroke-linecap="round" stroke-linejoin="round"/>
<path d="M27.1501 8.30002C27.1501 7.10002 26.2001 6.15002 25.0001 6.15002C23.8001 6.15002 22.8501 7.10002 22.8501 8.30002C22.8501 10.85 27.2001 10.05 27.2001 12.6C27.2001 13.8 26.2501 14.75 25.0501 14.75C23.8501 14.75 22.9001 13.8 22.9001 12.6" stroke="#E62334" stroke-width="1.5" stroke-miterlimit="10" stroke-linecap="round" stroke-linejoin="round"/>
<path d="M25.0002 6.14995V4.69995" stroke="#E62334" stroke-width="1.5" stroke-miterlimit="10" stroke-linecap="round" stroke-linejoin="round"/>
<path d="M25.0002 14.7999V16.1499" stroke="#E62334" stroke-width="1.5" stroke-miterlimit="10" stroke-linecap="round" stroke-linejoin="round"/>
</svg>
