<svg xmlns="http://www.w3.org/2000/svg" width="50" height="50" fill="none"  ><path d="M23.5 4.75L2.6 40.95c-.65 1.1.15 2.5 1.45 2.5h41.8c1.3 0 2.1-1.4 1.45-2.5L26.4 4.75a1.69 1.69 0 0 0-2.9 0z" stroke="#e62334" stroke-width="2" stroke-miterlimit="10" stroke-linejoin="round"/><g fill="#e62334"><path d="M24.95 38.15a2.2 2.2 0 1 0 0-4.4 2.2 2.2 0 0 0 0 4.4zm0-17a2.55 2.55 0 1 0 0-5.1 2.55 2.55 0 0 0 0 5.1zm0 10.3a1.8 1.8 0 1 0 0-3.6 1.8 1.8 0 1 0 0 3.6z"/><path d="M27.5 18.6l-.75 11.05h-3.6L22.4 18.6h5.1z"/></g></svg>
