<svg width="50" height="50" viewBox="0 0 50 50" fill="none" xmlns="http://www.w3.org/2000/svg">
<path d="M30 43.4999C37.8425 43.4999 44.2 37.1423 44.2 29.2999C44.2 21.4574 37.8425 15.0999 30 15.0999C22.1576 15.0999 15.8 21.4574 15.8 29.2999C15.8 37.1423 22.1576 43.4999 30 43.4999Z" stroke="#E62334" stroke-width="1.5" stroke-miterlimit="10" stroke-linecap="round" stroke-linejoin="round"/>
<path d="M29.9999 48.1499C40.4105 48.1499 48.8499 39.7105 48.8499 29.2999C48.8499 18.8894 40.4105 10.45 29.9999 10.45C19.5893 10.45 11.1499 18.8894 11.1499 29.2999C11.1499 39.7105 19.5893 48.1499 29.9999 48.1499Z" stroke="#E62334" stroke-width="1.5" stroke-miterlimit="10" stroke-linecap="round" stroke-linejoin="round"/>
<path d="M33.1999 6.69993H26.8499C25.4999 6.69993 24.3999 5.59993 24.3999 4.24993C24.3999 2.89993 25.4999 1.79993 26.8499 1.79993H33.1999C34.5499 1.79993 35.6499 2.89993 35.6499 4.24993C35.6499 5.59993 34.5499 6.69993 33.1999 6.69993Z" stroke="#E62334" stroke-width="1.5" stroke-miterlimit="10" stroke-linecap="round" stroke-linejoin="round"/>
<path d="M26.8501 6.69995V10.7" stroke="#E62334" stroke-width="1.5" stroke-miterlimit="10" stroke-linecap="round" stroke-linejoin="round"/>
<path d="M33.3 6.69995V10.7" stroke="#E62334" stroke-width="1.5" stroke-miterlimit="10" stroke-linecap="round" stroke-linejoin="round"/>
<path d="M30 32.25C31.6569 32.25 33 30.9069 33 29.25C33 27.5931 31.6569 26.25 30 26.25C28.3431 26.25 27 27.5931 27 29.25C27 30.9069 28.3431 32.25 30 32.25Z" stroke="#E62334" stroke-width="1.5" stroke-miterlimit="10" stroke-linecap="round" stroke-linejoin="round"/>
<path d="M25.8501 25.0499L27.8001 26.9999" stroke="#E62334" stroke-width="1.5" stroke-miterlimit="10" stroke-linecap="round" stroke-linejoin="round"/>
<path d="M19.55 29.25H20.5" stroke="#E62334" stroke-width="1.5" stroke-miterlimit="10" stroke-linecap="round" stroke-linejoin="round"/>
<path d="M39.4001 29.25H40.4001" stroke="#E62334" stroke-width="1.5" stroke-miterlimit="10" stroke-linecap="round" stroke-linejoin="round"/>
<path d="M30 39.7V38.7" stroke="#E62334" stroke-width="1.5" stroke-miterlimit="10" stroke-linecap="round" stroke-linejoin="round"/>
<path d="M30 19.7999V18.7999" stroke="#E62334" stroke-width="1.5" stroke-miterlimit="10" stroke-linecap="round" stroke-linejoin="round"/>
<path d="M32.1001 27.1L36.7501 22.5" stroke="#E62334" stroke-width="1.5" stroke-miterlimit="10" stroke-linecap="round" stroke-linejoin="round"/>
<path d="M12.15 35.2999H1.25" stroke="#E62334" stroke-width="1.5" stroke-miterlimit="10" stroke-linecap="round" stroke-linejoin="round"/>
<path d="M11.2001 29.5499H6.1001" stroke="#E62334" stroke-width="1.5" stroke-miterlimit="10" stroke-linecap="round" stroke-linejoin="round"/>
<path d="M14.8499 18.1499H7.3999" stroke="#E62334" stroke-width="1.5" stroke-miterlimit="10" stroke-linecap="round" stroke-linejoin="round"/>
<path d="M11.2 23.7999H1.25" stroke="#E62334" stroke-width="1.5" stroke-miterlimit="10" stroke-linecap="round" stroke-linejoin="round"/>
</svg>
