<svg xmlns="http://www.w3.org/2000/svg" width="50" height="50" fill="none"><path d="M25 50c13.807 0 25-11.193 25-25S38.807 0 25 0 0 11.193 0 25s11.193 25 25 25z" fill="#6da544"/><path d="M25 9.782L45.652 25 25 40.217 4.348 25 25 9.782z" fill="#ffda44"/><path d="M25 33.696A8.7 8.7 0 0 0 33.696 25 8.7 8.7 0 0 0 25 16.305 8.7 8.7 0 0 0 16.304 25 8.7 8.7 0 0 0 25 33.696z" fill="#f0f0f0"/><path d="M20.652 24.457a14.62 14.62 0 0 0-4.345.657c.061 4.75 3.928 8.582 8.693 8.582 2.946 0 5.548-1.466 7.121-3.708-2.691-3.369-6.832-5.531-11.469-5.531zm12.883 2.209A8.74 8.74 0 0 0 33.696 25 8.7 8.7 0 0 0 25 16.305c-3.583 0-6.66 2.168-7.991 5.264a17.93 17.93 0 0 1 3.643-.372c5.051 0 9.619 2.099 12.882 5.47z" fill="#0052b4"/></svg>
