<svg xmlns="http://www.w3.org/2000/svg" width="85" height="50" fill="none"  stroke="#e62334" stroke-miterlimit="10" stroke-linejoin="round"><path d="M17.5 48.005L29.855 35.65H23.1V16.68H11.9v18.97H5.145L17.5 48.005z" fill="#e62334"/><g stroke-width="2"><path d="M60.7 6l3.6-2.6a1.21 1.21 0 0 1 1.75.45l2 3.95c.25.45.7.7 1.2.65l4.4-.6c.7-.1 1.35.45 1.35 1.2v4.45c0 .5.3.95.8 1.15l4.2 1.5c.7.25 1 1.05.65 1.7l-2.15 3.9c-.25.45-.2 1 .15 1.35l3 3.3c.5.55.4 1.4-.2 1.8l-3.7 2.45a1.3 1.3 0 0 0-.5 1.3l1.15 4.3c.2.7-.3 1.4-1.05 1.5l-4.45.45c-.5.05-.9.4-1.05.9l-1 4.35c-.15.7-.9 1.1-1.6.85l-4.15-1.65c-.45-.2-1-.05-1.35.35l-2.9 3.4a1.19 1.19 0 0 1-1.8 0L56.2 43c-.35-.4-.85-.5-1.35-.35L50.7 44.3c-.7.25-1.45-.15-1.6-.85l-1-4.35c-.1-.5-.55-.85-1.05-.9l-4.45-.45c-.75-.1-1.2-.8-1.05-1.5l1.15-4.3c.15-.5-.05-1-.5-1.3l-3.7-2.45c-.6-.4-.7-1.25-.2-1.8l3-3.3c.35-.35.4-.95.15-1.35l-2.15-3.9c-.35-.65-.05-1.45.65-1.7l4.2-1.5c.55-.15.85-.65.85-1.15l-.05-4.45c0-.75.65-1.3 1.35-1.2l4.4.6c.5.05 1-.2 1.2-.65l2-3.95a1.21 1.21 0 0 1 1.75-.45l3.6 2.6c.45.3 1.05.3 1.45 0z"/><path d="M53 32l14.05-14.05" stroke-linecap="round"/><path d="M65.25 32.65a2.55 2.55 0 1 0 0-5.1 2.55 2.55 0 0 0 0 5.1zM55.05 22.5a2.55 2.55 0 1 0 0-5.1 2.55 2.55 0 0 0 0 5.1z"/></g></svg>
