<svg xmlns="http://www.w3.org/2000/svg" width="85" height="50" fill="#e62334"><path d="M57.85 44.05c-5.8-.5-10.1-2.7-13.05-5.75l4.25-6c2.05 2.15 5.05 4.1 8.8 4.75V28.3c-5.7-1.45-11.9-3.55-11.9-11.1 0-5.6 4.45-10.35 11.9-11.15V.95h5.25V6.2c4.5.5 8.25 2.2 11.25 4.95L70 16.9c-2-1.85-4.35-3-6.85-3.6v7.8c5.7 1.45 12.05 3.65 12.05 11.2 0 6.15-4 10.85-12.05 11.7v5.05h-5.3v-5zm0-24.3V13c-2.5.35-3.9 1.7-3.9 3.6.05 1.6 1.6 2.45 3.9 3.15zm5.3 9.9v7.4c2.7-.55 4.1-2.15 4.1-3.9 0-1.8-1.75-2.7-4.1-3.5z"/><path d="M17.5 48.005L29.855 35.65H23.1V16.68H11.9v18.97H5.145L17.5 48.005z" stroke="#e62334" stroke-miterlimit="10" stroke-linejoin="round"/></svg>
