<svg xmlns="http://www.w3.org/2000/svg" width="50" height="50" fill="none"><path d="M25 50c13.807 0 25-11.193 25-25S38.807 0 25 0 0 11.193 0 25s11.193 25 25 25z" fill="#0052b4"/><path d="M25 9.782l.809 2.491h2.619l-2.119 1.54.809 2.491L25 14.764l-2.119 1.54.809-2.491-2.119-1.54h2.619L25 9.782zm-10.76 4.457l2.334 1.189 1.852-1.852-.41 2.587 2.334 1.189-2.587.41-.41 2.587-1.189-2.334-2.587.41 1.852-1.852-1.189-2.334zM9.783 25l2.491-.809v-2.619l1.54 2.119 2.491-.809L14.765 25l1.54 2.119-2.491-.809-1.54 2.119V25.81L9.783 25zm4.457 10.76l1.189-2.334-1.852-1.852 2.587.41 1.189-2.334.41 2.587 2.587.41-2.334 1.189.41 2.587-1.852-1.852-2.334 1.189zM25 40.217l-.81-2.491h-2.619l2.119-1.54-.809-2.491L25 35.235l2.119-1.539-.809 2.491 2.119 1.54H25.81l-.81 2.49zm10.761-4.457l-2.334-1.189-1.852 1.852.41-2.587-2.334-1.189 2.587-.41.41-2.587 1.189 2.334 2.587-.41-1.852 1.852 1.189 2.334zM40.217 25l-2.491.809v2.619l-1.54-2.119-2.491.809L35.235 25l-1.54-2.119 2.491.809 1.54-2.119v2.619l2.491.809zm-4.456-10.761l-1.189 2.334 1.852 1.852-2.587-.41-1.189 2.334-.41-2.587-2.587-.41 2.334-1.189-.41-2.587 1.852 1.852 2.334-1.189z" fill="#ffda44"/></svg>
