<svg xmlns="http://www.w3.org/2000/svg" width="85" height="50" fill="none"><g stroke="#e62334" stroke-width="2" stroke-miterlimit="10" stroke-linejoin="round"><path d="M58.15 47.85c-1.35.95-3.2.6-4.1-.75L46.8 36.75l4.85-3.4 7.2 10.35c.95 1.35.6 3.2-.7 4.15z"/><path d="M40.45 28.5l5.25-3.65 5.95 8.55-5.25 3.65c-2.35 1.65-5.6 1.05-7.25-1.3s-1.05-5.6 1.3-7.25zm27.683 3.663c2.652-1.846 1.323-8.339-2.969-14.504S55.245 7.994 52.593 9.84s-1.322 8.339 2.969 14.504 9.919 9.665 12.571 7.819z"/><path d="M45.7 24.85l5.95-13.8m0 22.3l15-.75M57.2 18.699c1.6-.6 3.5-.05 4.55 1.45 1.05 1.55.9 3.6-.35 4.9m9.95-11.699l6.6-4.6m-10.65.5l1.4-7.9m5.1 17.2L81.7 20" stroke-linecap="round"/></g><path d="M15.995 45.835c-4.06-.35-7.07-1.89-9.135-4.025l2.975-4.2c1.435 1.505 3.535 2.87 6.16 3.325V34.81c-3.99-1.015-8.33-2.485-8.33-7.77 0-3.92 3.115-7.245 8.33-7.805v-3.57h3.675v3.675c3.15.35 5.775 1.54 7.875 3.465L24.5 26.83c-1.4-1.295-3.045-2.1-4.795-2.52v5.46c3.99 1.015 8.435 2.555 8.435 7.84 0 4.305-2.8 7.595-8.435 8.19v3.535h-3.71v-3.5zm0-17.01V24.1c-1.75.245-2.73 1.19-2.73 2.52.035 1.12 1.12 1.715 2.73 2.205zm3.71 6.93v5.18c1.89-.385 2.87-1.505 2.87-2.73 0-1.26-1.225-1.89-2.87-2.45z" fill="#e62334"/></svg>
