<svg xmlns="http://www.w3.org/2000/svg" width="50" height="50" fill="none"  stroke="#e62334" stroke-width="1.5" stroke-miterlimit="10" stroke-linecap="round" stroke-linejoin="round"><path d="M5.2 9.5a2.06 2.06 0 0 1-2.05-2.05c0-1.1.95-2.05 2.05-2.05h5.1M8.55 9.5h-5.3a2.06 2.06 0 0 0-2.05 2.05c0 1.1.95 2.05 2.05 2.05h5.3m23.8-9.9H23.6l-4.45-2.5H6.7a2.06 2.06 0 0 0-2.05 2.05c0 1.1.95 2.05 2.05 2.05m-2.4 8.301a2.06 2.06 0 0 0-2.05 2.05c0 1.1.95 2.05 2.05 2.05h9.45l-2.25 2.3c-.8.8-.8 2.1 0 2.95.8.8 2.1.8 2.95 0l8.8-8.8h3.55M9.5 44.8a2.06 2.06 0 0 1-2.05 2.05c-1.1 0-2.05-.95-2.05-2.05v-5.1"/><path d="M9.5 41.45v5.3a2.06 2.06 0 0 0 2.05 2.05c1.1 0 2.05-.95 2.05-2.05v-5.3m-9.9-23.8v8.75l-2.5 4.45V43.3a2.06 2.06 0 0 0 2.05 2.05c1.1 0 2.05-.95 2.05-2.05m8.7 3.2a2.06 2.06 0 0 0 2.05 2.05c1.1 0 2.05-.95 2.05-2.05v-9.45l2.3 2.25c.8.8 2.1.8 2.95 0 .8-.8.8-2.1 0-2.95l-8.85-8.8V24m30.3 16.55a2.06 2.06 0 0 1 2.05 2.05 2.06 2.06 0 0 1-2.05 2.05h-5.1"/><path d="M41.45 40.55h5.3a2.06 2.06 0 0 0 2.05-2.05 2.06 2.06 0 0 0-2.05-2.05h-5.3m-23.8 9.85h8.75l4.45 2.5H43.3a2.06 2.06 0 0 0 2.05-2.05 2.06 2.06 0 0 0-2.05-2.05m2.4-8.3a2.06 2.06 0 0 0 2.05-2.05 2.06 2.06 0 0 0-2.05-2.05h-9.45L38.5 30c.8-.8.8-2.1 0-2.95-.8-.8-2.1-.8-2.95 0l-8.8 8.85H23.2M40.5 5.2a2.06 2.06 0 0 1 2.05-2.05A2.06 2.06 0 0 1 44.6 5.2v5.1"/><path d="M40.5 8.55v-5.3a2.06 2.06 0 0 0-2.05-2.05 2.06 2.06 0 0 0-2.05 2.05v5.3m9.9 23.8V23.6l2.5-4.45V6.7a2.06 2.06 0 0 0-2.05-2.05A2.06 2.06 0 0 0 44.7 6.7m-8.3-2.4a2.06 2.06 0 0 0-2.05-2.05A2.06 2.06 0 0 0 32.3 4.3v9.45L30 11.5c-.8-.8-2.1-.8-2.95 0-.8.8-.8 2.1 0 2.95l8.8 8.8v3.55"/></svg>
