<svg xmlns="http://www.w3.org/2000/svg" xmlns:xlink="http://www.w3.org/1999/xlink" width="50" height="50" fill="none"><g stroke="#e62334" stroke-width="2.25"><g stroke-miterlimit="10"><path d="M25 41.701c9.223 0 16.7-7.477 16.7-16.7s-7.477-16.7-16.7-16.7-16.7 7.477-16.7 16.7 7.477 16.7 16.7 16.7z"/><path d="M20.55 41.101l-1.65 6.2M30.85 2.75l-1.65 6.1m-16.1 27.9l-4.5 4.5M41.15 8.601l-4.35 4.4M8.8 29.2l-6.15 1.65M47.2 18.9l-6.1 1.65m-32.2-.049l-6.15-1.65M47.25 30.9l-6.1-1.65M13.4 12.95L8.95 8.4M41.2 41.351l-4.4-4.5M20.6 8.9l-1.7-6.2m12.2 44.451l-1.65-6.05" stroke-linecap="round"/></g><g fill="#e62334"><use xlink:href="#B"/><use xlink:href="#B" x="7.4" y="3.049"/><use xlink:href="#B" x="7.4" y="17.75"/><use xlink:href="#B" x="3" y="7.399"/><use xlink:href="#B" x="-2.95" y="7.399"/><use xlink:href="#B" x="3" y="13.399"/><use xlink:href="#B" y="20.799"/><use xlink:href="#B" x="-2.95" y="13.399"/><use xlink:href="#B" x="-7.35" y="17.75"/><use xlink:href="#B" x="-10.4" y="10.399"/><use xlink:href="#B" x="10.45" y="10.399"/><use xlink:href="#B" x="-7.35" y="3.049"/></g><path d="M28.95 2.25l3.8 1m7 4L42.6 10m4.05 7l1.05 3.85m.05 8.1l-1 3.8M42.6 40l-2.85 2.7M33 46.65l-3.85 1m-8.3-45.5L17 3.2m-6.55 3.75L7.6 9.7m-4.5 7.25l-1.05 3.8M2 28.95l1.05 3.8m4.1 7.15l2.9 2.75m7 4l3.8 1" stroke-miterlimit="10" stroke-linecap="round"/></g><defs ><path id="B" d="M24.975 14.601c0 .069-.056.125-.125.125s-.125-.056-.125-.125.056-.125.125-.125.125.056.125.125z"/></defs></svg>
